<?xml version="1.0" standalone="no"?>
<!DOCTYPE svg PUBLIC "-//W3C//DTD SVG 20010904//EN"
 "http://www.w3.org/TR/2001/REC-SVG-20010904/DTD/svg10.dtd">
<svg version="1.0" xmlns="http://www.w3.org/2000/svg"
 width="1898.000000pt" height="965.000000pt" viewBox="0 0 1898.000000 965.000000"
 preserveAspectRatio="xMidYMid meet">

<g transform="translate(0.000000,965.000000) scale(0.100000,-0.100000)"
fill="#000000" stroke="none">
<path d="M0 4825 l0 -4825 9490 0 9490 0 0 1830 0 1830 -77 -40 c-43 -21 -103
-45 -134 -53 -103 -26 -102 -25 -16 -107 42 -40 77 -80 77 -90 0 -20 -138 -86
-199 -96 -33 -5 -39 -3 -43 14 -4 13 1 27 13 38 26 23 24 31 -11 61 -24 20
-28 28 -19 39 10 12 15 12 35 -1 18 -12 28 -13 48 -4 34 16 41 60 16 105 -11
19 -18 39 -16 43 3 4 24 13 48 20 24 7 50 17 58 22 8 5 22 12 30 15 35 14 66
30 82 44 15 12 16 17 5 35 -32 50 -30 54 26 49 l52 -5 -42 38 c-38 34 -59 64
-34 49 5 -3 23 -1 40 5 24 8 35 8 46 -1 13 -11 15 12 15 189 0 139 -3 201 -11
201 -17 0 -67 -39 -163 -126 -89 -82 -166 -135 -166 -114 0 11 47 61 72 77 17
10 38 49 38 68 0 9 -7 18 -15 21 -21 9 -19 30 7 56 l23 23 -49 10 c-32 7 -54
18 -64 33 -20 31 -8 40 58 43 101 4 169 59 73 59 -27 0 -66 5 -88 10 -57 13
-71 6 -99 -54 -30 -64 -63 -88 -106 -80 -40 9 -44 18 -26 56 18 35 20 70 7 96
-5 9 -15 31 -22 47 -7 17 -15 33 -17 37 -2 3 13 14 32 23 22 11 36 24 36 35 0
12 18 27 53 44 48 23 50 25 22 26 -45 1 -59 13 -51 46 10 40 33 73 59 85 12 6
38 19 57 29 43 24 82 25 126 4 58 -28 58 -34 4 -114 -28 -40 -71 -96 -95 -125
-25 -29 -45 -62 -45 -74 0 -19 5 -21 73 -21 39 0 101 -5 137 -11 36 -5 82 -13
103 -16 l37 -6 0 2617 0 2616 -9490 0 -9490 0 0 -4825z m971 4748 c129 -57
199 -218 154 -354 -27 -79 -112 -162 -190 -185 -153 -44 -312 31 -365 173 -44
119 -5 256 95 335 75 59 211 73 306 31z m17087 -65 c9 -9 12 -69 12 -208 0
-139 -3 -199 -12 -208 -17 -17 -1909 -17 -1926 0 -17 17 -17 399 0 416 17 17
1909 17 1926 0z m452 -108 c0 -6 33 -10 79 -10 44 0 82 -4 85 -9 3 -5 -4 -27
-17 -50 -21 -39 -24 -41 -69 -41 -27 0 -48 -4 -48 -10 0 -6 27 -10 60 -10 33
0 60 -4 60 -9 0 -14 -20 -18 -79 -15 -62 3 -78 13 -63 41 8 14 6 30 -8 61 -11
23 -24 42 -30 42 -5 0 -10 5 -10 10 0 6 9 10 20 10 11 0 20 -4 20 -10z m-8970
-55 c0 -21 5 -25 30 -25 17 0 29 3 29 8 -4 21 2 42 11 42 6 0 10 -27 10 -60 0
-33 -4 -60 -10 -60 -10 0 -14 13 -11 43 2 13 -5 17 -28 17 -28 0 -31 -3 -31
-30 0 -53 -18 -32 -22 26 -1 31 -1 58 1 60 11 11 21 1 21 -21z m868 -4 c4 -26
-12 -41 -45 -41 -18 0 -23 -6 -23 -25 0 -14 -4 -25 -9 -25 -9 0 -20 108 -11
116 2 3 22 4 45 2 34 -3 41 -7 43 -27z m42 -31 c0 -33 -4 -60 -10 -60 -6 0
-10 27 -10 60 0 33 4 60 10 60 6 0 10 -27 10 -60z m231 48 c4 -88 3 -108 -7
-108 -12 0 -22 70 -16 103 4 20 22 23 23 5z m289 -48 c0 -59 0 -60 -28 -60
-33 0 -52 16 -52 45 0 26 18 45 42 45 10 0 18 7 18 15 0 8 5 15 10 15 6 0 10
-27 10 -60z m589 46 c7 -9 8 -17 3 -20 -6 -3 -12 1 -16 9 -9 24 -45 18 -56
-10 -20 -53 33 -104 59 -58 5 10 13 15 17 11 12 -13 -18 -38 -46 -38 -34 0
-53 22 -53 62 0 49 63 79 92 44z m415 8 c9 -3 16 -13 16 -22 0 -13 -2 -13 -18
1 -25 23 -49 21 -62 -4 -24 -43 11 -90 54 -73 23 9 20 32 -6 37 -17 3 -14 5
10 6 26 1 32 -3 32 -19 0 -40 -67 -53 -100 -20 -49 49 7 120 74 94z m256 -54
l0 -60 -35 0 c-29 0 -37 5 -45 26 -13 34 3 64 35 64 16 0 25 6 25 15 0 8 5 15
10 15 6 0 10 -27 10 -60z m631 50 c14 -8 19 -21 19 -50 0 -29 -5 -42 -19 -50
-47 -25 -91 0 -91 50 0 50 44 75 91 50z m330 -6 c19 -23 -1 -48 -40 -52 -25
-3 -31 -8 -31 -28 0 -13 -4 -24 -10 -24 -6 0 -10 27 -10 60 l0 60 39 0 c23 0
44 -6 52 -16z m200 -41 c-1 -28 4 -50 11 -55 9 -5 6 -8 -9 -8 -20 0 -23 5 -23
41 0 33 -3 40 -17 37 -13 -2 -19 -14 -21 -41 -4 -52 -22 -46 -22 8 0 43 1 45
29 45 18 0 31 6 35 16 11 28 19 7 17 -43z m784 46 c4 -6 4 -13 0 -17 -3 -3
-10 0 -14 7 -9 15 -47 11 -45 -4 1 -6 18 -18 38 -28 52 -25 43 -67 -15 -67
-27 0 -57 25 -45 37 3 4 12 -1 19 -11 14 -20 48 -19 54 1 3 7 -11 19 -30 27
-42 17 -53 32 -37 51 14 17 66 20 75 4z m45 -3 c0 -9 12 -16 28 -18 24 -3 27
-7 30 -45 2 -26 -1 -43 -7 -43 -6 0 -11 18 -11 41 0 33 -3 40 -17 37 -13 -2
-19 -14 -21 -41 -5 -60 -22 -42 -22 23 0 33 4 60 10 60 6 0 10 -6 10 -14z
m709 0 c7 -9 8 -17 3 -20 -6 -3 -12 1 -16 9 -9 24 -45 18 -58 -10 -23 -51 26
-100 58 -58 7 10 16 15 20 11 13 -13 -18 -38 -47 -38 -50 0 -77 64 -42 102 19
21 66 24 82 4z m76 -17 c16 -3 21 -14 23 -47 2 -25 -1 -42 -7 -42 -6 0 -11 18
-11 40 0 29 -4 40 -15 40 -16 0 -30 -42 -21 -65 3 -8 1 -15 -4 -15 -13 0 -15
23 -11 98 1 24 3 25 14 11 7 -9 21 -18 32 -20z m166 19 c4 -88 3 -108 -7 -108
-12 0 -22 70 -16 103 4 20 22 23 23 5z m167 -17 c2 -13 -1 -28 -7 -34 -6 -6
-5 -17 6 -33 20 -32 3 -31 -27 1 -13 14 -29 25 -37 25 -7 0 -13 -11 -13 -25 0
-14 -4 -25 -10 -25 -6 0 -10 27 -10 61 l0 60 48 -3 c41 -3 47 -6 50 -27z
m-5630 -13 c30 -30 3 -83 -39 -76 -45 6 -42 88 4 88 13 0 28 -5 35 -12z m150
-35 c2 -26 -1 -43 -7 -43 -6 0 -11 15 -11 34 0 36 -17 57 -29 37 -4 -7 -7 -25
-6 -41 1 -19 -3 -30 -12 -30 -9 0 -13 13 -13 41 0 52 -24 48 -28 -4 -5 -52
-22 -46 -22 8 l0 45 63 -3 62 -2 3 -42z m93 20 c8 -21 5 -23 -26 -23 -36 0
-47 -16 -19 -27 9 -3 20 0 24 8 5 7 12 10 15 7 12 -12 -5 -28 -29 -28 -28 0
-46 18 -46 45 0 47 65 61 81 18z m587 -21 l3 -43 -38 3 c-50 4 -58 34 -14 49
17 6 31 15 31 20 0 12 -27 11 -35 -1 -3 -5 -11 -10 -17 -10 -6 0 -6 6 2 16 8
8 25 14 39 12 23 -3 26 -8 29 -46z m92 29 c14 -28 13 -74 -2 -69 -7 3 -13 20
-13 39 0 49 -29 47 -33 -3 -4 -53 -22 -47 -22 7 0 43 1 45 30 45 19 0 33 -7
40 -19z m138 7 c27 -27 7 -78 -30 -78 -10 0 -18 -7 -18 -15 0 -8 -4 -15 -10
-15 -6 0 -10 27 -10 60 0 59 0 60 28 60 15 0 33 -5 40 -12z m100 0 c23 -23 13
-38 -25 -38 -35 0 -36 -1 -20 -17 13 -13 20 -14 29 -5 17 17 33 15 18 -3 -34
-41 -96 6 -71 54 13 23 50 28 69 9z m142 -33 c0 -25 -4 -45 -10 -45 -5 0 -10
20 -10 45 0 25 5 45 10 45 6 0 10 -20 10 -45z m84 36 c3 -5 8 -24 10 -43 4
-33 3 -35 -27 -36 -56 -2 -73 39 -21 52 13 4 24 11 24 16 0 14 -28 12 -33 -2
-2 -7 -8 -10 -12 -6 -4 4 -4 11 0 17 8 13 52 15 59 2z m560 0 c3 -5 8 -24 10
-43 4 -33 3 -35 -27 -36 -56 -2 -73 39 -21 52 13 4 24 11 24 16 0 14 -28 12
-33 -2 -2 -7 -8 -10 -12 -6 -4 4 -4 11 0 17 8 13 52 15 59 2z m62 -7 c-9 -8
-16 -29 -16 -45 0 -16 -4 -29 -10 -29 -5 0 -10 20 -10 45 0 42 2 45 26 45 23
0 24 -1 10 -16z m92 4 c23 -23 13 -38 -25 -38 -35 0 -36 -1 -20 -17 13 -13 20
-14 29 -5 17 17 33 15 18 -3 -28 -33 -83 -5 -72 37 9 37 45 51 70 26z m226
-31 c1 -48 30 -43 34 6 4 52 22 46 22 -8 0 -43 -1 -45 -30 -45 -30 0 -47 20
-44 50 1 8 2 21 3 29 2 27 15 1 15 -32z m96 -2 c0 -25 -4 -45 -10 -45 -5 0
-10 20 -10 45 0 25 5 45 10 45 6 0 10 -20 10 -45z m189 26 c13 -23 5 -31 -31
-31 -30 0 -38 -17 -12 -27 9 -3 20 0 24 8 5 7 12 10 15 7 12 -12 -5 -28 -29
-28 -28 0 -46 18 -46 45 0 43 60 63 79 26z m81 10 c0 -5 -9 -7 -20 -4 -29 8
-25 -16 6 -27 16 -7 24 -16 22 -28 -4 -20 -45 -29 -62 -12 -8 9 -4 10 17 5 35
-9 37 12 2 25 -24 9 -32 29 -18 43 10 10 53 8 53 -2z m520 -31 c0 -28 4 -40
14 -40 16 0 26 21 26 56 0 13 5 24 10 24 6 0 10 -21 10 -46 l0 -45 -37 3 c-37
3 -38 4 -41 46 -2 25 1 42 7 42 6 0 11 -18 11 -40z m118 33 c-20 -5 -33 -44
-24 -69 4 -10 1 -14 -6 -12 -7 3 -13 10 -12 16 1 7 2 26 3 42 1 26 5 30 29 29
16 -1 20 -3 10 -6z m250 -41 l3 -43 -38 3 c-50 4 -58 34 -14 49 17 6 31 15 31
20 0 12 -27 11 -35 -1 -3 -5 -11 -10 -17 -10 -6 0 -6 6 2 16 8 8 25 14 39 12
23 -3 26 -8 29 -46z m200 1 c2 -26 -1 -43 -7 -43 -6 0 -11 18 -11 40 0 28 -4
40 -14 40 -17 0 -25 -20 -22 -54 4 -34 -10 -34 -17 0 -9 47 2 65 37 62 29 -3
31 -6 34 -45z m90 35 c23 -23 13 -38 -25 -38 -35 0 -36 -1 -20 -17 13 -13 20
-14 29 -5 17 17 33 15 18 -3 -26 -31 -72 -12 -72 30 0 40 43 60 70 33z m148 1
c3 -6 -4 -7 -20 -3 -34 8 -35 -13 0 -26 16 -7 24 -16 22 -28 -4 -20 -45 -29
-62 -12 -8 9 -4 10 17 5 20 -6 27 -4 27 8 0 8 -11 18 -25 21 -14 4 -25 13 -25
21 0 8 -7 15 -15 15 -16 0 -30 -42 -21 -65 3 -8 1 -15 -4 -15 -6 0 -10 20 -10
44 l0 45 55 0 c30 0 57 -5 61 -10z m642 -1 c17 -17 15 -53 -3 -68 -8 -7 -25
-10 -40 -6 -21 5 -25 12 -25 40 0 19 6 37 13 39 22 9 43 7 55 -5z m100 -31 c3
-35 1 -38 -27 -43 -17 -4 -31 -13 -31 -20 0 -8 -4 -14 -10 -14 -6 0 -10 27
-10 61 l0 60 38 -3 c35 -3 37 -5 40 -41z m650 31 c7 -7 12 -26 12 -44 0 -31
-2 -32 -37 -31 -30 2 -39 6 -41 23 -2 16 5 23 30 31 28 9 30 11 14 18 -12 5
-21 3 -26 -6 -5 -7 -12 -10 -15 -7 -12 12 5 28 29 28 12 0 27 -5 34 -12z m320
-30 c3 -33 0 -38 -23 -44 -31 -8 -55 10 -55 40 0 30 20 47 50 44 21 -3 25 -9
28 -40z m90 30 c17 -17 15 -53 -3 -68 -8 -7 -25 -10 -40 -6 -20 5 -25 12 -25
40 0 18 3 36 7 39 11 11 48 8 61 -5z m150 -35 c2 -26 -1 -43 -7 -43 -6 0 -11
18 -11 40 0 29 -4 40 -15 40 -11 0 -15 -11 -15 -40 0 -51 -18 -53 -22 -2 -2
25 -8 37 -18 37 -10 0 -16 -12 -18 -37 -4 -53 -22 -47 -22 7 l0 45 63 -2 62
-3 3 -42z m2872 -77 c0 -8 -5 -18 -11 -22 -14 -8 -33 11 -25 25 10 16 36 13
36 -3z m105 -6 c0 -22 -29 -18 -33 3 -3 14 1 18 15 15 10 -2 18 -10 18 -18z
m-9278 -1625 c46 -19 73 -51 73 -85 0 -23 -5 -29 -30 -34 -18 -3 -39 0 -50 6
-10 7 -22 9 -26 5 -12 -12 66 -85 102 -97 36 -12 104 -81 104 -105 0 -12 -7
-14 -27 -9 -16 4 -34 11 -41 17 -21 17 -24 2 -8 -44 19 -54 20 -73 4 -66 -8 3
-14 -5 -14 -19 -1 -12 -15 -37 -31 -54 -26 -28 -31 -30 -61 -19 -26 9 -38 8
-69 -8 -23 -11 -39 -26 -41 -39 -4 -24 41 -72 81 -86 36 -13 57 -63 50 -117
-3 -23 -9 -44 -14 -46 -4 -3 -20 11 -35 30 -17 22 -31 32 -36 27 -9 -9 -28
-71 -30 -99 -1 -9 -8 -8 -27 2 -17 8 -32 10 -42 4 -23 -12 -44 14 -63 81 -24
79 -36 185 -29 257 5 53 9 62 28 67 19 5 23 15 29 66 6 49 12 63 32 76 19 13
24 25 24 59 0 23 5 80 11 126 15 116 47 141 136 104z m482 -5 c45 -22 101 -86
101 -114 0 -15 -2 -16 -15 -6 -9 7 -30 13 -48 14 -25 1 -33 6 -35 23 -2 14 -8
20 -17 17 -8 -3 -12 -15 -9 -27 2 -12 6 -41 8 -65 3 -28 16 -60 40 -95 20 -29
36 -57 36 -62 0 -6 -13 -19 -29 -28 -30 -17 -30 -17 -65 18 -40 39 -77 48 -69
15 3 -11 8 -20 12 -20 4 0 20 -25 35 -56 33 -65 29 -93 -16 -127 -25 -19 -28
-19 -68 -3 -24 9 -45 15 -47 12 -3 -2 16 -30 41 -61 28 -33 46 -66 46 -81 l0
-25 -29 20 c-15 11 -31 18 -35 14 -3 -3 -6 -26 -6 -51 0 -47 -23 -95 -68 -144
l-26 -28 30 0 c66 -2 144 -70 144 -126 0 -41 -17 -35 -30 11 -7 25 -17 45 -22
45 -5 0 -6 -4 -3 -10 3 -5 1 -10 -4 -10 -6 0 -11 5 -11 10 0 6 -9 10 -20 10
-23 0 -24 -5 -9 -48 8 -25 7 -35 -7 -57 -15 -22 -23 -26 -58 -23 -39 3 -42 1
-59 -35 -10 -20 -22 -37 -26 -37 -14 0 9 121 35 186 25 64 25 96 0 62 -12 -17
-14 -17 -32 3 -16 18 -19 37 -18 123 0 103 18 184 50 233 13 21 22 24 57 21
l42 -3 7 65 c7 65 30 196 49 279 16 71 79 181 104 181 3 0 23 -9 44 -20z m508
9 c37 -14 79 -54 93 -90 9 -22 23 -32 54 -40 68 -18 69 -19 89 -125 10 -54 22
-102 26 -106 4 -4 21 2 37 15 97 70 160 120 170 132 12 16 56 26 71 17 16 -11
33 -49 33 -76 0 -34 10 -56 25 -56 23 0 65 -41 65 -63 0 -31 -57 -127 -75
-127 -12 0 -14 8 -9 40 4 27 3 40 -5 40 -6 0 -11 12 -11 28 l-1 27 -24 -27
c-13 -16 -27 -28 -30 -28 -4 0 -5 21 -4 48 3 52 -8 95 -21 87 -5 -3 -12 0 -15
6 -5 7 -13 2 -24 -13 -9 -12 -23 -23 -31 -23 -11 0 -14 -9 -12 -35 9 -98 5
-176 -11 -207 -28 -52 -34 -46 -36 29 -2 95 -17 150 -39 146 -11 -2 -21 -20
-28 -53 -8 -39 -14 -49 -28 -47 -9 2 -34 -11 -55 -27 -40 -32 -57 -37 -79 -22
-13 8 6 47 61 124 17 24 17 26 -3 64 -20 40 -19 103 2 103 5 0 7 4 4 9 -3 5 1
25 9 44 8 20 11 38 6 42 -13 8 -62 -13 -89 -38 -18 -17 -22 -18 -16 -4 3 9 3
24 0 34 -11 27 -35 -15 -36 -60 0 -54 -26 -106 -49 -100 -16 4 -34 46 -67 153
-9 26 -24 -10 -24 -57 0 -30 -7 -50 -26 -73 l-27 -31 41 -34 c40 -34 72 -102
72 -150 0 -29 -6 -33 -35 -27 -18 3 -29 16 -41 48 -9 24 -23 49 -32 56 -16 14
-16 4 4 -134 l6 -47 -38 -6 c-22 -3 -47 -8 -57 -10 -27 -5 -82 13 -101 34 -17
19 -16 24 30 118 27 54 49 114 50 135 4 68 80 237 138 307 20 24 36 47 36 52
0 12 22 11 57 -2z m-1339 -304 c27 -11 44 -27 56 -51 16 -36 16 -36 -9 -60
-14 -13 -33 -24 -41 -24 -25 0 -27 -28 -5 -63 12 -19 21 -44 21 -56 0 -11 5
-21 10 -21 22 0 8 -16 -16 -18 -34 -3 -44 -10 -44 -31 0 -13 -10 -21 -34 -25
-38 -7 -46 -20 -39 -59 4 -20 1 -28 -13 -33 -11 -4 -27 -16 -36 -28 -15 -19
-15 -22 -1 -38 9 -10 23 -18 31 -18 7 0 27 -8 43 -17 23 -14 29 -25 29 -50 0
-30 -2 -32 -29 -27 -23 5 -35 0 -60 -25 -17 -17 -37 -31 -44 -31 -7 0 -18 -9
-25 -20 -12 -19 -14 -19 -37 -4 -14 9 -25 21 -25 27 0 5 -11 24 -24 41 -35 46
-52 84 -70 154 -9 35 -16 67 -16 71 0 15 85 41 133 41 33 0 49 5 53 15 4 8 -3
51 -15 94 -23 84 -21 107 10 116 18 6 25 32 21 75 -4 34 9 59 35 68 42 15 98
14 141 -3z m2230 -237 c15 -15 16 -107 2 -143 -13 -35 -30 -50 -63 -59 -26 -6
-27 -5 -21 21 4 16 10 33 14 38 4 6 10 28 13 50 3 22 9 50 13 63 11 39 -22 15
-52 -36 -34 -60 -30 -56 -65 -58 -22 -2 -29 2 -25 12 4 11 2 12 -15 1 -14 -8
-18 -18 -13 -32 21 -67 11 -136 -28 -202 -19 -33 -53 -44 -60 -21 -3 7 2 39 9
71 16 68 14 119 -5 125 -24 8 -77 -65 -102 -140 -13 -40 -25 -75 -27 -77 -1
-2 -9 4 -18 13 -13 12 -15 26 -10 61 8 51 6 61 -14 58 -8 -1 -25 3 -37 8 -21
7 -22 11 -13 33 12 25 122 96 149 96 9 0 25 6 36 14 10 8 28 13 39 10 12 -3
62 17 125 50 107 55 146 66 168 44z m-2666 -94 c58 -63 58 -83 0 -84 -22 0
-61 -34 -62 -53 0 -4 12 -12 26 -18 15 -5 24 -12 21 -16 -9 -8 17 -54 42 -77
31 -28 27 -53 -9 -61 -33 -7 -35 -13 -19 -49 10 -20 8 -29 -10 -54 -25 -36
-26 -51 -5 -59 10 -3 14 -13 11 -25 -4 -14 9 -33 46 -68 44 -42 49 -50 38 -64
-7 -9 -25 -16 -38 -16 -23 0 -25 -3 -19 -32 15 -71 17 -106 8 -112 -5 -3 -63
46 -128 109 -83 80 -121 111 -127 102 -7 -9 -10 -9 -14 0 -3 10 -10 9 -28 -3
-19 -12 -34 -13 -86 -4 -126 20 -118 9 33 -46 79 -29 108 -44 108 -56 0 -9 -5
-20 -10 -23 -7 -4 -3 -19 10 -41 l22 -34 -91 0 c-65 0 -92 4 -98 14 -4 7 -38
39 -74 69 -71 60 -139 144 -139 171 0 23 65 91 104 110 38 18 88 21 114 6 9
-5 36 -18 60 -29 l43 -20 -3 41 c-2 35 2 44 32 69 l35 28 -17 31 c-10 16 -26
43 -35 59 -17 29 -17 30 7 49 l25 20 -19 51 c-18 51 -18 52 0 72 34 38 126 75
191 78 14 1 35 -13 55 -35z m2914 15 c18 -20 18 -22 0 -72 -10 -29 -36 -83
-57 -120 -42 -74 -45 -87 -28 -116 16 -24 6 -59 -27 -96 -14 -16 -34 -46 -44
-65 -21 -39 -69 -94 -77 -86 -3 2 11 31 31 63 44 72 71 154 53 165 -22 14 -32
8 -70 -37 -39 -47 -61 -56 -71 -30 -3 8 -14 15 -25 15 -30 0 -37 21 -12 39 12
9 43 24 70 34 41 14 49 22 55 47 6 32 33 73 98 149 61 71 52 80 -50 49 -18 -5
-35 -8 -38 -5 -6 6 62 70 84 79 36 14 89 8 108 -13z m-999 -7 c33 -21 45 -145
19 -207 -8 -19 -18 -35 -21 -35 -3 0 -5 28 -3 63 1 46 -3 69 -17 90 -16 25
-20 27 -33 13 -12 -12 -15 -34 -14 -89 3 -70 1 -75 -23 -91 -38 -25 -51 -15
-62 51 -6 32 -13 65 -17 73 -10 24 30 78 81 110 48 31 69 36 90 22z m-444 -54
c38 -58 53 -110 39 -134 -11 -18 -11 -18 -12 -1 0 21 -26 75 -48 99 -11 14
-18 15 -29 7 -17 -15 -16 -52 2 -111 8 -27 13 -48 12 -49 -23 -9 -62 -6 -82 7
-16 11 -34 14 -51 10 -34 -9 -45 7 -33 47 19 68 113 167 158 167 9 0 29 -19
44 -42z m-3911 -235 c37 -33 10 -93 -43 -93 -34 0 -59 23 -59 55 0 49 63 73
102 38z m-2422 -238 l0 -225 -50 0 -50 0 0 225 0 225 50 0 50 0 0 -225z m2250
0 l0 -225 -50 0 c-38 0 -50 4 -50 15 0 14 -3 13 -25 -1 -34 -22 -126 -15 -162
12 -53 40 -68 71 -68 139 0 68 15 99 67 138 36 27 117 34 157 14 l31 -15 0 74
0 74 50 0 50 0 0 -225z m3269 196 c17 -16 31 -39 31 -51 0 -20 -4 -22 -34 -16
-30 6 -34 4 -29 -11 3 -10 27 -36 53 -58 27 -22 49 -47 49 -55 1 -8 -14 -36
-31 -62 -28 -40 -38 -48 -64 -48 -38 0 -46 9 -74 80 -15 37 -24 86 -28 147
l-5 92 39 4 c22 2 44 4 50 5 7 1 26 -11 43 -27z m-8320 -146 l44 -140 33 100
c66 197 59 185 113 185 l48 0 44 -140 c24 -77 47 -136 50 -132 4 4 26 67 49
140 l41 132 51 0 c36 0 49 -4 45 -12 -2 -7 -33 -102 -68 -210 l-63 -198 -56 0
-56 0 -44 135 -44 135 -47 -133 -46 -132 -55 -3 -56 -3 -66 204 c-36 113 -66
208 -66 211 0 4 23 6 52 4 l52 -3 45 -140z m2547 126 c58 -26 86 -70 86 -133
0 -93 -72 -148 -194 -148 l-68 0 0 -60 0 -60 -50 0 -49 0 -3 206 c-2 113 -1
208 1 210 2 2 56 4 120 4 91 0 125 -4 157 -19z m6797 7 c43 -22 65 -81 52
-139 -10 -46 -23 -34 -23 21 0 53 -22 100 -47 100 -18 0 -45 -51 -45 -85 0
-28 -18 -30 -31 -4 -25 46 -38 83 -33 90 6 10 59 27 87 28 10 1 28 -4 40 -11z
m1377 -21 c14 -25 13 -30 -14 -79 -33 -59 -114 -170 -173 -235 -24 -28 -43
-41 -54 -38 -11 4 -29 -10 -53 -40 -37 -45 -73 -71 -83 -61 -3 3 4 17 16 32
40 51 11 98 -30 49 -29 -32 -71 -30 -104 5 -37 39 -31 69 19 87 33 11 52 11
120 -1 45 -7 89 -17 99 -21 14 -6 20 -2 24 14 3 11 9 21 14 21 5 0 9 9 9 20 0
11 8 30 18 42 33 41 105 109 110 104 5 -6 31 24 32 35 0 4 -7 10 -16 13 -8 3
-12 2 -9 -4 8 -13 8 -13 -54 6 -31 9 -51 20 -48 27 5 18 48 37 82 37 17 0 37
5 45 10 21 13 32 8 50 -23z m-6950 -22 c0 -34 1 -35 40 -35 l40 0 0 -40 0 -40
-40 0 -40 0 0 -74 c0 -81 12 -103 53 -92 19 4 26 0 35 -20 19 -41 15 -53 -24
-60 -53 -10 -105 2 -133 31 -24 23 -26 34 -29 120 -4 93 -5 95 -28 95 -21 0
-24 4 -24 40 0 36 3 40 25 40 22 0 25 4 25 35 l0 35 50 0 50 0 0 -35z m5314
-16 c33 -26 34 -45 1 -23 -33 22 -41 12 -28 -31 13 -42 5 -49 -72 -59 -27 -4
-62 -9 -77 -12 -41 -8 -36 17 13 66 40 39 102 79 125 80 6 0 23 -9 38 -21z
m-8303 -42 c48 -32 79 -83 79 -128 l0 -39 -120 0 c-66 0 -120 -3 -120 -7 1
-44 101 -70 146 -38 19 13 23 12 48 -14 25 -26 26 -28 9 -44 -48 -43 -154 -50
-218 -14 -100 57 -117 186 -33 264 52 49 152 59 209 20z m529 5 c56 -27 70
-68 70 -199 l0 -113 -45 0 c-33 0 -45 4 -45 14 0 13 -4 13 -27 0 -58 -29 -158
-10 -183 35 -13 26 -13 77 1 103 16 29 70 48 139 48 63 0 71 7 43 35 -13 13
-29 16 -67 12 -28 -2 -59 -8 -68 -12 -22 -9 -54 48 -35 63 43 34 162 42 217
14z m240 3 c0 -18 1 -18 36 0 60 31 88 12 77 -49 -4 -19 -11 -26 -30 -26 -13
0 -35 -11 -48 -25 -23 -22 -25 -32 -25 -120 l0 -95 -50 0 -50 0 0 165 0 165
45 0 c33 0 45 -4 45 -15z m395 -5 c49 -24 85 -81 85 -134 l0 -36 -120 0 c-66
0 -120 -3 -120 -7 1 -44 87 -67 142 -39 24 13 28 12 53 -14 l26 -27 -26 -21
c-56 -44 -171 -43 -230 2 -46 35 -65 74 -65 131 0 129 132 204 255 145z m1155
2 c56 -30 70 -69 70 -199 l0 -113 -45 0 c-33 0 -45 4 -45 14 0 13 -4 13 -27 0
-58 -29 -158 -10 -183 35 -13 26 -13 77 1 103 16 29 70 48 139 48 63 0 71 7
43 35 -13 13 -29 16 -67 12 -28 -2 -59 -8 -68 -12 -22 -9 -54 48 -35 63 44 34
163 42 217 14z m242 6 c3 -9 12 -9 38 0 73 26 152 6 183 -47 13 -23 17 -54 17
-150 l0 -121 -45 0 -45 0 0 78 c-1 88 -13 151 -32 163 -23 15 -67 10 -88 -11
-17 -17 -20 -33 -20 -125 l0 -105 -50 0 -50 0 0 165 0 165 44 0 c25 0 46 -5
48 -12z m678 -3 c0 -14 3 -13 25 1 34 22 125 15 163 -12 15 -11 38 -41 51 -67
28 -56 24 -115 -12 -169 -41 -61 -136 -87 -199 -54 l-28 15 0 -75 0 -74 -50 0
-50 0 0 225 0 225 50 0 c38 0 50 -4 50 -15z m567 -11 c34 -24 73 -98 73 -136
l0 -27 -127 -3 -128 -3 27 -27 c31 -32 81 -37 127 -13 27 13 30 13 47 -11 26
-34 24 -44 -16 -65 -49 -27 -134 -25 -190 4 -50 25 -90 88 -90 142 0 50 40
117 85 143 51 29 149 27 192 -4z m643 -139 l0 -165 -50 0 -50 0 0 165 0 165
50 0 50 0 0 -165z m300 147 c56 -27 70 -68 70 -199 l0 -113 -45 0 c-34 0 -45
4 -45 15 0 14 -3 14 -30 0 -58 -30 -155 -12 -180 34 -13 26 -13 77 1 103 16
29 70 48 139 48 63 0 71 7 43 35 -13 13 -29 16 -67 12 -28 -2 -59 -8 -68 -12
-22 -9 -54 48 -35 63 43 34 162 42 217 14z m4227 -18 c24 -33 16 -96 -18 -137
-36 -44 -70 -53 -43 -12 16 25 16 25 -16 31 -33 7 -110 77 -110 101 0 7 1 13
3 13 1 0 20 7 42 15 51 19 124 13 142 -11z m397 -31 c-2 -61 -36 -128 -76
-149 -35 -18 -35 -14 -2 36 35 52 39 114 8 118 -22 3 -34 -19 -34 -61 0 -44
-61 -63 -68 -22 -5 32 -24 65 -34 59 -5 -4 -8 4 -6 17 2 20 14 27 63 41 33 9
80 16 105 15 l45 -2 -1 -52z m-2146 3 c36 -18 42 -36 13 -36 -10 0 -24 -7 -31
-15 -7 -8 -19 -15 -26 -15 -8 0 -14 -3 -14 -8 0 -8 6 -11 94 -54 31 -15 56
-29 56 -32 0 -23 -28 -55 -56 -65 -23 -8 -34 -18 -32 -29 4 -26 -11 -42 -38
-42 -13 0 -24 -4 -24 -10 0 -5 -6 -10 -14 -10 -42 0 -204 276 -177 303 38 39
185 47 249 13z m786 -106 c16 -16 -5 -30 -45 -30 -21 0 -39 -4 -39 -9 0 -4 18
-28 40 -53 l39 -45 -22 -21 c-13 -12 -38 -25 -57 -28 -19 -4 -44 -15 -56 -25
-25 -23 -34 -16 -34 26 0 17 -6 40 -14 50 -16 23 -12 38 26 87 42 54 128 79
162 48z m290 -58 c-4 -12 -12 -22 -19 -22 -7 0 -38 -11 -70 -25 -32 -14 -59
-24 -61 -22 -9 9 24 57 50 73 34 20 88 34 98 25 4 -4 5 -16 2 -29z m125 24 c9
-11 8 -17 -4 -29 -8 -9 -15 -27 -15 -41 0 -14 -4 -27 -9 -30 -16 -10 -42 43
-39 79 2 31 5 35 29 35 15 0 32 -6 38 -14z m211 -25 c0 -5 -7 -14 -15 -21 -12
-10 -15 -10 -15 2 0 8 3 18 7 21 9 10 23 9 23 -2z m1470 -11 c33 0 55 -6 71
-20 l24 -20 -30 -25 c-36 -30 -49 -32 -43 -7 4 15 1 18 -19 14 -13 -2 -26 -9
-29 -14 -8 -13 -34 11 -34 32 0 21 -27 29 -95 31 -39 0 -45 2 -30 10 11 5 47
7 79 4 32 -3 80 -5 106 -5z m-2445 -50 c36 -14 24 -27 -43 -46 -31 -9 -61 -20
-65 -24 -13 -11 52 -31 79 -24 22 6 24 4 18 -27 -11 -70 -14 -77 -34 -82 -12
-3 -20 -13 -20 -26 0 -29 -8 -26 -57 18 -41 37 -43 42 -43 94 0 64 19 94 71
113 43 16 61 16 94 4z m2288 -2 c15 -7 27 -19 27 -26 0 -18 -120 -153 -158
-177 -17 -11 -31 -29 -32 -39 0 -15 -3 -17 -11 -9 -18 18 -1 49 67 117 44 46
64 74 64 91 0 32 -34 34 -65 5 -23 -22 -80 -42 -89 -32 -3 3 -6 18 -6 33 0 25
4 28 43 33 23 3 53 7 67 10 49 7 66 6 93 -6z m-771 -25 c20 -18 25 -93 9 -136
-9 -22 -13 -24 -49 -17 -21 4 -56 19 -76 35 l-37 28 31 18 c24 15 30 25 30 54
0 34 1 35 37 35 20 0 45 -7 55 -17z m-309 -28 c29 -27 36 -65 13 -65 -8 0 -22
-3 -31 -7 -15 -5 -16 -3 -6 15 17 32 13 52 -9 52 -11 0 -20 7 -20 15 0 22 22
18 53 -10z m-324 -29 c8 -9 8 -21 0 -45 -13 -36 -29 -41 -29 -8 0 12 -3 32 -6
45 -7 25 16 31 35 8z m-234 -16 c45 -17 41 -36 -20 -92 -32 -29 -62 -55 -67
-57 -6 -2 -8 18 -4 53 13 104 28 120 91 96z m130 0 c3 -5 -1 -10 -9 -10 -8 0
-18 5 -21 10 -3 6 1 10 9 10 8 0 18 -4 21 -10z m-1872 -33 c23 -12 47 -28 55
-34 24 -23 75 -15 120 18 57 42 108 48 145 18 23 -18 28 -27 23 -50 -3 -16
-13 -37 -23 -48 -46 -50 -46 -49 -5 -60 20 -6 42 -11 48 -11 24 0 26 -30 9
-149 -4 -33 -12 -51 -20 -51 -26 0 -195 111 -195 128 0 4 -14 23 -30 42 -16
19 -30 44 -30 55 0 38 -16 50 -45 37 -14 -7 -45 -12 -68 -12 -23 0 -52 -3 -64
-6 -24 -7 -32 -24 -10 -24 20 0 122 -54 155 -82 27 -22 30 -31 25 -61 -6 -38
-1 -44 62 -82 49 -30 28 -32 -50 -4 -44 15 -71 19 -109 14 -152 -19 -205 -28
-200 -36 3 -5 16 -9 29 -9 20 0 200 -65 215 -78 10 -7 -42 -42 -64 -42 -57 0
-320 121 -355 164 -21 25 42 165 84 189 17 9 19 40 5 67 -18 34 59 102 150
131 36 12 96 2 143 -24z m1564 -9 c-5 -35 -48 -152 -60 -164 -3 -4 -13 -2 -20
4 -8 7 -17 9 -20 5 -4 -3 -7 -1 -7 5 0 7 -9 12 -20 12 -11 0 -20 7 -20 15 0
24 35 87 65 117 23 23 38 30 79 37 4 0 6 -14 3 -31z m1867 -13 c-4 -8 -8 -15
-10 -15 -2 0 -4 7 -4 15 0 8 4 15 10 15 5 0 7 -7 4 -15z m-19 -26 c4 -5 12 -8
18 -6 18 6 63 -29 87 -67 16 -28 31 -36 73 -46 58 -14 77 -25 77 -47 0 -22
-68 -83 -93 -83 -21 0 -21 1 6 25 32 30 33 33 10 31 -10 0 -17 5 -16 11 2 9
-7 11 -30 8 -22 -3 -18 -1 13 8 40 12 43 14 25 23 -11 6 -63 11 -115 12 -117
3 -160 8 -173 21 -16 16 -47 13 -47 -3 0 -17 22 -26 60 -26 34 0 86 -41 78
-61 -3 -8 -36 -36 -74 -61 -52 -36 -71 -44 -81 -36 -11 9 -7 14 17 26 16 8 30
19 30 24 0 6 9 23 20 38 12 17 16 31 11 35 -13 8 -57 -4 -103 -26 -44 -23 -49
-23 -73 -5 -18 13 -18 14 3 44 12 16 22 34 22 39 0 5 16 9 35 10 25 1 44 10
63 28 14 15 35 31 46 37 16 8 18 7 13 -6 -7 -18 24 -30 67 -24 38 4 33 22 -8
31 -43 11 -44 17 -8 39 33 20 39 21 47 7z m-1347 -12 c7 -8 7 -18 2 -27 -8
-13 -11 -13 -26 2 -9 9 -13 21 -10 27 9 15 21 14 34 -2z m805 -1 c9 -7 17 -21
17 -30 0 -20 -32 -83 -59 -114 -23 -26 -45 -21 -36 9 4 13 2 19 -9 19 -24 0
-19 10 21 45 33 28 36 34 24 49 -25 30 -71 13 -71 -26 0 -21 -25 -24 -33 -4
-6 14 12 34 48 54 27 15 76 14 98 -2z m-1042 -24 c-5 -10 -21 -27 -34 -39
l-26 -22 3 36 c1 26 8 38 21 43 29 11 46 1 36 -18z m-1001 -2 c0 -6 -29 -40
-65 -77 -36 -36 -64 -71 -62 -77 7 -18 117 -10 167 13 32 14 48 17 57 9 19
-15 16 -26 -9 -34 -47 -15 -66 -37 -61 -71 4 -21 0 -42 -10 -57 -15 -22 -15
-25 3 -41 11 -10 20 -27 20 -37 0 -15 -5 -18 -22 -12 -74 22 -178 116 -222
199 -19 35 -19 37 -1 68 28 50 87 107 120 116 42 13 85 13 85 1z m1416 -17
c14 -18 19 -53 8 -53 -3 0 -16 8 -28 18 -18 14 -21 21 -12 35 14 21 16 21 32
0z m188 -47 c13 -28 14 -39 4 -61 -15 -33 -27 -28 -43 18 -10 29 -10 43 -2 61
14 29 20 27 41 -18z m-359 -16 c3 -5 2 -10 -4 -10 -5 0 -13 5 -16 10 -3 6 -2
10 4 10 5 0 13 -4 16 -10z m-693 -49 c20 -5 47 -20 60 -33 13 -14 36 -32 53
-40 l29 -16 -34 -21 c-19 -11 -42 -21 -51 -21 -8 0 -25 -11 -37 -25 -25 -29
-60 -39 -105 -31 -48 9 -56 29 -41 104 7 35 18 70 25 78 13 16 47 18 101 5z
m518 -11 c0 -11 -21 -26 -48 -35 -22 -6 -23 -5 -13 14 10 17 9 20 -4 15 -8 -4
-15 -1 -15 4 0 6 12 12 28 14 31 4 52 -1 52 -12z m240 -42 c0 -7 -11 -21 -25
-31 -23 -17 -24 -16 -20 3 2 11 7 25 10 30 9 14 35 12 35 -2z m-328 -4 c5 -4
-46 -121 -59 -134 -2 -2 -7 0 -11 6 -4 6 -20 10 -36 10 -43 -1 -53 23 -30 70
15 31 26 40 54 45 49 9 76 10 82 3z m483 -54 c0 -43 -18 -46 -45 -5 -21 32
-12 47 25 43 16 -2 20 -11 20 -38z m345 25 c17 -20 4 -97 -21 -129 -26 -33
-59 -35 -59 -3 0 13 -14 34 -32 51 l-32 28 39 34 c43 36 84 44 105 19z m-620
-16 c0 -18 -3 -19 -15 -9 -8 6 -20 9 -27 5 -7 -4 -4 1 6 9 27 22 36 20 36 -5z
m1086 0 c14 -14 12 -20 -18 -59 -35 -46 -71 -75 -103 -84 -16 -5 -24 2 -36 31
-20 46 -15 62 20 61 30 -1 71 18 71 33 0 17 -43 27 -68 16 -24 -11 -38 -5 -27
13 11 18 141 8 161 -11z m6111 -3 c27 -24 28 -28 34 -153 4 -88 11 -137 22
-158 11 -20 15 -42 10 -67 -3 -21 -2 -38 1 -38 9 0 72 50 130 103 22 20 35 37
28 37 -9 0 -11 7 -7 19 3 10 -1 25 -8 33 -8 7 -16 19 -18 27 -3 8 -10 3 -19
-14 -22 -42 -87 -107 -95 -95 -3 5 -2 10 3 10 5 0 21 17 35 38 14 20 39 52 56
70 17 18 31 35 31 38 0 3 11 17 25 32 23 25 26 26 42 9 21 -21 22 -140 1 -153
-5 -3 2 -17 16 -31 34 -34 50 -86 43 -144 -4 -29 -2 -49 3 -49 6 0 10 15 10
33 0 22 9 43 30 65 20 22 30 44 30 65 0 22 3 28 11 20 8 -8 8 -22 0 -49 -24
-85 -7 -93 89 -43 36 18 67 28 78 25 41 -13 65 -132 38 -184 -39 -76 0 -89
130 -44 101 36 134 40 134 17 0 -20 48 -97 72 -113 23 -17 23 -35 -1 -125 -28
-101 -43 -141 -85 -223 -20 -39 -36 -80 -36 -90 0 -31 -59 -146 -71 -139 -6 4
-8 13 -5 20 2 7 -4 21 -13 32 -38 40 -42 60 -18 76 l22 16 -23 0 c-28 1 -74
-22 -124 -61 -21 -16 -38 -25 -38 -20 0 25 51 79 103 109 37 22 57 40 57 53 0
10 4 21 9 24 5 3 12 18 15 33 4 16 20 47 36 70 29 40 29 42 14 78 -15 36 -17
37 -55 32 -52 -7 -51 11 1 56 42 36 57 83 23 74 -10 -3 -31 -8 -48 -12 -45
-10 -63 -31 -76 -91 -8 -38 -24 -66 -54 -100 -49 -56 -66 -53 -54 8 4 24 8 46
9 49 0 3 14 23 30 44 68 86 5 115 -73 34 -23 -25 -37 -24 -37 1 0 11 -5 20
-10 20 -16 0 -30 -47 -24 -80 4 -16 3 -45 0 -64 l-7 -35 -32 14 c-25 11 -32
19 -32 42 0 49 -26 46 -78 -9 -34 -36 -39 -39 -32 -18 4 14 9 39 12 56 5 30
10 34 89 60 74 25 84 32 90 57 4 22 16 33 50 47 30 13 44 26 46 40 0 11 1 26
2 33 1 6 -4 11 -11 10 -6 -2 -31 6 -54 16 -38 17 -46 18 -82 5 -21 -8 -43 -11
-48 -8 -5 3 -11 -1 -13 -8 -2 -7 -12 -35 -21 -61 l-17 -48 -15 28 c-8 15 -21
32 -29 36 -18 10 -18 31 0 46 19 16 29 64 21 100 -5 23 -10 27 -30 23 -14 -2
-25 -9 -25 -14 0 -5 -8 -7 -18 -4 -25 8 -62 -74 -62 -137 0 -25 -4 -48 -9 -52
-5 -3 -12 -18 -16 -33 -7 -32 -42 -78 -52 -68 -4 4 1 20 10 35 29 49 20 110
-19 136 -23 15 -24 14 -39 -22 -9 -21 -19 -66 -22 -100 -3 -35 -9 -63 -12 -63
-3 0 -17 18 -31 40 -14 22 -28 40 -32 40 -4 0 -18 12 -32 27 -18 19 -22 31
-16 42 12 22 79 91 117 121 17 14 35 38 39 54 l7 29 -46 -7 -46 -7 -11 43 c-6
24 -13 50 -15 58 -7 22 38 108 53 103 21 -8 13 31 -11 48 -21 16 -24 15 -44
-1 -14 -11 -24 -33 -28 -66 -6 -43 -16 -102 -31 -181 -2 -13 -11 -23 -20 -23
-12 0 -13 4 -4 21 9 16 8 38 -5 93 -14 66 -44 131 -45 99 0 -7 -7 -13 -15 -13
-12 0 -15 -13 -15 -57 0 -38 -5 -62 -16 -74 -9 -10 -21 -52 -26 -94 -7 -46
-15 -74 -22 -72 -17 6 -36 49 -36 83 0 19 -10 41 -25 58 l-25 27 0 -50 c0 -56
19 -141 32 -141 12 0 9 -28 -4 -36 -7 -4 -8 -3 -4 4 5 8 -5 12 -33 12 -23 0
-41 4 -41 9 0 12 -51 32 -75 30 -38 -4 -55 1 -55 16 0 30 49 111 117 195 38
47 95 125 127 173 32 49 64 91 71 93 7 3 28 -4 46 -15 19 -12 40 -21 47 -21 7
0 23 24 36 54 13 30 32 59 42 65 31 17 71 12 101 -13z m-759 -22 c53 -26 105
-79 109 -111 9 -66 15 -193 10 -193 -4 0 -18 18 -33 39 -30 46 -81 73 -95 50
-10 -16 -2 -69 18 -118 17 -40 11 -61 -17 -61 -11 0 -20 -5 -20 -10 0 -6 -11
-15 -25 -20 -14 -5 -25 -16 -25 -25 0 -8 -4 -15 -10 -15 -5 0 -10 -7 -10 -15
0 -8 4 -15 9 -15 9 0 19 -37 28 -109 l5 -43 -43 41 c-42 39 -119 86 -119 72 0
-3 11 -37 24 -75 13 -38 22 -74 20 -80 -3 -7 -17 -19 -32 -28 -15 -9 -34 -28
-41 -42 -8 -14 -18 -23 -23 -20 -4 3 -21 -4 -37 -16 -21 -14 -32 -17 -37 -9
-3 6 -9 59 -11 118 -4 92 -1 119 21 200 14 52 30 98 36 101 6 4 22 5 34 3 13
-3 27 1 31 7 4 7 12 69 16 139 5 69 13 140 19 156 5 17 14 50 20 74 l11 44 57
-7 c31 -4 81 -18 110 -32z m-4781 -15 c17 -15 27 -69 15 -81 -6 -6 -62 -13
-124 -15 -141 -5 -146 -7 -122 -35 19 -21 19 -21 -6 -14 -14 4 -46 13 -72 19
-25 7 -48 15 -50 18 -5 10 54 54 102 76 41 19 67 26 155 40 17 3 32 7 35 9 6
7 52 -6 67 -17z m-1503 -11 c18 -28 24 -72 11 -76 -5 -2 -18 -10 -27 -19 -13
-12 -21 -12 -40 -2 -13 6 -24 13 -26 14 -1 1 4 17 11 36 8 19 17 42 20 52 9
24 34 21 51 -5z m-198 -13 c3 -8 -4 -29 -17 -46 -13 -18 -25 -27 -27 -21 -2 7
-12 12 -22 12 -41 0 -34 43 8 59 39 14 52 13 58 -4z m382 -50 c31 -40 17 -76
-31 -81 -41 -3 -42 -2 -51 64 l-6 42 34 0 c25 0 40 -7 54 -25z m-1142 -19
c-64 -38 -101 -86 -77 -100 12 -8 112 13 128 26 9 7 11 0 9 -29 -5 -56 -25
-146 -35 -156 -15 -15 -65 2 -98 33 -30 29 -34 39 -48 130 -2 19 6 33 37 60
42 36 89 62 98 53 3 -3 -4 -10 -14 -17z m352 -35 c19 -17 22 -29 22 -90 0 -82
-9 -89 -57 -38 -37 39 -52 121 -24 137 23 13 33 12 59 -9z m314 -21 c8 -38 0
-119 -11 -102 -3 6 -20 12 -36 14 -28 3 -30 6 -33 54 -3 44 0 52 20 62 36 17
52 10 60 -28z m1701 -32 c17 -41 12 -55 -24 -73 -38 -20 -38 -20 -32 25 5 33
2 43 -18 60 l-24 19 42 1 c39 0 44 -3 56 -32z m-2953 13 c0 -5 -7 -14 -15 -21
-39 -32 -58 -113 -29 -124 23 -9 78 20 105 55 26 34 25 34 72 14 43 -18 41
-35 -8 -58 -19 -9 -38 -24 -44 -35 -8 -15 -2 -24 37 -53 26 -19 46 -39 44 -44
-1 -6 -26 -9 -55 -8 -104 4 -259 84 -265 136 -6 48 90 145 146 147 6 0 12 -4
12 -9z m1456 -96 c-3 -8 -13 -11 -27 -8 -14 4 -25 0 -31 -11 -11 -20 -28 -21
-28 -2 0 7 -9 16 -20 19 -11 3 -20 10 -20 16 0 17 63 59 95 63 28 3 30 0 33
-31 2 -18 1 -39 -2 -46z m668 69 c19 -19 19 -18 2 -52 -19 -36 -45 -59 -78
-67 l-28 -7 4 58 c4 48 8 59 23 60 43 2 48 5 28 14 -18 8 -17 9 7 9 15 1 34
-6 42 -15z m-2664 -29 c7 -8 20 -15 29 -15 22 0 43 -52 45 -108 1 -45 2 -46
40 -56 43 -10 80 -40 91 -75 7 -24 58 -50 97 -52 20 -1 19 -2 -7 -10 -32 -11
-178 -4 -235 11 -60 15 -119 39 -160 65 -37 23 -40 29 -40 70 0 52 -12 63 -40
35 -11 -11 -23 -20 -27 -20 -11 1 -102 -90 -115 -114 -9 -17 -7 -17 34 -10 69
14 108 8 198 -28 137 -56 122 -73 -79 -88 -62 -5 -116 -11 -119 -14 -3 -3 -10
1 -16 10 -6 8 -46 23 -89 34 -43 11 -83 22 -88 25 -29 19 25 163 77 204 24 19
39 22 104 20 108 -3 144 10 209 75 59 59 71 65 91 41z m2272 1 c19 -8 40 -21
46 -29 12 -14 21 -77 11 -74 -3 1 -14 -4 -23 -12 -14 -12 -23 -12 -59 -1 -58
18 -61 23 -47 67 7 21 14 44 16 51 4 16 14 15 56 -2z m687 -91 c30 -15 55 -62
49 -92 -4 -21 -81 -63 -116 -63 -19 0 -23 4 -18 17 5 11 -2 24 -21 39 -36 29
-26 38 20 19 61 -25 118 -15 82 15 -8 7 -15 18 -15 26 0 7 -9 19 -21 27 -19
14 -17 19 9 26 2 1 16 -6 31 -14z m200 9 c17 -4 31 -11 31 -16 0 -14 -83 -5
-88 10 -4 13 10 15 57 6z m120 -51 c17 -21 27 -40 23 -44 -4 -3 -29 -15 -56
-24 -45 -17 -49 -17 -58 -2 -5 9 -17 17 -26 18 -9 1 3 6 26 11 45 10 47 13 27
61 -14 33 32 19 64 -20z m-1179 -4 c0 -13 8 -23 20 -26 18 -5 21 -12 18 -52
l-3 -46 -49 -12 c-41 -10 -53 -10 -77 3 -43 22 -37 50 24 105 59 54 67 58 67
28z m5625 -3 c28 -8 75 -30 105 -48 63 -38 71 -64 34 -99 -21 -19 -22 -25 -11
-38 8 -9 17 -24 20 -34 6 -15 3 -17 -15 -11 -12 4 -31 17 -41 30 -10 13 -29
24 -42 24 -22 0 -24 -3 -19 -32 4 -18 13 -38 21 -45 11 -8 14 -27 11 -64 l-3
-52 38 -11 c42 -12 90 -52 84 -70 -2 -6 -16 -13 -32 -14 -16 -2 -40 -16 -54
-31 -14 -15 -32 -30 -40 -32 -23 -8 6 -42 64 -77 76 -46 79 -52 40 -82 -19
-14 -36 -33 -39 -44 -2 -10 -9 -15 -15 -12 -5 3 -18 -5 -29 -19 -11 -14 -25
-25 -31 -25 -14 0 -25 -44 -18 -73 5 -19 3 -18 -18 8 -14 17 -25 34 -25 39 0
5 -6 17 -14 25 -26 30 -76 136 -111 236 l-35 99 27 22 27 21 -42 126 c-48 141
-67 281 -41 299 19 12 142 3 204 -16z m-5815 -46 c0 -11 -6 -34 -14 -52 -8
-18 -24 -58 -36 -89 -21 -53 -23 -55 -53 -51 -37 6 -79 33 -124 82 -26 27 -30
37 -20 46 12 12 133 64 149 64 16 0 7 -18 -12 -23 -26 -7 -29 -67 -4 -67 48 0
102 66 76 92 -6 6 -8 17 -5 24 7 20 43 -2 43 -26z m-8680 -95 c0 -63 -4 -105
-10 -105 -6 0 -10 42 -10 105 0 63 4 105 10 105 6 0 10 -42 10 -105z m73 -3
c2 -76 -1 -102 -10 -102 -10 0 -13 28 -13 106 0 71 4 104 11 102 6 -2 11 -43
12 -106z m187 93 c0 -8 -7 -15 -15 -15 -8 0 -15 7 -15 15 0 8 7 15 15 15 8 0
15 -7 15 -15z m1260 -90 c0 -63 -4 -105 -10 -105 -6 0 -10 42 -10 105 0 63 4
105 10 105 6 0 10 -42 10 -105z m370 90 c0 -8 -7 -15 -15 -15 -8 0 -15 7 -15
15 0 8 7 15 15 15 8 0 15 -7 15 -15z m555 5 c4 -6 -5 -10 -19 -10 -19 0 -26
-5 -26 -20 0 -13 7 -20 20 -20 11 0 20 -4 20 -10 0 -5 -9 -10 -20 -10 -18 0
-20 -7 -20 -65 0 -51 -3 -65 -15 -65 -12 0 -15 14 -15 64 0 42 -4 66 -12 70
-10 5 -10 7 0 12 6 3 12 13 12 23 0 9 5 22 12 29 15 15 54 16 63 2z m555 -95
c0 -87 -3 -105 -15 -105 -12 0 -15 18 -15 105 0 87 3 105 15 105 12 0 15 -18
15 -105z m70 0 c0 -63 -4 -105 -10 -105 -6 0 -10 42 -10 105 0 63 4 105 10
105 6 0 10 -42 10 -105z m150 0 c0 -87 -3 -105 -15 -105 -12 0 -15 18 -15 105
0 87 3 105 15 105 12 0 15 -18 15 -105z m544 20 c2 -89 -2 -125 -15 -125 -5 0
-9 48 -9 106 0 73 3 105 11 102 7 -2 12 -35 13 -83z m506 75 c0 -5 -11 -10
-25 -10 -18 0 -25 -5 -25 -20 0 -13 7 -20 20 -20 11 0 20 -4 20 -10 0 -5 -9
-10 -20 -10 -18 0 -20 -7 -20 -65 0 -51 -3 -65 -15 -65 -12 0 -15 14 -15 64 0
42 -4 66 -12 69 -9 4 -10 8 -3 14 6 4 16 20 22 36 10 21 19 27 43 27 16 0 30
-4 30 -10z m294 -95 c0 -69 -3 -100 -12 -103 -9 -3 -12 23 -12 103 0 79 3 106
12 103 8 -3 12 -35 12 -103z m5823 99 c-3 -3 -12 -4 -19 -1 -8 3 -5 6 6 6 11
1 17 -2 13 -5z m-10896 -98 c22 -49 39 -93 39 -98 0 -18 -21 -7 -32 17 -10 22
-17 25 -63 25 -46 0 -53 -3 -63 -25 -12 -27 -38 -36 -28 -10 42 109 81 186 94
183 8 -2 32 -43 53 -92z m10945 69 c23 -35 14 -57 -28 -73 -33 -13 -38 -12
-57 7 -28 28 -26 34 8 26 24 -5 32 -2 41 15 6 12 9 28 6 36 -9 23 12 16 30
-11z m-8656 -5 c0 -15 7 -20 25 -20 14 0 25 -4 25 -10 0 -5 -11 -10 -26 -10
-24 0 -25 -2 -22 -52 3 -46 6 -53 26 -56 29 -4 29 -22 -1 -22 -35 0 -47 19
-47 77 0 40 -4 53 -15 53 -8 0 -15 5 -15 10 0 6 7 10 15 10 8 0 15 9 15 20 0
11 5 20 10 20 6 0 10 -9 10 -20z m3210 0 c0 -13 7 -20 20 -20 11 0 20 -4 20
-10 0 -5 -9 -10 -20 -10 -18 0 -20 -7 -20 -55 0 -52 1 -55 26 -55 14 0 23 -4
19 -10 -9 -14 -48 -13 -63 2 -7 7 -12 35 -12 64 0 32 -5 55 -12 58 -10 5 -10
7 0 12 6 3 12 14 12 25 0 10 7 19 15 19 8 0 15 -9 15 -20z m3241 -65 c-21 -56
-27 -95 -14 -95 24 0 73 27 84 47 21 40 21 17 0 -30 -12 -25 -21 -51 -21 -56
0 -32 -107 24 -155 81 -36 42 -30 68 20 84 82 26 100 30 103 28 2 -1 -5 -28
-17 -59z m787 47 c2 -7 -2 -10 -12 -6 -9 3 -16 11 -16 16 0 13 23 5 28 -10z
m202 -2 c0 -15 72 -60 97 -60 26 0 63 -44 63 -76 0 -15 -13 -33 -35 -50 -33
-25 -37 -26 -86 -14 -63 15 -90 52 -87 118 1 24 5 45 10 48 4 3 8 14 8 25 0
10 7 19 15 19 8 0 15 -4 15 -10z m-9640 -12 c0 -9 3 -9 12 0 16 16 60 15 83
-2 26 -19 36 -136 11 -136 -13 0 -16 11 -16 53 0 55 -12 77 -41 77 -32 0 -49
-29 -49 -81 0 -27 -4 -49 -10 -49 -6 0 -10 32 -10 75 0 43 4 75 10 75 6 0 10
-5 10 -12z m332 -5 c13 -12 18 -31 18 -72 l0 -57 -49 -2 c-51 -2 -81 14 -81
43 0 24 31 45 66 45 29 0 35 3 32 18 -3 13 -13 17 -46 15 -23 -1 -42 2 -42 7
0 23 77 26 102 3z m343 -58 c0 -53 -4 -75 -12 -75 -9 0 -13 22 -13 75 0 53 4
75 13 75 8 0 12 -22 12 -75z m167 58 c13 -12 18 -31 18 -75 0 -32 -4 -58 -10
-58 -5 0 -11 8 -11 18 -1 9 -3 32 -5 50 -4 50 -11 62 -37 62 -35 0 -47 -19
-47 -77 0 -40 -4 -53 -15 -53 -12 0 -15 15 -15 73 l0 74 52 1 c36 1 58 -4 70
-15z m286 -3 c49 -46 14 -130 -54 -130 -38 0 -74 38 -74 78 0 62 82 94 128 52z
m82 8 c0 -9 3 -9 12 0 16 16 60 15 83 -2 26 -19 36 -136 11 -136 -13 0 -16 11
-16 53 0 55 -12 77 -41 77 -32 0 -49 -29 -49 -81 0 -27 -4 -49 -10 -49 -6 0
-10 32 -10 75 0 43 4 75 10 75 6 0 10 -5 10 -12z m260 2 c10 -5 23 -23 28 -40
l11 -30 -65 0 c-62 0 -64 -1 -54 -21 15 -28 37 -34 71 -22 23 9 29 8 29 -2 0
-30 -81 -34 -110 -5 -12 12 -20 33 -20 55 0 60 57 94 110 65z m230 0 c16 -11
12 -12 -40 -14 -46 -1 -47 -27 0 -42 89 -29 47 -103 -46 -80 -41 11 -26 24 24
23 58 -2 66 22 12 35 -54 14 -72 55 -36 80 16 11 68 9 86 -2z m160 -10 c12
-12 20 -33 20 -55 0 -46 -29 -75 -74 -75 -65 0 -99 79 -54 127 27 29 80 31
108 3z m150 -26 c0 -58 14 -84 45 -84 31 0 45 26 45 85 0 32 4 45 12 43 8 -3
12 -28 12 -73 l-1 -69 -48 -3 c-68 -5 -85 13 -85 89 0 32 4 58 10 58 6 0 10
-21 10 -46z m300 -29 c0 -60 -3 -75 -15 -75 -12 0 -15 15 -15 75 0 60 3 75 15
75 12 0 15 -15 15 -75z m159 58 c11 -10 24 -32 27 -50 11 -58 -60 -103 -116
-73 -25 13 -41 65 -30 95 17 45 80 60 119 28z m185 -5 c22 -30 22 -128 1 -128
-12 0 -15 13 -15 60 0 56 -2 60 -26 66 -37 10 -57 -15 -59 -72 0 -28 -6 -49
-13 -52 -9 -3 -12 16 -12 70 l0 74 54 2 c47 2 57 -1 70 -20z m336 4 c16 -13
22 -29 22 -57 0 -95 -130 -102 -148 -8 -12 64 73 108 126 65z m80 6 c0 -9 3
-9 12 0 14 14 48 16 48 3 0 -5 -9 -11 -20 -14 -23 -6 -40 -45 -40 -93 0 -19
-4 -34 -10 -34 -6 0 -10 32 -10 75 0 43 4 75 10 75 6 0 10 -5 10 -12z m264
-10 c10 -13 16 -44 16 -74 l0 -51 -52 -2 c-58 -1 -78 11 -78 45 0 27 26 44 70
44 25 0 31 4 28 18 -3 13 -13 17 -46 16 -41 -1 -55 9 -29 19 32 14 76 6 91
-15z m465 -4 c35 -45 28 -54 -39 -54 -33 0 -60 -4 -60 -9 0 -31 70 -56 85 -31
4 6 11 7 17 4 16 -10 -21 -34 -53 -34 -42 0 -73 31 -73 73 0 73 80 106 123 51z
m74 -31 c11 -29 22 -53 26 -53 3 0 16 24 27 53 12 28 29 53 38 55 12 3 8 -13
-18 -70 -18 -40 -39 -74 -47 -76 -9 -1 -26 25 -46 74 -25 60 -29 75 -16 72 9
-2 25 -27 36 -55z m227 37 c11 -11 20 -29 20 -40 0 -18 -7 -20 -60 -20 -58 0
-60 -1 -50 -21 15 -28 37 -34 71 -22 23 9 29 8 29 -2 0 -31 -74 -34 -107 -3
-48 45 -18 128 47 128 17 0 39 -9 50 -20z m227 4 c2 -7 -12 -10 -39 -10 -57 1
-58 -22 -1 -41 84 -28 58 -92 -33 -81 -47 5 -41 27 8 25 58 -3 58 21 1 41 -33
10 -43 19 -43 36 0 12 6 28 12 34 15 15 90 12 95 -4z m221 0 c17 -12 22 -25
22 -59 0 -34 -5 -47 -22 -59 -34 -24 -75 -20 -105 10 -64 64 29 161 105 108z
m252 4 c0 -9 3 -9 12 0 18 18 63 15 89 -7 51 -41 17 -131 -50 -131 -15 0 -32
5 -39 12 -9 9 -12 4 -12 -25 0 -26 -4 -37 -15 -37 -12 0 -15 18 -15 100 0 82
3 100 15 100 8 0 15 -5 15 -12z m332 -5 c13 -12 18 -31 18 -72 l0 -57 -49 -2
c-51 -2 -81 14 -81 43 0 24 31 45 66 45 29 0 35 3 32 18 -3 13 -13 17 -46 15
-23 -1 -42 2 -42 7 0 23 77 26 102 3z m183 1 c17 -18 22 -134 5 -134 -5 0 -10
21 -10 46 0 57 -14 84 -43 84 -35 0 -47 -19 -47 -77 0 -40 -4 -53 -15 -53 -12
0 -15 15 -15 73 l0 73 55 2 c37 1 59 -4 70 -14z m-4705 -54 c0 -5 -18 -10 -40
-10 -22 0 -40 5 -40 10 0 6 18 10 40 10 22 0 40 -4 40 -10z m365 0 c4 -6 -10
-10 -34 -10 -23 0 -41 5 -41 10 0 6 15 10 34 10 19 0 38 -4 41 -10z m9825 -54
c0 -56 -19 -71 -93 -69 -74 1 -180 29 -175 45 2 6 31 17 64 24 32 7 86 19 119
26 74 18 85 14 85 -26z m-2655 -22 c-37 -48 -44 -81 -21 -90 19 -7 70 20 94
51 23 29 28 30 36 10 3 -9 -6 -39 -19 -67 -28 -58 -31 -78 -12 -79 6 0 1 -5
-12 -10 -40 -16 -156 20 -166 51 -8 24 10 117 28 144 11 16 28 26 49 29 18 2
39 5 45 5 7 1 -3 -19 -22 -44z m7708 37 c33 -13 61 -90 61 -164 -1 -80 -18
-92 -33 -23 -14 65 -45 111 -56 85 -8 -20 10 -89 36 -143 10 -22 18 -40 16
-41 -1 -1 -33 2 -72 7 -105 13 -108 13 -137 5 -25 -7 -28 -5 -28 18 0 13 8 39
18 57 11 18 38 69 62 113 24 44 49 83 54 87 15 10 50 10 79 -1z m-8148 -28
c-11 -44 -8 -89 9 -115 20 -31 64 -27 97 8 42 45 53 20 20 -45 -15 -28 -17
-41 -9 -49 38 -38 -95 -37 -174 1 -54 26 -58 30 -58 63 0 45 30 104 70 138 41
34 54 33 45 -1z m-524 -67 c-7 -8 -25 -18 -41 -21 -35 -8 -59 -32 -39 -39 8
-3 30 -7 49 -8 25 -2 36 -9 40 -24 7 -29 56 -84 74 -84 22 0 46 -11 46 -21 0
-5 -25 -21 -55 -35 -60 -30 -58 -44 7 -44 54 0 55 -16 1 -24 -83 -11 -188 -6
-284 13 -52 11 -132 23 -179 27 -47 3 -91 11 -97 16 -17 14 -16 100 1 141 7
18 22 40 33 49 24 22 131 60 138 49 6 -10 252 -1 280 10 31 12 39 10 26 -5z
m2288 -81 c0 -60 -15 -126 -30 -137 -22 -14 -133 -4 -162 15 -27 17 -27 17 -7
37 11 11 31 37 44 59 42 65 47 63 61 -24 10 -63 15 -75 34 -75 20 0 31 50 31
135 0 23 3 45 7 48 12 12 23 -16 22 -58z m681 13 c24 -26 27 -90 5 -108 -9 -7
-49 -15 -90 -18 -65 -4 -75 -2 -75 12 0 9 4 16 10 16 6 0 6 9 0 26 -15 38 -14
38 34 10 76 -45 104 -31 71 34 -10 19 -11 30 -5 30 6 0 8 5 5 10 -12 19 25 10
45 -12z m520 -20 c0 -36 -4 -35 -14 5 -4 16 -2 27 4 27 5 0 10 -14 10 -32z
m-9440 -22 c0 -34 1 -35 35 -29 54 9 75 -16 75 -89 0 -46 -3 -58 -15 -58 -12
0 -15 7 -10 33 8 48 -7 91 -34 95 -37 6 -51 -15 -51 -74 0 -41 -4 -54 -15 -54
-12 0 -15 18 -15 105 0 87 3 105 15 105 10 0 15 -10 15 -34z m692 -33 l3 -68
41 38 c51 46 80 49 37 5 l-32 -33 29 -35 c32 -39 36 -50 18 -50 -7 0 -24 16
-37 35 -23 34 -25 35 -42 19 -11 -10 -19 -25 -19 -36 0 -10 -4 -18 -10 -18 -6
0 -10 42 -10 105 0 116 17 146 22 38z m758 -38 c0 -87 -3 -105 -15 -105 -12 0
-15 18 -15 105 0 87 3 105 15 105 12 0 15 -18 15 -105z m350 3 l0 -103 -55 -2
c-67 -3 -95 18 -95 72 0 53 31 79 84 72 l42 -6 -1 34 c-2 24 2 35 11 35 11 0
14 -23 14 -102z m1070 60 c0 -33 3 -39 12 -30 18 18 63 15 89 -7 51 -41 17
-131 -50 -131 -15 0 -32 5 -39 12 -9 9 -12 9 -12 0 0 -7 -7 -12 -15 -12 -12 0
-15 18 -15 105 0 87 3 105 15 105 11 0 15 -11 15 -42z m480 32 c0 -5 -11 -10
-25 -10 -18 0 -25 -5 -25 -20 0 -13 7 -20 20 -20 11 0 20 -4 20 -10 0 -5 -9
-10 -20 -10 -18 0 -20 -7 -20 -65 0 -51 -3 -65 -15 -65 -12 0 -15 14 -15 64 0
42 -4 66 -12 70 -10 5 -10 7 0 12 6 3 12 13 12 23 0 9 5 22 12 29 14 14 68 16
68 2z m690 -92 l0 -103 -55 -2 c-45 -2 -58 1 -75 19 -26 29 -26 78 1 107 18
20 29 22 64 18 l41 -6 -1 34 c-2 24 2 35 11 35 11 0 14 -23 14 -102z m600 28
c0 -40 3 -88 6 -105 5 -24 3 -31 -10 -31 -9 0 -16 5 -16 12 0 9 -3 9 -12 0
-18 -18 -63 -15 -87 6 -11 9 -24 31 -27 49 -5 26 -1 37 19 57 28 28 74 35 95
14 9 -9 12 -3 12 30 0 23 5 42 10 42 6 0 10 -31 10 -74z m3220 -54 c-15 -105
-27 -122 -89 -122 -36 0 -56 8 -92 34 -45 33 -74 81 -42 69 8 -3 24 -1 36 4
25 11 90 33 99 33 4 0 -1 -25 -9 -55 -13 -44 -13 -59 -4 -68 30 -29 91 96 91
187 1 34 2 38 11 23 8 -13 7 -44 -1 -105z m-8480 88 c0 -15 7 -20 25 -20 14 0
25 -4 25 -10 0 -5 -11 -10 -26 -10 -24 0 -25 -2 -22 -52 3 -46 6 -53 26 -56
29 -4 29 -22 -1 -22 -35 0 -47 19 -47 77 0 40 -4 53 -15 53 -8 0 -15 5 -15 10
0 6 7 10 15 10 8 0 15 9 15 20 0 11 5 20 10 20 6 0 10 -9 10 -20z m7951 -71
c-12 -34 -21 -75 -21 -91 0 -25 3 -28 35 -28 28 0 45 9 80 41 39 36 45 39 45
21 0 -12 -4 -23 -9 -26 -4 -3 -11 -19 -14 -36 -8 -35 -37 -50 -101 -50 -38 0
-48 5 -79 39 -35 39 -62 106 -55 139 3 12 13 16 33 15 16 -1 32 1 35 5 7 10
64 41 68 37 2 -1 -6 -31 -17 -66z m-8651 31 c13 -13 20 -34 20 -60 0 -50 -32
-76 -85 -67 -33 5 -35 4 -35 -24 0 -19 -5 -29 -15 -29 -12 0 -15 18 -15 98 l0
98 55 2 c43 1 60 -3 75 -18z m154 4 c11 -10 16 -34 16 -73 l0 -57 -47 -2 c-52
-2 -73 10 -73 42 0 32 19 46 62 46 40 0 48 10 23 30 -9 8 -28 10 -52 6 -35 -6
-37 -5 -19 9 26 20 70 19 90 -1z m146 5 c0 -5 -6 -9 -14 -9 -29 0 -46 -30 -46
-81 0 -27 -4 -49 -10 -49 -6 0 -10 31 -10 73 l0 73 40 1 c22 1 40 -2 40 -8z
m128 -6 c11 -10 23 -28 27 -40 6 -22 4 -23 -55 -23 -52 0 -61 -3 -58 -16 5
-29 34 -40 68 -27 34 13 51 0 21 -16 -32 -17 -73 -13 -98 11 -66 62 26 170 95
111z m82 7 c0 -7 6 -7 19 0 32 17 69 12 85 -12 22 -30 22 -128 1 -128 -11 0
-15 13 -15 53 0 55 -12 77 -41 77 -27 0 -43 -28 -44 -77 0 -27 -6 -48 -13 -51
-9 -3 -12 17 -12 72 0 44 4 76 10 76 6 0 10 -5 10 -10z m367 -6 c2 -7 -10 -11
-34 -10 -27 1 -38 -3 -41 -15 -2 -12 7 -19 34 -26 20 -4 42 -16 48 -26 24 -37
-29 -68 -90 -53 -42 11 -26 26 19 20 35 -5 45 -3 50 10 6 16 -25 36 -57 36 -6
0 -17 5 -24 12 -30 30 4 71 56 66 19 -2 37 -8 39 -14z m188 -31 c10 -27 21
-51 24 -56 4 -4 15 18 25 48 10 31 23 55 31 55 7 0 21 -22 30 -50 9 -27 20
-50 25 -50 5 0 16 23 25 50 9 28 23 50 30 50 16 0 -35 -142 -54 -148 -6 -2
-18 14 -27 35 -8 21 -18 47 -23 57 -6 16 -11 9 -27 -35 -11 -30 -25 -54 -33
-54 -13 0 -59 102 -60 133 -2 28 18 9 34 -35z m524 21 c35 -45 28 -54 -39 -54
-33 0 -60 -4 -60 -9 0 -31 70 -56 85 -31 4 6 11 7 17 4 16 -10 -21 -34 -53
-34 -36 0 -68 28 -75 67 -5 26 -1 37 19 57 35 35 79 35 106 0z m131 17 c0 -3
-10 -11 -22 -16 -19 -8 -23 -19 -26 -67 -2 -43 -7 -58 -17 -58 -12 0 -15 16
-15 74 l0 73 40 0 c22 0 40 -3 40 -6z m138 -11 c12 -12 22 -30 22 -40 0 -18
-7 -20 -60 -20 -33 0 -60 -4 -60 -9 0 -31 70 -56 85 -31 4 6 11 8 16 4 18 -11
-12 -34 -45 -34 -52 0 -76 24 -76 75 0 34 5 47 22 59 31 22 70 20 96 -4z m312
8 c0 -9 3 -9 12 0 21 21 75 15 92 -10 22 -30 22 -128 1 -128 -11 0 -15 12 -15
49 0 64 -7 81 -35 81 -32 0 -48 -24 -50 -77 0 -26 -6 -48 -13 -51 -9 -3 -12
18 -12 72 0 44 4 76 10 76 6 0 10 -5 10 -12z m277 -10 c47 -44 14 -128 -51
-128 -65 0 -97 71 -55 124 26 33 73 35 106 4z m77 -38 c16 -43 21 -49 28 -34
4 10 14 36 22 57 9 21 21 37 28 35 6 -2 19 -25 27 -50 9 -26 19 -50 23 -53 3
-4 14 18 24 49 10 33 23 56 32 56 7 0 12 -4 10 -8 -1 -4 -14 -38 -27 -75 -14
-37 -30 -67 -37 -67 -7 0 -21 23 -31 50 -10 28 -21 50 -25 50 -3 0 -14 -22
-23 -50 -9 -27 -22 -50 -30 -50 -7 0 -24 32 -39 71 -30 80 -30 82 -14 77 6 -2
20 -28 32 -58z m405 34 c35 -45 28 -54 -39 -54 -33 0 -60 -4 -60 -9 0 -31 70
-56 85 -31 4 6 11 8 16 4 19 -11 -13 -34 -48 -34 -49 0 -87 40 -79 83 13 66
87 90 125 41z m379 -62 c-3 -94 -15 -112 -76 -112 -39 0 -75 17 -67 31 4 6 13
5 25 -1 43 -23 90 -6 90 34 0 16 -3 17 -12 8 -20 -20 -67 -14 -93 13 -32 31
-32 59 -1 90 21 21 33 24 81 23 l57 -2 -4 -84z m150 71 c11 -10 23 -28 27 -40
6 -22 4 -23 -55 -23 -52 0 -61 -3 -58 -16 5 -29 34 -40 68 -27 34 13 51 0 21
-16 -32 -17 -73 -13 -98 11 -67 62 26 170 95 111z m242 2 c16 -19 5 -34 -12
-17 -21 21 -56 14 -75 -14 -15 -24 -15 -29 -2 -53 16 -29 52 -39 75 -20 19 16
30 4 14 -16 -18 -22 -72 -19 -98 5 -48 45 -12 130 54 130 17 0 37 -7 44 -15z
m144 -1 c11 -10 16 -34 16 -73 l0 -57 -47 -2 c-52 -2 -73 10 -73 42 0 32 19
46 62 46 40 0 48 10 23 30 -10 8 -28 10 -52 5 -33 -6 -35 -5 -24 9 17 21 75
21 95 0z m190 -6 c22 -30 22 -128 1 -128 -11 0 -15 12 -15 49 0 64 -7 81 -35
81 -34 0 -50 -27 -49 -81 1 -35 -3 -49 -13 -49 -10 0 -13 18 -13 73 l0 73 54
2 c47 2 57 -1 70 -20z m424 6 c12 -8 22 -26 22 -40 0 -23 -3 -24 -60 -24 -58
0 -60 -1 -50 -21 15 -28 37 -34 71 -22 23 9 29 8 29 -2 0 -30 -81 -34 -110 -5
-12 12 -20 33 -20 55 0 64 65 97 118 59z m333 -3 c52 -42 17 -131 -51 -131
-44 0 -72 29 -72 75 0 67 70 99 123 56z m79 -27 c0 -57 14 -84 43 -84 35 0 47
19 47 77 0 36 4 53 13 53 8 0 12 -21 11 -72 l-1 -72 -51 -3 c-68 -5 -82 11
-82 88 0 33 4 59 10 59 6 0 10 -21 10 -46z m285 30 c17 -18 22 -134 5 -134 -5
0 -10 21 -10 46 0 58 -14 84 -45 84 -31 0 -45 -26 -45 -84 0 -34 -4 -46 -15
-46 -12 0 -15 15 -15 73 l0 73 55 2 c37 1 59 -4 70 -14z m416 6 c16 -9 19 -22
19 -73 l0 -63 -47 -2 c-53 -2 -73 10 -73 44 0 27 26 44 69 44 34 0 39 11 16
30 -9 8 -28 10 -52 6 -35 -6 -37 -5 -19 9 23 17 59 19 87 5z m193 -12 c22 -30
22 -128 1 -128 -12 0 -15 13 -15 60 0 56 -2 60 -26 66 -37 9 -56 -15 -59 -72
-1 -26 -7 -50 -13 -52 -9 -3 -12 18 -12 70 l0 74 54 2 c47 2 57 -1 70 -20z
m4716 -55 c0 -27 -17 -37 -52 -30 l-23 4 23 8 c20 7 23 13 20 41 -4 32 -3 33
14 17 10 -9 18 -27 18 -40z m5123 44 c18 -8 38 -22 46 -31 12 -15 43 -185 36
-194 -2 -2 -41 -9 -88 -17 -47 -8 -97 -21 -111 -31 l-26 -16 6 73 c6 80 24
144 51 187 30 46 38 49 86 29z m687 -28 c0 -13 -61 -141 -65 -137 -16 16 -56
83 -61 102 -4 19 0 27 18 37 52 28 108 27 108 -2z m-7978 -60 c21 1 38 0 38
-3 0 -3 -9 -20 -19 -38 -41 -71 -32 -149 15 -134 36 11 64 45 65 79 0 27 2 29
9 12 5 -11 9 -33 9 -48 1 -16 8 -35 16 -44 32 -31 -29 -69 -120 -74 -56 -4
-60 -3 -73 23 -13 29 -18 190 -6 221 3 9 11 14 17 10 6 -4 28 -6 49 -4z m8256
-5 c23 -16 30 -44 10 -44 -6 0 -20 -8 -30 -17 -19 -17 -19 -16 -13 10 8 29
-12 40 -20 12 -7 -20 -13 -34 -34 -74 l-18 -34 -6 69 c-4 56 -2 70 11 81 23
17 73 16 100 -3z m-15628 -6 c0 -24 -12 -58 -20 -58 -4 0 -8 16 -8 35 0 23 5
35 14 35 8 0 14 -6 14 -12z m13205 -55 c17 -6 75 -25 130 -42 254 -78 302 -94
330 -111 17 -10 45 -21 62 -25 18 -3 35 -11 38 -16 4 -5 15 -9 26 -9 12 0 40
-19 64 -42 23 -24 54 -53 69 -65 41 -34 33 -43 -41 -43 -85 -1 -104 -13 -97
-62 6 -37 43 -88 63 -88 6 0 11 -5 11 -11 0 -6 -9 -8 -20 -4 -18 6 -20 3 -14
-19 4 -18 2 -28 -8 -31 -9 -4 -13 -18 -12 -39 3 -29 0 -33 -16 -29 -23 6 -81
62 -169 162 -36 41 -90 89 -120 109 -73 46 -234 193 -281 257 -36 48 -80 126
-80 141 0 4 8 0 18 -8 9 -8 31 -19 47 -25z m-4412 -2 c23 -39 105 -129 130
-142 22 -12 22 -13 2 77 l-7 29 21 -25 c24 -29 36 -79 26 -110 -6 -20 -12 -22
-50 -17 -85 12 -222 80 -188 93 7 3 15 22 18 42 15 94 20 100 48 53z m-406
-43 c-3 -8 -6 -5 -6 6 -1 11 2 17 5 13 3 -3 4 -12 1 -19z m1259 -40 c54 -58
69 -78 56 -78 -13 0 -112 99 -112 111 0 18 17 8 56 -33z m-1242 0 c2 -13 9
-57 15 -98 18 -114 56 -156 73 -79 7 31 4 77 -8 134 -2 11 5 2 16 -20 34 -70
22 -197 -21 -210 -29 -10 -154 82 -201 148 -18 26 -19 30 -5 24 22 -8 57 45
57 85 0 26 9 31 57 37 7 0 14 -9 17 -21z m6984 -31 c11 -22 11 -34 0 -65 -7
-20 -13 -38 -14 -40 -1 -2 -19 4 -39 12 -21 9 -46 16 -56 16 -50 0 -32 53 29
85 55 28 63 27 80 -8z m-16298 -11 c0 -34 0 -34 38 -29 55 7 72 -13 72 -88 0
-33 -4 -59 -10 -59 -5 0 -10 21 -10 46 0 57 -14 84 -43 84 -35 0 -47 -19 -47
-77 0 -40 -4 -53 -15 -53 -12 0 -15 18 -15 105 0 87 3 105 15 105 10 0 15 -10
15 -34z m730 -71 c0 -63 -4 -105 -10 -105 -5 0 -10 5 -10 12 0 9 -3 9 -12 0
-22 -22 -75 -14 -97 14 -53 68 15 154 90 114 17 -10 19 -7 19 30 0 22 5 40 10
40 6 0 10 -42 10 -105z m608 93 c-6 -18 -28 -21 -28 -4 0 9 7 16 16 16 9 0 14
-5 12 -12z m72 -93 c0 -87 -3 -105 -15 -105 -12 0 -15 18 -15 105 0 87 3 105
15 105 12 0 15 -18 15 -105z m9406 50 c-7 -27 -46 -36 -46 -11 0 8 8 13 17 12
12 -1 19 8 22 24 2 14 6 19 8 12 3 -7 2 -24 -1 -37z m5172 6 c36 -45 36 -42
21 -113 l-12 -52 -23 29 c-19 24 -30 29 -71 29 l-48 1 0 45 c0 37 5 50 30 73
41 37 66 35 103 -12z m869 5 c23 -27 40 -72 31 -82 -3 -2 -21 3 -41 11 -29 12
-37 21 -37 40 0 22 -5 25 -33 25 -27 0 -33 4 -33 21 0 19 5 21 45 16 33 -4 52
-12 68 -31z m-7977 -20 c11 -21 10 -30 -5 -63 -21 -45 -31 -118 -17 -127 19
-11 72 62 72 99 0 19 4 35 9 35 9 0 21 -48 21 -84 0 -29 -52 -90 -90 -106 -30
-12 -33 -12 -55 16 -39 47 -94 158 -97 194 -3 31 0 35 37 46 68 21 110 18 125
-10z m-1072 -33 c-3 -46 -2 -48 24 -48 14 1 24 -3 22 -7 -11 -17 17 -7 33 12
23 27 40 25 47 -5 5 -19 13 -25 34 -25 15 0 34 -4 42 -10 9 -5 19 -5 27 2 8 6
17 8 20 4 18 -18 -34 -61 -146 -123 -54 -30 -60 -40 -62 -98 -3 -78 3 -92 52
-131 27 -21 49 -42 49 -46 0 -20 -162 -98 -202 -98 -5 0 -20 12 -34 27 l-25
27 -69 -23 c-38 -12 -91 -24 -117 -28 -56 -6 -71 5 -80 61 -8 48 2 79 37 118
30 32 42 88 19 88 -12 0 -102 -25 -167 -46 -23 -8 -49 -14 -57 -14 -19 0 -38
65 -32 106 12 70 101 193 124 170 3 -3 2 -22 -4 -41 -10 -32 -10 -34 7 -25 9
5 20 6 24 2 4 -3 11 -1 15 6 4 7 6 -12 3 -41 l-4 -55 28 5 c16 2 51 9 78 14
33 6 53 6 61 -1 10 -8 27 -4 64 14 28 14 56 26 63 26 16 -1 -32 -39 -49 -40
-15 0 -123 -106 -123 -121 0 -6 3 -8 8 -6 52 30 155 70 182 71 42 2 60 12 60
32 0 8 -4 13 -9 9 -6 -3 -21 14 -36 38 -23 41 -25 51 -19 118 9 102 16 117 56
122 18 2 39 5 46 5 9 2 12 -11 10 -45z m-7871 21 c2 -7 -12 -10 -39 -10 -56 1
-59 -24 -5 -39 87 -25 63 -94 -29 -83 -47 5 -41 27 8 25 52 -2 60 21 13 36
-54 18 -71 47 -43 75 15 15 90 12 95 -4z m327 -6 c10 -13 16 -44 16 -74 l0
-51 -52 -2 c-55 -1 -78 11 -78 40 0 28 28 49 66 49 28 0 35 3 32 18 -3 13 -13
17 -46 16 -41 -1 -55 9 -29 19 32 14 76 6 91 -15z m136 13 c0 -3 -10 -11 -22
-16 -19 -8 -23 -19 -26 -67 -2 -43 -7 -58 -17 -58 -12 0 -15 16 -15 74 l0 73
40 0 c22 0 40 -3 40 -6z m140 -13 c11 -12 20 -30 20 -40 0 -15 -9 -18 -60 -18
-33 0 -60 -4 -60 -9 0 -31 70 -56 85 -31 4 6 11 8 16 4 18 -11 -13 -34 -46
-34 -49 0 -77 28 -77 75 0 68 76 102 122 53z m410 12 c10 -5 23 -23 28 -40
l11 -30 -65 0 c-62 0 -64 -1 -54 -21 15 -28 37 -34 71 -22 23 9 29 8 29 -2 0
-31 -77 -34 -108 -5 -29 27 -29 83 -2 110 22 22 60 26 90 10z m164 -12 c10
-13 16 -44 16 -74 l0 -51 -52 -2 c-58 -1 -78 11 -78 45 0 27 26 44 70 44 25 0
31 4 28 18 -3 13 -13 17 -46 15 -40 -2 -56 10 -29 20 32 14 76 6 91 -15z m153
5 c3 -8 -8 -10 -36 -6 -36 5 -41 3 -41 -15 0 -15 9 -22 33 -27 56 -13 72 -38
41 -69 -16 -16 -59 -21 -88 -10 -30 12 -16 23 26 21 32 -2 43 2 46 14 2 11 -7
18 -29 23 -18 3 -38 11 -46 17 -18 16 -16 46 5 58 22 14 84 10 89 -6z m65 -30
c4 -62 -1 -103 -13 -103 -5 0 -9 34 -9 75 0 83 16 103 22 28z m151 -10 l25
-58 25 58 c14 31 31 57 36 57 15 0 15 1 -25 -92 -45 -102 -51 -110 -82 -106
-35 4 -39 24 -5 23 39 0 40 27 4 108 -21 47 -26 67 -17 67 7 0 25 -26 39 -57z
m8687 -34 c0 -33 -5 -51 -14 -55 -15 -6 -129 21 -160 38 -15 8 -16 12 -5 18 7
5 17 6 21 4 4 -3 8 8 8 25 0 45 13 45 58 1 38 -37 62 -50 62 -32 0 4 -4 24 -9
44 -11 45 -2 57 21 28 12 -15 18 -39 18 -71z m6265 79 c30 -13 31 -26 8 -67
-20 -35 -48 -43 -40 -11 3 11 -3 29 -14 41 -22 26 -24 35 -6 42 19 8 24 8 52
-5z m-758 -24 c49 -33 53 -40 53 -101 0 -43 4 -54 21 -64 34 -18 8 -28 -46
-18 -27 6 -72 9 -99 7 -47 -3 -50 -1 -59 26 -7 21 -6 40 3 65 14 39 66 111 80
111 5 0 26 -12 47 -26z m933 -9 c6 -8 9 -18 6 -24 -8 -13 -66 10 -66 26 0 18
45 16 60 -2z m-6140 -66 c11 -40 6 -63 -12 -57 -5 2 -11 27 -12 56 -4 59 8 60
24 1z m-3099 -2 c-8 -8 -11 -7 -11 4 0 20 13 34 18 19 3 -7 -1 -17 -7 -23z
m7877 13 c23 -10 42 -21 42 -23 0 -2 -22 -2 -49 1 -45 4 -51 2 -67 -23 -18
-28 -18 -28 11 -52 17 -13 53 -37 80 -54 42 -24 46 -29 25 -29 -27 0 -64 -21
-91 -52 -9 -10 -21 -18 -28 -18 -6 0 -11 -10 -11 -22 l0 -23 -19 24 c-19 25
-47 132 -58 218 -5 49 -4 53 18 62 39 16 101 12 147 -9z m-13633 -30 c3 -6 -1
-13 -10 -16 -19 -8 -30 0 -20 15 8 14 22 14 30 1z m6756 -27 c6 -16 12 -55 13
-88 4 -90 5 -97 15 -90 5 3 12 1 16 -5 3 -5 25 -10 48 -10 35 0 47 6 70 31 31
35 47 31 47 -12 0 -43 -15 -68 -73 -121 -46 -42 -49 -48 -36 -64 9 -10 16 -49
19 -103 3 -59 9 -86 17 -86 7 0 20 -10 28 -22 l16 -23 31 36 c19 22 38 34 48
31 10 -2 25 0 34 5 49 27 -14 -61 -93 -131 -75 -67 -108 -76 -133 -39 -14 21
-15 -10 -16 -292 -1 -173 -2 -325 -2 -338 0 -13 -4 -20 -10 -17 -5 3 -10 45
-10 93 -1 81 -7 188 -29 442 -9 109 -3 137 36 182 11 12 12 24 4 55 -5 21 -13
80 -16 131 -4 50 -11 95 -16 97 -19 12 -50 103 -60 175 -10 67 -6 161 7 182
11 17 35 7 45 -19z m7909 -54 c38 -43 30 -59 -31 -59 -48 0 -49 1 -49 29 0 20
8 35 22 45 28 20 24 21 58 -15z m-6735 -16 c18 -116 50 -194 84 -213 28 -14
34 1 27 64 -7 52 -17 77 -50 129 -18 27 -18 27 3 27 48 0 98 -184 71 -264 -6
-20 -18 -36 -26 -36 -27 0 -150 88 -198 140 -44 50 -59 90 -34 90 6 0 26 11
44 25 18 14 37 25 43 25 6 0 11 11 11 25 0 39 18 30 25 -12z m7030 25 c32 -14
28 -29 -10 -40 -21 -5 -34 -3 -47 9 -41 37 -2 58 57 31z m-446 -38 c39 -34 36
-54 -9 -64 -55 -11 -70 -8 -70 14 0 24 27 80 38 80 4 -1 22 -14 41 -30z m231
-5 c0 -41 -4 -43 -26 -10 -17 26 -12 45 12 45 9 0 14 -11 14 -35z m509 -39
c12 -18 21 -40 21 -47 -1 -16 -70 55 -70 71 0 22 30 8 49 -24z m-106 -30 c12
-9 17 -24 15 -41 l-3 -26 -42 37 c-24 21 -43 46 -43 56 0 17 2 17 28 3 15 -8
35 -21 45 -29z m-213 9 c0 -27 -9 -32 -28 -13 -18 18 -14 38 8 38 15 0 20 -7
20 -25z m-7565 -13 c6 -4 20 -21 33 -39 17 -26 22 -46 22 -100 0 -75 9 -97 36
-91 18 3 64 69 85 120 12 32 29 28 29 -5 0 -20 -14 -77 -35 -144 -6 -18 -4
-21 14 -16 12 3 21 10 21 17 0 6 6 0 13 -13 6 -13 21 -29 32 -35 36 -20 54
-47 61 -94 7 -45 46 -117 58 -105 3 4 6 1 6 -5 0 -7 11 -12 24 -12 27 0 39 27
51 113 6 48 7 48 26 31 11 -10 29 -33 41 -51 11 -19 38 -45 60 -59 49 -31 74
-72 82 -135 7 -55 23 -61 43 -16 l13 29 26 -21 c37 -29 51 -27 96 20 33 34 39
37 33 18 -12 -40 -53 -103 -81 -124 -15 -11 -46 -37 -69 -57 -23 -21 -46 -38
-50 -38 -14 0 -118 115 -145 160 -14 23 -33 51 -42 63 l-17 22 -25 -30 c-23
-28 -25 -29 -52 -15 -57 29 -177 162 -214 235 -19 39 -36 72 -38 74 -1 3 -20
-6 -42 -18 -24 -13 -48 -20 -59 -16 -29 9 -108 139 -131 213 -20 64 -26 101
-14 89 4 -3 15 5 26 18 19 25 61 33 83 17z m8093 -4 c14 -14 16 -128 2 -128
-5 0 -10 9 -10 20 0 12 -7 34 -15 51 -9 16 -13 34 -10 39 3 6 1 10 -4 10 -6 0
-11 5 -11 10 0 14 33 13 48 -2z m-1179 -23 c47 -29 47 -30 56 -78 7 -34 5 -37
-16 -37 -13 0 -44 -9 -68 -20 -51 -23 -68 -26 -53 -7 6 7 9 23 5 35 -3 12 -2
47 2 77 7 63 16 67 74 30z m-5809 -135 c0 -37 -5 -73 -12 -83 -12 -15 -18 -15
-83 8 -77 27 -178 91 -183 116 -4 21 34 39 87 42 34 2 46 -2 55 -18 35 -62 69
-105 81 -105 14 0 22 55 17 128 l-1 24 19 -23 c16 -17 20 -37 20 -89z m5424
80 c22 -17 49 -30 61 -30 34 0 63 -27 67 -62 2 -24 9 -34 27 -38 21 -5 22 -7
8 -18 -13 -11 -56 -18 -133 -21 -12 -1 -33 -12 -48 -26 -15 -14 -30 -25 -34
-25 -14 1 -62 74 -62 95 0 41 51 155 68 155 4 0 25 -14 46 -30z m-7367 -46 c3
-8 0 -33 -6 -55 -9 -29 -9 -55 0 -104 10 -61 9 -72 -15 -149 -14 -46 -26 -95
-26 -109 0 -22 5 -25 41 -29 25 -2 44 1 51 9 6 7 27 13 46 13 25 0 44 8 64 27
33 32 36 19 6 -38 -41 -78 -134 -148 -199 -149 -51 0 -55 16 -66 235 -5 108
-2 132 22 232 17 73 33 116 43 123 24 13 32 12 39 -6z m8070 -1 c3 -7 -7 -17
-21 -23 -20 -7 -26 -17 -26 -39 0 -32 -20 -60 -62 -86 -27 -17 -28 -17 -28 2
0 10 -6 27 -14 38 -8 12 -11 34 -9 53 5 31 7 32 54 32 39 0 51 4 59 21 12 21
40 23 47 2z m673 -116 l0 -31 -20 20 c-11 11 -23 38 -26 60 l-6 39 26 -28 c17
-18 26 -40 26 -60z m-188 56 c19 -17 24 -48 10 -57 -5 -3 -18 -2 -30 1 -16 4
-22 13 -22 32 0 43 13 51 42 24z m675 -20 c32 -16 38 -23 37 -49 -2 -52 -89
-172 -110 -151 -3 2 0 17 6 32 6 16 8 36 4 44 -4 9 -8 40 -9 69 -2 29 -9 60
-16 69 -13 15 -11 16 18 10 17 -3 49 -14 70 -24z m-2373 -27 c19 -13 54 -27
78 -31 l43 -8 -45 -8 c-25 -4 -62 -13 -82 -19 -35 -10 -38 -13 -38 -49 0 -44
13 -58 73 -82 42 -17 61 -39 33 -39 -24 0 -59 -39 -53 -60 4 -14 1 -17 -12
-13 -33 13 -81 51 -103 81 -13 18 -36 51 -53 73 l-29 41 24 46 c26 48 79 92
111 92 10 0 34 -11 53 -24z m-4684 -6 c0 -5 -5 -10 -11 -10 -5 0 -7 5 -4 10 3
6 8 10 11 10 2 0 4 -4 4 -10z m78 -26 c-9 -10 -21 -13 -29 -8 -9 5 -8 9 7 15
31 12 39 10 22 -7z m5895 2 c27 -21 21 -33 -25 -54 -24 -10 -49 -26 -57 -35
-22 -27 -26 -20 -23 33 3 43 7 50 25 50 12 0 29 5 37 10 19 12 21 12 43 -4z
m-6090 -52 c32 -40 31 -49 -4 -35 -40 17 -60 37 -53 55 10 25 26 19 57 -20z
m87 6 c0 -16 -4 -30 -8 -30 -5 0 -9 14 -9 30 0 17 4 30 9 30 4 0 8 -13 8 -30z
m6378 -14 c19 -28 21 -38 13 -55 -15 -27 -32 -18 -55 28 -31 65 2 85 42 27z
m-834 -41 c47 -25 96 -45 113 -45 17 0 35 -6 41 -12 12 -16 -2 -58 -20 -59
-54 -5 -75 -11 -113 -33 -54 -32 -59 -32 -73 -2 -6 13 -20 27 -30 31 -11 3
-23 12 -26 20 -8 22 6 145 16 145 6 0 47 -20 92 -45z m1216 -26 c0 -21 -5 -41
-10 -44 -12 -8 -16 4 -25 70 l-7 50 21 -19 c14 -13 21 -31 21 -57z m561 -34
c48 -17 89 -51 89 -73 0 -21 -100 -114 -145 -136 -22 -10 -57 -27 -77 -38 -50
-25 -48 -9 3 41 41 40 42 41 24 67 -19 29 -16 93 5 118 6 9 9 20 5 26 -9 15
46 12 96 -5z m-1507 -8 c16 -12 16 -15 -6 -47 -26 -38 -45 -41 -40 -5 2 12 -2
26 -7 30 -22 13 -12 25 30 34 3 0 13 -5 23 -12z m737 -3 c27 -32 5 -184 -22
-157 -11 11 -29 153 -22 166 7 12 30 8 44 -9z m-1381 -77 l45 -13 -30 -16
c-17 -9 -39 -26 -50 -38 l-20 -22 24 -19 c13 -11 39 -19 60 -19 21 0 40 -3 44
-6 8 -8 -71 -84 -86 -84 -20 1 -64 43 -82 79 -18 36 -26 146 -12 169 7 10 14
9 35 -3 15 -9 47 -21 72 -28z m803 -5 c-16 -2 -39 -17 -54 -35 l-27 -32 -15
35 c-8 19 -12 38 -8 42 3 4 25 8 47 9 33 2 41 6 36 18 -3 10 5 6 22 -9 l28
-25 -29 -3z m891 25 c13 -9 16 -20 12 -34 -9 -27 -64 -103 -74 -103 -8 0 -5
111 3 138 6 16 36 15 59 -1z m-450 -33 c20 -8 21 -53 2 -79 -19 -26 -46 -13
-46 24 0 54 11 68 44 55z m-8040 -91 c16 -32 46 -45 46 -21 0 6 3 8 7 5 3 -4
12 2 20 13 16 23 38 25 76 8 22 -11 27 -20 27 -53 1 -37 2 -39 15 -21 8 11 18
34 21 53 3 18 10 36 15 39 14 8 11 -39 -6 -86 -22 -64 -20 -78 8 -52 25 23 47
29 47 12 0 -12 55 14 83 38 9 8 17 13 18 11 0 -2 2 -22 3 -44 2 -45 -16 -67
-74 -86 -19 -7 -63 -25 -97 -42 -52 -24 -66 -27 -78 -17 -12 10 -21 10 -45 0
-44 -18 -74 1 -106 67 -21 43 -26 66 -25 125 1 40 4 89 8 108 l7 35 6 -30 c4
-16 14 -45 24 -62z m7676 27 c0 -11 -4 -20 -9 -20 -13 0 -32 26 -24 33 13 14
33 6 33 -13z m-96 -56 c7 -17 -3 -64 -13 -64 -3 0 -14 12 -24 26 -15 20 -16
28 -7 39 16 20 36 19 44 -1z m-107 -10 c6 -15 -25 -84 -39 -84 -3 0 -9 9 -13
19 -3 11 -12 22 -20 25 -23 8 -18 24 13 40 35 20 51 20 59 0z m-410 -19 c19
-8 53 -15 74 -15 42 0 48 -6 22 -25 -9 -7 -14 -19 -10 -29 9 -23 26 -20 38 8
11 22 55 44 66 32 11 -11 -10 -43 -39 -60 -18 -10 -47 -34 -64 -54 l-30 -35
-78 37 c-78 36 -78 36 -71 68 7 30 40 88 51 88 3 0 21 -7 41 -15z m1622 -14
c11 -7 21 -20 21 -30 0 -29 -131 -144 -146 -128 -3 3 1 11 8 18 17 19 16 40
-5 72 -17 26 -16 26 11 39 15 7 28 23 30 35 3 18 7 20 31 13 16 -4 38 -13 50
-19z m-939 -3 c0 -19 -2 -20 -10 -8 -13 19 -13 30 0 30 6 0 10 -10 10 -22z
m530 -11 c0 -30 -34 -92 -51 -92 -8 0 -15 13 -17 32 -2 24 4 37 25 57 34 32
43 33 43 3z m-160 -2 c7 -8 10 -25 6 -38 -5 -22 -83 -113 -91 -106 -7 8 51
159 61 159 6 0 17 -7 24 -15z m-214 -42 c18 -24 17 -53 -3 -75 -38 -42 -55 -9
-31 59 14 38 16 39 34 16z m-1573 -2 c18 5 43 9 56 9 20 0 22 -2 10 -16 -7 -8
-25 -22 -40 -30 -45 -23 -53 -47 -29 -91 11 -21 20 -43 20 -49 0 -6 14 -25 30
-42 31 -33 37 -56 21 -81 -13 -20 -93 -2 -178 40 -56 27 -63 34 -63 60 0 37
27 105 58 147 26 35 75 66 80 52 2 -5 17 -4 35 1z m1355 -71 c3 -42 3 -42 -25
-36 -43 11 -48 22 -23 56 29 40 44 34 48 -20z m722 -57 c82 -56 79 -103 -10
-148 -49 -25 -90 -32 -90 -17 0 5 3 12 8 16 4 4 7 11 8 14 0 4 3 14 7 22 3 8
7 24 9 35 2 13 12 21 31 23 l27 3 -20 29 c-11 15 -20 31 -20 34 0 11 26 6 50
-11z m-12789 -8 c16 -9 34 -27 39 -41 6 -14 10 -108 10 -210 0 -202 -7 -236
-56 -254 -40 -15 -1766 -13 -1799 2 -49 22 -55 50 -55 252 0 102 4 196 10 210
21 57 -13 55 943 56 773 0 882 -2 908 -15z m11896 -1 c6 -16 -26 -124 -38
-124 -3 0 -14 9 -25 21 -10 12 -31 27 -46 35 -38 19 -35 32 7 40 20 3 40 15
46 25 12 23 47 25 56 3z m358 -64 c16 -31 20 -96 6 -104 -16 -10 -81 -14 -86
-5 -3 5 5 28 19 52 15 24 26 53 26 65 0 31 17 27 35 -8z m273 -34 c7 -34 -102
-115 -125 -92 -4 3 10 21 30 40 20 19 38 39 38 45 1 10 3 19 8 36 3 11 46 -14
49 -29z m-1294 -54 c-56 -56 -94 -130 -73 -143 8 -5 21 -9 29 -9 23 0 100 38
138 67 39 29 55 24 21 -6 -144 -127 -133 -122 -211 -92 -36 14 -69 87 -76 169
l-5 62 29 -15 c35 -18 97 -12 152 16 54 28 53 6 -4 -49z m416 53 c0 -2 -9 -19
-20 -37 -24 -40 -26 -67 -4 -75 22 -8 64 37 73 78 8 39 24 42 29 5 2 -16 -7
-36 -27 -58 -17 -19 -35 -47 -40 -61 l-10 -27 -58 25 c-73 33 -93 51 -93 86 0
15 -4 31 -10 34 -24 15 -8 27 28 23 20 -3 48 -1 62 3 30 8 70 11 70 4z m1465
-27 c25 -12 45 -26 45 -32 0 -5 12 -24 26 -43 17 -22 24 -43 22 -62 -1 -16 4
-41 11 -55 20 -37 9 -41 -43 -15 -43 21 -51 22 -108 11 -34 -6 -66 -8 -70 -4
-11 11 3 52 18 52 8 0 14 5 14 10 0 6 -7 10 -15 10 -27 0 -51 55 -46 108 2 18
49 14 60 -5 9 -15 10 -12 11 15 0 39 12 40 75 10z m-16675 -88 c0 -5 -11 -10
-25 -10 -14 0 -25 -4 -25 -10 0 -5 11 -10 25 -10 14 0 25 -4 25 -10 0 -5 -11
-10 -25 -10 -18 0 -25 -5 -25 -20 0 -13 -7 -20 -20 -20 -17 0 -20 7 -20 50 l0
50 45 0 c25 0 45 -4 45 -10z m40 -40 c0 -38 -4 -50 -15 -50 -11 0 -15 12 -15
50 0 38 4 50 15 50 11 0 15 -12 15 -50z m63 28 l16 -23 0 23 c1 13 7 22 16 22
11 0 15 -12 15 -50 0 -58 -16 -66 -49 -24 l-21 27 0 -27 c0 -16 -5 -26 -15
-26 -11 0 -15 12 -15 50 0 42 3 50 19 50 10 0 26 -10 34 -22z m171 -11 c15
-41 -2 -61 -57 -67 l-45 -6 -4 54 -3 53 50 -3 c44 -3 51 -6 59 -31z m141 -2
c0 -25 -4 -30 -27 -33 -16 -2 -28 -9 -28 -18 0 -8 -9 -14 -20 -14 -17 0 -20 7
-20 51 l0 50 48 -3 c45 -3 47 -4 47 -33z m45 -5 c0 -36 3 -40 24 -40 18 0 27
9 40 40 21 53 46 53 73 -2 l22 -43 0 43 c1 34 4 42 20 42 10 0 26 -10 34 -22
l16 -23 0 23 c1 20 5 22 66 22 37 0 65 -4 65 -10 0 -5 -7 -10 -15 -10 -11 0
-15 -11 -15 -40 0 -33 -3 -40 -20 -40 -17 0 -20 7 -20 40 0 29 -4 40 -15 40
-11 0 -15 -11 -15 -40 0 -47 -20 -54 -51 -17 l-18 22 -1 -22 c0 -19 -5 -23
-35 -23 -19 0 -35 5 -35 10 0 6 -9 10 -19 10 -11 0 -23 -4 -26 -10 -3 -5 -28
-10 -56 -10 l-49 0 0 50 c0 38 4 50 15 50 11 0 15 -11 15 -40z m15188 28 c17
-17 15 -70 -4 -129 -15 -46 -18 -49 -51 -49 -40 0 -96 26 -90 43 4 12 50 43
80 53 10 4 23 25 29 50 13 47 17 51 36 32z m696 -70 c13 -18 29 -52 35 -75 16
-60 4 -79 -63 -93 -73 -15 -102 -6 -110 32 -11 57 -7 94 15 113 20 19 20 18
45 -10 l24 -30 -1 40 c-1 54 -1 55 15 55 8 0 26 -15 40 -32z m-363 -25 c24
-38 29 -57 27 -93 -3 -43 -4 -44 -49 -58 -50 -16 -119 -9 -119 11 0 7 23 32
51 56 50 43 51 45 45 88 -7 57 7 55 45 -4z m-1630 -107 c12 -27 11 -30 -24
-58 -41 -33 -47 -53 -19 -60 18 -5 82 -89 82 -108 0 -6 8 -9 18 -8 9 1 33 0
52 -1 31 -1 33 -3 18 -15 -10 -7 -55 -21 -100 -31 -103 -22 -200 -16 -233 15
l-23 21 18 69 c20 77 73 177 120 229 l32 34 23 -29 c13 -16 30 -42 36 -58z
m1099 15 c0 -54 -18 -101 -53 -138 -54 -57 -113 -39 -176 55 l-22 32 23 -1
c13 0 32 -4 43 -8 10 -4 37 -3 58 2 46 12 55 5 33 -27 -20 -31 -21 -56 -2 -56
16 0 46 69 46 106 0 32 28 86 40 79 6 -4 10 -23 10 -44z m1078 -77 c20 -13 59
-74 48 -74 -2 0 0 -19 5 -42 12 -52 3 -95 -21 -103 -21 -7 -128 10 -172 27
-23 8 -27 15 -22 34 4 15 -1 33 -15 53 -28 39 -27 52 10 87 30 28 31 28 45 10
8 -11 14 -25 14 -32 0 -17 60 -75 70 -69 5 3 4 20 0 38 -19 70 -20 87 -2 87
10 0 28 -7 40 -16z m-1561 -28 c3 -2 -11 -26 -31 -51 -40 -53 -52 -97 -38
-136 15 -39 41 -32 101 28 30 29 55 52 57 51 1 -2 -10 -32 -25 -68 -18 -41
-37 -70 -52 -77 -37 -19 -113 -16 -132 5 -26 29 -68 132 -74 181 -4 42 -3 47
24 64 22 14 42 17 97 13 37 -3 71 -7 73 -10z m-7260 -43 c-3 -10 -5 -4 -5 12
0 17 2 24 5 18 2 -7 2 -21 0 -30z m8094 -70 c18 -56 5 -162 -29 -233 -17 -36
-25 -63 -19 -69 5 -5 4 -17 -3 -30 -7 -14 -9 -43 -4 -81 6 -53 9 -60 38 -74
39 -19 44 -11 53 79 7 74 22 84 49 33 34 -65 -12 -243 -70 -269 -31 -15 -58 3
-149 101 -80 86 -80 89 2 203 19 26 39 47 45 47 5 0 -17 20 -49 44 -60 43
-125 102 -125 111 0 26 33 75 53 80 14 4 35 18 48 31 13 14 34 24 51 24 l28 0
-7 -59 c-7 -67 1 -101 19 -83 6 6 11 30 10 54 -2 37 2 59 24 126 6 21 21 5 35
-35z m350 -40 c35 -30 48 -68 55 -155 9 -110 0 -119 -90 -95 -35 9 -86 31
-114 49 -46 30 -51 36 -46 63 9 51 123 136 124 93 0 -7 12 -31 26 -53 l25 -40
-4 45 c-3 25 -8 60 -12 78 -9 37 3 42 36 15z m150 -108 c39 -78 34 -94 -10
-27 -26 41 -41 92 -27 92 2 0 19 -29 37 -65z m-1081 -36 c0 -5 5 -7 10 -4 13
8 13 -9 -1 -78 -14 -66 -7 -100 26 -133 48 -48 70 -29 116 101 24 67 34 40 26
-66 -5 -64 -4 -79 8 -79 8 0 19 8 24 18 10 16 10 15 11 -3 0 -17 2 -18 11 -5
8 11 9 -3 4 -50 -8 -89 -38 -205 -75 -292 -33 -81 -110 -193 -110 -161 0 10 5
24 12 31 7 7 9 12 6 12 -4 0 2 30 14 68 20 67 38 302 23 302 -4 0 -18 -9 -32
-20 -14 -11 -34 -20 -43 -20 -21 0 -56 27 -73 56 -7 12 -31 47 -55 78 -56 74
-67 105 -52 151 9 26 23 41 53 56 22 12 47 28 55 35 16 17 42 19 42 3z m-670
-64 c0 -14 -4 -25 -9 -25 -4 0 -6 11 -3 25 2 14 6 25 8 25 2 0 4 -11 4 -25z
m250 -45 c0 -17 -12 -53 -26 -81 -20 -38 -25 -58 -21 -87 5 -32 2 -41 -26 -68
-55 -54 -158 -99 -118 -52 18 21 71 102 71 110 0 3 23 44 50 91 28 47 50 92
50 101 0 9 5 16 10 16 6 0 10 -14 10 -30z m209 -82 c19 -85 32 -142 48 -206 4
-18 11 -22 32 -20 15 2 26 9 26 18 0 16 70 39 82 27 4 -4 -8 -38 -25 -75 -43
-92 -55 -147 -50 -241 l4 -80 -30 52 c-36 60 -54 107 -66 174 -4 27 -15 89
-24 138 -17 94 -33 305 -24 305 3 0 15 -42 27 -92z m-487 30 c-7 -7 -12 -8
-12 -2 0 14 12 26 19 19 2 -3 -1 -11 -7 -17z m1898 -243 c-6 -15 -13 -25 -16
-22 -3 3 0 22 8 43 7 20 14 30 16 22 2 -8 -2 -27 -8 -43z m-1160 -390 c0 -8
-4 -15 -10 -15 -5 0 -7 7 -4 15 4 8 8 15 10 15 2 0 4 -7 4 -15z m-423 -279
c-3 -8 -1 -17 6 -19 11 -5 -65 -87 -79 -87 -12 0 11 47 40 82 33 41 41 46 33
24z m-3403 -1191 c-4 -8 -11 -12 -16 -9 -6 4 -5 10 3 15 19 12 19 11 13 -6z
m119 -74 c-3 -13 -11 -20 -19 -17 -7 3 -14 -2 -16 -11 -2 -11 -10 -7 -30 15
l-27 31 27 -3 c15 -2 36 0 47 4 25 10 25 9 18 -19z m26 -60 c9 -6 10 -11 2
-15 -6 -4 -11 -2 -11 4 0 7 -8 9 -19 5 -11 -3 -22 -1 -26 5 -8 12 34 13 54 1z
m31 -25 c0 -3 -4 -8 -10 -11 -5 -3 -10 -1 -10 4 0 6 5 11 10 11 6 0 10 -2 10
-4z m63 -28 c26 -15 37 -29 31 -40 -9 -14 -63 24 -64 45 0 10 7 9 33 -5z
m-118 -8 c3 -5 -1 -10 -9 -10 -8 0 -18 5 -21 10 -3 6 1 10 9 10 8 0 18 -4 21
-10z m100 -70 c10 -11 24 -20 32 -20 7 0 13 -5 13 -11 0 -6 9 -9 20 -6 22 6
26 -5 8 -21 -10 -7 -27 2 -63 34 -27 24 -45 44 -39 44 6 0 19 -9 29 -20z m260
-20 c3 -5 2 -10 -4 -10 -5 0 -13 5 -16 10 -3 6 -2 10 4 10 5 0 13 -4 16 -10z"/>
<path d="M16142 9498 c-13 -13 -18 -361 -6 -392 6 -14 99 -16 953 -16 723 0
950 3 959 12 8 8 12 67 12 198 0 131 -4 190 -12 198 -17 17 -1889 17 -1906 0z
m578 -148 c0 -5 -4 -10 -10 -10 -5 0 -10 5 -10 10 0 6 5 10 10 10 6 0 10 -4
10 -10z m770 0 c0 -5 -4 -10 -10 -10 -5 0 -10 5 -10 10 0 6 5 10 10 10 6 0 10
-4 10 -10z m-1098 -54 l-4 -55 39 -4 38 -4 -42 -1 -43 -2 0 60 c0 33 3 60 8
60 4 0 5 -24 4 -54z m832 32 c7 -12 6 -24 -3 -42 -11 -21 -12 -28 -1 -41 8
-10 9 -15 2 -15 -6 0 -16 9 -22 20 -6 11 -20 20 -30 20 -13 0 -20 -7 -20 -20
0 -11 -4 -20 -10 -20 -6 0 -10 27 -10 61 l0 60 41 -3 c26 -2 46 -10 53 -20z
m416 -11 c12 -4 11 -6 -2 -6 -13 -1 -18 -9 -18 -31 0 -17 7 -33 18 -39 15 -9
15 -10 -5 -11 -22 0 -29 17 -24 57 1 6 -3 14 -9 18 -6 4 -5 11 3 19 6 8 14 10
17 6 3 -4 12 -10 20 -13z m-1092 -9 c28 -28 7 -78 -33 -78 -27 0 -45 18 -45
45 0 27 18 45 45 45 12 0 26 -5 33 -12z m122 -36 c0 -26 -5 -53 -12 -60 -15
-15 -65 -16 -74 -1 -4 8 3 9 24 4 18 -3 33 -2 37 4 3 6 -2 11 -14 11 -38 0
-51 11 -51 45 0 36 9 43 58 44 32 1 32 1 32 -47z m50 3 c0 -25 -4 -45 -10 -45
-5 0 -10 20 -10 45 0 25 5 45 10 45 6 0 10 -20 10 -45z m110 26 c13 -25 13
-71 0 -71 -5 0 -10 16 -10 35 0 24 -5 38 -16 42 -22 8 -43 -21 -39 -53 1 -13
-2 -24 -6 -24 -5 0 -9 20 -9 45 0 45 0 45 35 45 24 0 37 -6 45 -19z m146 11
c21 -14 25 -45 8 -63 -32 -35 -84 -18 -84 26 0 37 44 59 76 37z m76 -7 c-14
-11 -22 -26 -22 -46 0 -16 -3 -29 -8 -29 -4 0 -6 19 -4 43 3 38 7 43 30 45
l27 2 -23 -15z m278 -4 c15 -29 13 -31 -31 -31 -36 0 -40 -2 -28 -16 8 -10 21
-13 37 -9 15 4 21 2 17 -5 -7 -11 -35 -13 -59 -4 -19 7 -22 70 -3 77 27 12 57
6 67 -12z m108 -41 c-3 -55 -3 -55 -37 -58 -18 -2 -39 2 -45 8 -8 9 -4 11 20
6 21 -5 35 -2 42 7 10 12 8 13 -13 9 -31 -5 -55 13 -55 42 0 32 20 47 58 44
l33 -2 -3 -56z m52 15 c0 -25 -4 -45 -10 -45 -5 0 -10 20 -10 45 0 25 5 45 10
45 6 0 10 -20 10 -45z m90 35 c0 -6 -11 -8 -25 -4 -19 5 -25 2 -25 -9 0 -9 10
-17 23 -19 31 -4 30 -42 -2 -46 -13 -2 -28 1 -34 7 -7 7 -2 10 16 8 29 -2 38
16 10 21 -26 5 -37 18 -30 36 7 18 67 23 67 6z m158 -2 c23 -23 13 -38 -23
-38 -19 0 -35 -4 -35 -9 0 -13 27 -21 45 -15 8 4 15 1 15 -5 0 -15 -53 -14
-68 1 -28 28 -7 78 33 78 12 0 26 -5 33 -12z m69 -3 c-10 -7 -17 -26 -17 -44
0 -17 -4 -31 -10 -31 -5 0 -10 20 -10 44 0 41 2 44 27 44 24 0 25 -2 10 -13z"/>
<path d="M17150 9309 c0 -27 3 -30 27 -27 49 5 40 57 -9 58 -13 0 -18 -8 -18
-31z"/>
<path d="M16490 9295 c-15 -18 -7 -43 16 -52 24 -9 46 24 33 48 -12 23 -32 24
-49 4z"/>
<path d="M16599 9294 c-9 -11 -10 -20 -3 -32 15 -23 29 -25 48 -7 12 12 13 21
6 36 -13 23 -33 25 -51 3z"/>
<path d="M16927 9304 c-13 -14 -7 -52 10 -58 25 -10 51 20 37 42 -12 19 -36
27 -47 16z"/>
<path d="M17270 9295 c-11 -13 -8 -15 20 -15 28 0 31 2 20 15 -7 8 -16 15 -20
15 -4 0 -13 -7 -20 -15z"/>
<path d="M17370 9296 c-27 -33 18 -72 48 -42 13 13 14 20 6 34 -15 23 -38 26
-54 8z"/>
<path d="M17687 9304 c-14 -14 -6 -24 19 -24 16 0 24 5 22 13 -5 14 -31 21
-41 11z"/>
<path d="M10340 9335 c0 -22 4 -26 23 -23 14 2 22 10 22 23 0 13 -8 21 -22 23
-19 3 -23 -1 -23 -23z"/>
<path d="M10914 9316 c-9 -23 0 -51 16 -51 10 0 15 10 15 29 0 32 -21 47 -31
22z"/>
<path d="M12171 9312 c-14 -26 13 -66 29 -42 13 19 9 52 -7 57 -6 2 -16 -4
-22 -15z"/>
<path d="M12802 9348 c-17 -17 -15 -63 4 -79 22 -18 48 0 52 35 6 45 -29 71
-56 44z"/>
<path d="M13120 9335 c0 -23 4 -26 28 -23 19 2 27 9 27 23 0 14 -8 21 -27 23
-24 3 -28 0 -28 -23z"/>
<path d="M15260 9335 c0 -23 4 -26 28 -23 19 2 27 9 27 23 0 14 -8 21 -27 23
-24 3 -28 0 -28 -23z"/>
<path d="M9657 9316 c-9 -24 4 -57 22 -54 22 4 22 62 0 66 -9 2 -19 -4 -22
-12z"/>
<path d="M9897 9323 c-14 -13 -6 -23 18 -23 18 0 23 4 19 15 -6 16 -26 20 -37
8z"/>
<path d="M10498 9292 c-20 -4 -23 -17 -7 -28 12 -7 33 10 28 23 -2 5 -12 7
-21 5z"/>
<path d="M10724 9316 c-9 -23 0 -51 16 -51 10 0 15 10 15 29 0 32 -21 47 -31
22z"/>
<path d="M10817 9315 c-5 -11 0 -15 19 -15 16 0 24 5 22 13 -7 18 -35 20 -41
2z"/>
<path d="M11054 9286 c-18 -14 -18 -15 0 -22 11 -4 21 -2 27 7 19 31 5 38 -27
15z"/>
<path d="M11614 9286 c-18 -14 -18 -15 0 -22 11 -4 21 -2 27 7 19 31 5 38 -27
15z"/>
<path d="M11767 9324 c-13 -13 -7 -24 14 -24 11 0 19 5 17 12 -5 14 -22 21
-31 12z"/>
<path d="M12267 9323 c-14 -13 -6 -23 18 -23 18 0 23 4 19 15 -6 16 -26 20
-37 8z"/>
<path d="M13248 9292 c-22 -4 -24 -32 -3 -32 9 0 18 7 22 15 7 19 3 22 -19 17z"/>
<path d="M13537 9324 c-13 -13 -7 -24 14 -24 11 0 19 5 17 12 -5 14 -22 21
-31 12z"/>
<path d="M14324 9316 c-9 -23 0 -51 16 -51 10 0 15 10 15 29 0 32 -21 47 -31
22z"/>
<path d="M14414 9304 c-9 -35 12 -56 31 -31 15 21 9 57 -11 57 -7 0 -17 -12
-20 -26z"/>
<path d="M15083 9293 c-18 -7 -16 -33 2 -33 8 0 15 2 15 4 0 2 3 11 6 20 6 16
0 19 -23 9z"/>
<path d="M15384 9316 c-9 -23 0 -51 17 -54 19 -4 32 23 24 49 -7 22 -33 25
-41 5z"/>
<path d="M15484 9316 c-9 -23 0 -51 16 -51 10 0 15 10 15 29 0 32 -21 47 -31
22z"/>
<path d="M9329 7272 c-3 -20 -2 -29 4 -23 5 5 7 19 5 32 -3 20 -5 19 -9 -9z"/>
<path d="M9308 7180 c-7 -24 -3 -38 8 -28 3 4 4 17 2 30 l-3 23 -7 -25z"/>
<path d="M5749 6441 c-19 -15 -24 -29 -24 -66 0 -37 5 -51 24 -66 54 -44 131
-5 131 66 0 71 -77 110 -131 66z"/>
<path d="M3300 6479 l0 -71 66 4 c74 5 94 20 94 70 0 47 -31 68 -100 68 l-60
0 0 -71z"/>
<path d="M1569 6441 c-13 -11 -21 -22 -18 -26 4 -3 40 -5 80 -3 l74 3 -22 23
c-29 28 -82 29 -114 3z"/>
<path d="M2114 6342 c-33 -23 -12 -72 32 -72 31 0 64 29 64 56 0 22 -4 24 -42
24 -24 0 -48 -4 -54 -8z"/>
<path d="M2739 6441 c-13 -11 -21 -22 -18 -26 4 -3 40 -5 80 -3 l74 3 -22 23
c-29 28 -82 29 -114 3z"/>
<path d="M3903 6343 c-7 -2 -13 -18 -13 -34 0 -23 5 -30 27 -35 37 -10 77 15
81 49 3 26 1 27 -40 26 -24 0 -49 -3 -55 -6z"/>
<path d="M4975 6435 c-52 -51 -16 -145 55 -145 56 0 93 64 70 121 -23 54 -84
66 -125 24z"/>
<path d="M5362 6444 c-37 -26 -25 -34 53 -34 41 0 75 4 75 9 0 17 -44 41 -75
41 -17 0 -41 -7 -53 -16z"/>
<path d="M6333 6343 c-7 -2 -13 -18 -13 -34 0 -23 5 -30 27 -35 37 -10 77 15
81 49 3 26 1 27 -40 26 -24 0 -49 -3 -55 -6z"/>
<path d="M10650 6435 c0 -15 4 -24 10 -20 6 3 10 12 10 20 0 8 -4 17 -10 20
-6 4 -10 -5 -10 -20z"/>
<path d="M10847 6184 c-9 -10 2 -24 19 -24 8 0 14 7 14 15 0 15 -21 21 -33 9z"/>
<path d="M1017 5275 c-24 -50 -22 -55 22 -55 l40 0 -15 38 c-23 54 -28 56 -47
17z"/>
<path d="M1433 5204 c-8 -23 12 -38 41 -30 39 10 36 46 -4 46 -19 0 -33 -6
-37 -16z"/>
<path d="M2220 5265 c-16 -20 -16 -61 0 -80 19 -23 62 -14 79 16 13 24 13 29
-2 53 -20 29 -57 35 -77 11z"/>
<path d="M2574 5263 c-17 -17 -17 -18 9 -21 15 -2 39 -2 54 0 26 3 26 4 9 21
-10 9 -26 17 -36 17 -10 0 -26 -8 -36 -17z"/>
<path d="M2950 5265 c-16 -20 -16 -61 0 -80 20 -25 63 -15 78 18 12 24 11 31
-2 53 -19 27 -57 32 -76 9z"/>
<path d="M3567 5262 c-21 -23 -22 -56 -1 -76 32 -32 84 -8 84 39 0 49 -52 71
-83 37z"/>
<path d="M4086 5264 c-32 -32 -10 -94 34 -94 26 0 50 27 50 55 0 28 -24 55
-50 55 -10 0 -26 -7 -34 -16z"/>
<path d="M4433 5204 c-8 -23 12 -38 41 -30 39 10 36 46 -4 46 -19 0 -33 -6
-37 -16z"/>
<path d="M4892 5268 c-21 -21 -13 -28 33 -28 25 0 45 4 45 8 0 15 -24 32 -45
32 -12 0 -26 -5 -33 -12z"/>
<path d="M5195 5260 c-18 -20 -17 -20 34 -20 49 0 51 1 41 20 -6 11 -21 20
-34 20 -13 0 -31 -9 -41 -20z"/>
<path d="M5646 5264 c-32 -32 -10 -94 34 -94 26 0 50 27 50 55 0 28 -24 55
-50 55 -10 0 -26 -7 -34 -16z"/>
<path d="M5996 5264 c-32 -32 -10 -94 34 -94 26 0 50 27 50 55 0 28 -24 55
-50 55 -10 0 -26 -7 -34 -16z"/>
<path d="M6233 5204 c-8 -23 12 -38 41 -30 39 10 36 46 -4 46 -19 0 -33 -6
-37 -16z"/>
<path d="M8077 4903 c-32 -25 -56 -47 -53 -50 2 -3 22 -2 43 1 31 6 42 14 61
46 37 65 29 66 -51 3z"/>
<path d="M4093 4914 c-15 -24 -15 -29 -2 -53 29 -51 89 -35 89 23 0 59 -55 78
-87 30z"/>
<path d="M5296 4924 c-32 -32 -10 -94 34 -94 26 0 50 27 50 55 0 28 -24 55
-50 55 -10 0 -26 -7 -34 -16z"/>
<path d="M6333 4914 c-15 -24 -15 -29 -2 -53 29 -51 89 -35 89 23 0 59 -55 78
-87 30z"/>
<path d="M6946 4924 c-32 -31 -10 -94 33 -94 23 0 51 31 51 58 0 26 -25 52
-50 52 -10 0 -26 -7 -34 -16z"/>
<path d="M1000 4921 c-24 -46 -6 -91 36 -91 47 0 72 61 38 94 -21 22 -61 20
-74 -3z"/>
<path d="M1164 4865 c-8 -21 4 -35 30 -35 25 0 46 17 46 37 0 19 -69 17 -76
-2z"/>
<path d="M1442 4928 c-21 -21 -13 -28 33 -28 25 0 45 4 45 8 0 15 -24 32 -45
32 -12 0 -26 -5 -33 -12z"/>
<path d="M2592 4928 c-21 -21 -13 -28 33 -28 25 0 45 4 45 8 0 15 -24 32 -45
32 -12 0 -26 -5 -33 -12z"/>
<path d="M2862 4928 c-21 -21 -13 -28 33 -28 32 0 45 4 45 14 0 25 -56 36 -78
14z"/>
<path d="M3452 4928 c-17 -17 -15 -73 2 -88 24 -19 59 -8 74 23 12 24 11 31
-2 53 -18 26 -54 32 -74 12z"/>
<path d="M3932 4928 c-21 -21 -13 -28 33 -28 25 0 45 4 45 8 0 15 -24 32 -45
32 -12 0 -26 -5 -33 -12z"/>
<path d="M4282 4928 c-27 -27 -3 -88 34 -88 31 0 54 21 54 48 0 35 -16 52 -50
52 -14 0 -31 -5 -38 -12z"/>
<path d="M4472 4928 c-21 -21 -13 -28 33 -28 25 0 45 4 45 8 0 15 -24 32 -45
32 -12 0 -26 -5 -33 -12z"/>
<path d="M4861 4871 c-20 -13 -5 -41 22 -41 25 0 47 17 47 37 0 15 -47 17 -69
4z"/>
<path d="M5473 4933 c-7 -2 -13 -11 -13 -19 0 -10 13 -14 45 -14 43 0 45 1 35
20 -10 19 -39 25 -67 13z"/>
<path d="M5796 4924 c-32 -32 -10 -94 34 -94 26 0 50 27 50 55 0 28 -24 55
-50 55 -10 0 -26 -7 -34 -16z"/>
<path d="M6591 4871 c-20 -13 -5 -41 22 -41 25 0 47 17 47 37 0 15 -47 17 -69
4z"/>
<path d="M16675 4850 c4 -14 16 -34 26 -45 31 -32 25 8 -7 42 l-25 28 6 -25z"/>
<path d="M17314 4865 c-4 -14 -3 -29 0 -33 9 -8 26 18 26 41 0 26 -19 20 -26
-8z"/>
<path d="M15655 4520 c3 -5 21 -10 40 -10 19 0 37 5 40 10 4 6 -12 10 -40 10
-28 0 -44 -4 -40 -10z"/>
<path d="M1742 4588 c-15 -15 -16 -70 0 -86 20 -20 56 -14 74 12 13 22 14 29
2 53 -15 31 -55 42 -76 21z"/>
<path d="M8810 4114 c0 -8 5 -12 10 -9 6 3 10 10 10 16 0 5 -4 9 -10 9 -5 0
-10 -7 -10 -16z"/>
<path d="M1307 4533 c-17 -16 -6 -43 16 -43 25 0 47 17 47 37 0 13 -51 19 -63
6z"/>
<path d="M1570 4585 c-18 -22 -9 -27 46 -23 46 3 47 4 30 21 -22 21 -59 22
-76 2z"/>
<path d="M2002 4588 c-21 -21 -13 -28 33 -28 43 0 45 1 35 20 -12 22 -49 27
-68 8z"/>
<path d="M2153 4524 c-8 -23 12 -38 41 -30 39 10 36 46 -4 46 -19 0 -33 -6
-37 -16z"/>
<path d="M16660 4160 c0 -5 5 -10 10 -10 6 0 10 5 10 10 0 6 -4 10 -10 10 -5
0 -10 -4 -10 -10z"/>
<path d="M16690 4140 c0 -5 5 -10 10 -10 6 0 10 5 10 10 0 6 -4 10 -10 10 -5
0 -10 -4 -10 -10z"/>
<path d="M2040 3160 c0 -25 4 -31 18 -28 11 2 17 12 17 28 0 16 -6 26 -17 28
-14 3 -18 -3 -18 -28z"/>
<path d="M2200 3175 c0 -9 5 -15 11 -13 6 2 11 8 11 13 0 5 -5 11 -11 13 -6 2
-11 -4 -11 -13z"/>
<path d="M2390 3160 c0 -5 5 -10 11 -10 5 0 7 5 4 10 -3 6 -8 10 -11 10 -2 0
-4 -4 -4 -10z"/>
<path d="M17435 3097 c-4 -10 -5 -21 -1 -24 10 -10 18 4 13 24 -4 17 -4 17
-12 0z"/>
<path d="M16910 2166 c0 -9 5 -16 10 -16 6 0 10 4 10 9 0 6 -4 13 -10 16 -5 3
-10 -1 -10 -9z"/>
</g>
</svg>
