<?xml version="1.0" standalone="no"?>
<!DOCTYPE svg PUBLIC "-//W3C//DTD SVG 20010904//EN"
 "http://www.w3.org/TR/2001/REC-SVG-20010904/DTD/svg10.dtd">
<svg version="1.0" xmlns="http://www.w3.org/2000/svg"
 width="1890.000000pt" height="972.000000pt" viewBox="0 0 1890.000000 972.000000"
 preserveAspectRatio="xMidYMid meet">

<g transform="translate(0.000000,972.000000) scale(0.100000,-0.100000)"
fill="#000000" stroke="none">
<path d="M0 4860 l0 -4860 9450 0 9450 0 0 4860 0 4860 -9450 0 -9450 0 0
-4860z m1866 4346 c21 -24 24 -37 24 -117 l0 -89 -40 0 c-24 0 -40 5 -40 12 0
9 -3 9 -12 0 -18 -18 -93 -15 -116 6 -35 29 -38 67 -8 96 20 21 35 26 76 26
37 0 50 4 48 13 -6 16 -61 21 -86 8 -16 -8 -21 -6 -31 15 -6 14 -11 29 -11 35
0 18 45 29 109 26 55 -3 67 -7 87 -31z m280 2 c16 -15 28 -41 31 -66 l6 -42
-89 0 c-82 -1 -87 -2 -69 -16 14 -11 33 -14 61 -10 34 4 45 1 60 -15 18 -20
18 -21 -5 -40 -32 -26 -115 -26 -159 1 -62 38 -76 117 -30 175 28 36 54 45
116 42 41 -3 59 -10 78 -29z m12082 -126 l3 -62 -37 0 c-21 0 -46 7 -56 17
-17 15 -18 15 -18 0 0 -10 -8 -17 -20 -17 -18 0 -20 7 -20 60 0 54 2 60 21 60
17 0 20 -5 17 -25 -5 -25 5 -34 17 -15 3 6 16 10 27 10 20 0 21 -1 3 -20 -17
-19 -17 -21 0 -40 10 -11 21 -20 24 -20 3 0 5 24 4 52 -1 58 3 71 20 65 7 -2
13 -30 15 -65z m1237 -13 c0 -73 0 -74 -27 -77 -30 -4 -38 12 -13 22 11 4 14
19 12 66 -3 63 -1 73 17 67 7 -2 11 -34 11 -78z m-2963 13 l26 -57 1 58 c1 44
5 57 16 57 8 0 15 -7 15 -15 0 -10 10 -15 30 -15 17 0 33 -7 40 -17 10 -17 10
-17 20 0 7 11 23 17 46 17 27 0 37 -5 46 -26 23 -50 -35 -84 -87 -50 -20 13
-24 13 -29 1 -6 -18 -131 -22 -141 -5 -8 14 -41 13 -65 -2 -31 -20 -33 -4 -6
56 33 74 52 74 88 -2z m1561 43 c-2 -5 -14 -10 -28 -11 -40 -2 -40 -11 0 -24
31 -10 36 -16 33 -38 -3 -25 -7 -27 -47 -27 -29 0 -46 5 -49 14 -3 10 2 13 21
9 40 -8 54 8 18 20 -61 22 -47 75 18 70 20 -2 35 -7 34 -13z m217 -45 c0 -47
-3 -60 -15 -60 -12 0 -15 13 -15 60 0 47 3 60 15 60 12 0 15 -13 15 -60z m50
0 c0 -47 -3 -60 -15 -60 -12 0 -15 13 -15 60 0 47 3 60 15 60 12 0 15 -13 15
-60z m894 44 c30 -30 10 -74 -34 -74 -20 0 -30 -5 -30 -15 0 -8 -7 -15 -15
-15 -12 0 -15 13 -15 60 l0 60 39 0 c23 0 46 -7 55 -16z m1431 -4 c0 -8 -7
-13 -15 -11 -32 8 -43 5 -54 -11 -8 -14 -8 -22 0 -35 11 -17 22 -20 54 -12 8
2 15 -3 15 -11 0 -25 -70 -25 -94 -1 -44 44 -9 105 57 99 25 -2 37 -8 37 -18z
m-3745 0 c0 -5 7 -10 15 -10 8 0 15 -4 15 -9 0 -5 -7 -11 -15 -15 -8 -3 -15
-12 -15 -21 0 -9 7 -18 15 -21 25 -10 17 -26 -12 -22 -24 3 -29 9 -34 43 -4
22 -4 45 -2 52 6 15 33 18 33 3z m2820 0 c0 -5 7 -10 15 -10 8 0 15 -5 15 -10
0 -6 -7 -13 -15 -16 -8 -4 -15 -13 -15 -20 0 -8 7 -17 15 -20 25 -10 17 -26
-12 -22 -24 3 -29 9 -34 43 -4 22 -4 45 -2 52 6 15 33 18 33 3z m1218 -7 c12
-12 13 -18 4 -21 -14 -4 -16 -52 -2 -52 6 0 10 -4 10 -10 0 -5 -11 -10 -25
-10 -19 0 -26 7 -31 28 -3 15 -7 33 -10 40 -11 37 25 55 54 25z m280 0 c12
-12 13 -18 4 -21 -18 -6 -15 -52 3 -52 8 0 15 -5 15 -11 0 -6 -12 -9 -27 -7
-20 2 -29 10 -35 33 -6 26 -12 30 -40 29 -22 -1 -34 -6 -36 -17 -3 -13 4 -17
28 -17 34 0 38 -22 6 -28 -52 -11 -88 27 -66 68 9 17 19 20 57 18 29 -1 48 3
51 10 5 17 20 15 40 -5z m-4436 -35 c2 -18 8 -33 13 -33 6 0 14 15 20 33 14
48 35 41 35 -13 0 -45 0 -45 -34 -45 -56 0 -66 8 -66 51 0 50 27 55 32 7z
m366 -15 c2 -33 0 -43 -12 -43 -9 0 -16 12 -18 33 -2 17 -7 32 -13 32 -5 0
-11 -15 -13 -32 -2 -25 -8 -33 -23 -33 -14 0 -19 7 -19 30 0 20 -5 30 -15 30
-10 0 -15 -10 -15 -30 0 -20 -5 -30 -15 -30 -11 0 -15 12 -15 45 l0 46 78 -3
77 -3 3 -42z m110 35 c23 -23 13 -38 -25 -38 -25 0 -33 -3 -24 -9 7 -5 22 -6
33 -3 15 3 19 1 16 -9 -6 -18 -55 -24 -74 -8 -17 14 -18 51 -2 67 7 7 24 12
38 12 14 0 31 -5 38 -12z m1152 -4 c0 -10 -6 -14 -15 -10 -8 3 -15 2 -15 -3 0
-5 9 -11 21 -14 13 -4 20 -12 17 -24 -2 -14 -12 -18 -41 -18 -20 0 -37 5 -36
10 0 6 9 9 20 8 11 -2 17 1 14 7 -3 6 -12 10 -20 10 -21 0 -28 19 -15 35 17
21 70 20 70 -1z m890 7 c0 -5 -7 -14 -15 -21 -8 -7 -15 -23 -15 -36 0 -15 -6
-24 -15 -24 -11 0 -15 12 -15 45 0 43 1 45 30 45 17 0 30 -4 30 -9z m98 -3
c16 -16 15 -53 -2 -67 -21 -18 -66 -9 -82 14 -12 18 -11 24 2 43 17 24 62 30
82 10z m170 -15 c3 -20 -1 -23 -30 -24 l-33 -1 29 -7 c36 -7 37 -25 2 -29 -35
-5 -66 15 -66 41 0 33 20 48 60 45 28 -2 36 -8 38 -25z m102 12 c11 -13 7 -15
-24 -15 -25 0 -36 -4 -36 -15 0 -10 10 -15 31 -15 20 0 29 -4 27 -12 -6 -17
-56 -22 -74 -7 -17 14 -18 51 -2 67 17 17 63 15 78 -3z m168 3 c-3 -7 -10 -13
-15 -13 -6 0 -15 -3 -19 -7 -4 -5 3 -8 15 -8 17 0 22 -5 19 -22 -2 -19 -10
-24 -40 -26 -29 -2 -38 0 -38 12 0 9 8 17 18 17 16 1 16 2 0 6 -18 4 -24 33
-11 46 12 13 75 8 71 -5z m910 0 c7 -7 12 -21 12 -33 0 -29 -19 -45 -51 -45
-29 0 -59 23 -59 45 0 37 70 61 98 33z m120 -35 c2 -33 0 -43 -12 -43 -9 0
-16 12 -18 33 -2 17 -7 32 -13 32 -5 0 -11 -15 -13 -32 -2 -25 -8 -33 -23 -33
-16 0 -19 7 -19 46 l0 45 48 -3 47 -3 3 -42z m180 -1 l3 -43 -43 3 c-35 2 -43
7 -43 23 0 14 8 21 30 25 18 3 25 8 18 13 -6 4 -18 4 -27 1 -11 -4 -16 -1 -16
11 0 13 8 16 38 13 36 -3 37 -4 40 -46z m-14770 26 c7 -7 12 -24 12 -38 0 -33
-17 -50 -50 -50 -33 0 -50 17 -50 50 0 33 17 50 50 50 14 0 31 -5 38 -12z m52
-2703 l0 -225 -70 0 -70 0 0 225 0 225 70 0 70 0 0 -225z m199 0 l-1 -225 -69
0 -69 0 0 225 0 225 70 0 71 0 -2 -225z m-1059 130 l0 -75 60 0 60 0 0 75 0
75 75 0 75 0 0 -215 0 -215 -72 0 -73 0 0 78 0 77 -62 3 -63 3 0 -81 0 -80
-75 0 -75 0 0 215 0 215 75 0 75 0 0 -75z m1665 38 c-7 -50 -25 -205 -25 -215
0 -5 -24 -8 -54 -8 l-54 0 -6 38 c-3 20 -8 60 -11 87 -3 28 -8 69 -11 93 l-5
42 86 0 85 0 -5 -37z m-1069 -79 c49 -23 77 -67 82 -130 l4 -53 -113 -3 c-105
-3 -112 -4 -84 -16 23 -10 38 -11 65 -3 33 10 37 8 69 -23 18 -19 30 -39 27
-45 -16 -26 -73 -44 -133 -44 -75 1 -125 23 -167 76 -25 31 -30 47 -30 90 0
59 23 109 59 133 70 46 149 52 221 18z m790 0 c84 -40 118 -144 73 -224 -34
-61 -95 -94 -174 -94 -72 0 -112 20 -159 77 -26 32 -30 46 -30 90 1 29 8 67
17 84 17 32 66 68 115 84 37 12 114 4 158 -17z m13872 -20 c63 -31 107 -89
122 -158 8 -36 10 -534 8 -1716 l-3 -1665 -22 -40 c-25 -47 -64 -85 -113 -111
-34 -18 -98 -19 -1700 -22 -1194 -2 -1680 0 -1717 8 -69 15 -127 59 -158 120
l-25 49 0 1693 c0 1616 1 1695 19 1733 20 44 78 100 125 121 26 11 331 13
1722 14 l1690 0 52 -26z m-13605 -196 c17 -23 18 -29 6 -54 -28 -59 -103 -65
-142 -12 -18 24 -18 30 -7 57 22 55 105 60 143 9z m911 -364 c31 -31 6 -74
-43 -74 -32 0 -51 16 -51 45 0 12 5 26 12 33 17 17 64 15 82 -4z m1576 -189
l0 -196 -82 0 c-46 0 -100 0 -121 -1 -130 -1 -175 194 -63 267 28 19 89 24
124 12 21 -8 22 -6 22 52 l0 61 60 0 60 0 0 -195z m-782 8 c39 -93 74 -176 78
-185 5 -16 -1 -18 -55 -18 -57 0 -61 2 -76 30 -15 29 -18 30 -81 30 -64 0 -66
-1 -77 -30 -11 -29 -14 -30 -74 -30 -35 0 -63 3 -63 6 0 4 15 41 34 83 18 42
53 122 77 179 l44 102 60 0 61 0 72 -167z m-3358 52 c34 -58 64 -105 66 -105
2 0 31 47 65 105 61 105 61 105 100 105 l39 0 0 -180 0 -180 -40 0 -40 0 0 96
c0 52 -4 93 -9 90 -5 -3 -27 -37 -51 -76 -36 -62 -45 -71 -67 -68 -20 2 -35
19 -65 68 -22 36 -44 69 -49 75 -5 5 -9 -28 -9 -88 l0 -97 -40 0 -40 0 0 180
0 180 38 0 c39 0 39 -1 102 -105z m3727 10 c35 -23 43 -54 43 -166 l0 -99 -60
0 -59 0 -3 88 c-3 83 -4 87 -27 90 -34 5 -41 -12 -41 -100 l0 -78 -62 0 -63 0
2 123 c1 67 2 130 2 140 1 14 11 17 56 17 30 0 55 -4 55 -10 0 -5 15 -2 33 6
37 16 88 12 124 -11z m663 -30 c0 -54 0 -55 -29 -55 -44 0 -61 -31 -61 -112
l0 -68 -60 0 -60 0 0 140 0 140 60 0 c33 0 60 -4 60 -10 0 -5 15 -3 33 5 53
23 57 20 57 -40z m261 30 c39 -21 60 -56 67 -110 l5 -45 -97 0 c-67 0 -95 -3
-90 -11 3 -6 27 -9 53 -8 49 4 101 -21 101 -47 0 -43 -150 -63 -210 -28 -54
32 -75 68 -74 130 0 47 4 59 30 85 58 57 143 71 215 34z m300 14 c48 -16 88
-57 100 -102 17 -63 12 -67 -96 -67 -69 0 -94 -3 -89 -11 4 -7 26 -10 59 -6
49 5 55 3 81 -24 30 -32 30 -32 -20 -60 -10 -6 -44 -11 -76 -11 -104 0 -170
55 -170 142 0 50 20 91 56 115 53 34 101 42 155 24z m349 -14 c47 -24 60 -61
60 -170 l0 -95 -55 0 c-30 0 -55 4 -55 9 0 6 -15 4 -34 -4 -80 -33 -168 27
-150 102 10 37 59 63 122 63 37 0 51 3 46 11 -4 8 -27 10 -64 6 -57 -5 -58 -5
-76 29 -10 18 -15 36 -11 40 4 4 28 13 54 20 55 16 120 11 163 -11z m-4870
-71 c36 -96 35 -97 77 13 l28 73 47 0 47 0 -50 -112 c-28 -62 -60 -136 -71
-165 -11 -28 -31 -61 -44 -73 -27 -26 -96 -37 -136 -21 -25 9 -26 13 -17 41
10 28 14 30 48 24 27 -4 40 -2 51 10 14 17 11 24 -84 239 l-26 57 49 0 48 0
33 -86z m450 76 c0 -6 9 -6 26 0 39 15 107 12 133 -6 37 -26 51 -74 51 -174
l0 -90 -45 0 -45 0 0 83 c0 91 -15 127 -53 127 -49 0 -67 -39 -67 -141 l0 -69
-39 0 -39 0 -7 93 c-5 73 -3 167 4 185 3 7 81 0 81 -8z m477 -9 c38 -24 50
-71 45 -183 l-4 -78 -39 0 c-21 0 -39 5 -39 10 0 7 -6 7 -19 0 -11 -5 -40 -10
-65 -10 -85 0 -133 78 -83 136 23 26 33 30 98 34 69 5 72 6 55 23 -20 19 -77
23 -108 6 -18 -9 -24 -8 -35 7 -35 47 -1 72 102 73 43 1 69 -5 92 -18z m193 9
c0 -6 9 -6 26 0 37 14 91 12 123 -5 26 -13 33 -13 61 1 44 22 124 14 153 -15
20 -19 22 -34 25 -136 l4 -115 -46 0 -46 0 0 93 c0 99 -7 117 -46 117 -39 0
-54 -36 -54 -127 l0 -83 -45 0 -45 0 0 86 c0 96 -10 124 -45 124 -44 0 -55
-23 -55 -121 l0 -89 -45 0 -45 0 0 140 0 140 40 0 c22 0 40 -4 40 -10z m667
-7 c37 -17 72 -76 73 -120 0 -22 -3 -23 -105 -23 -58 0 -105 -3 -105 -7 0 -3
7 -15 17 -25 18 -20 73 -24 105 -7 17 9 25 7 45 -13 l24 -25 -28 -18 c-35 -24
-123 -31 -163 -15 -17 7 -44 28 -60 47 -37 42 -41 109 -10 161 36 59 134 80
207 45z m353 -123 l0 -140 -45 0 -45 0 0 140 0 140 45 0 45 0 0 -140z m272
122 c8 -8 7 -19 -1 -41 -12 -27 -15 -29 -41 -19 -39 13 -95 7 -95 -12 0 -9 19
-18 58 -26 70 -14 97 -36 97 -79 0 -69 -99 -105 -205 -75 -49 14 -51 17 -33
55 9 20 16 24 32 18 38 -14 121 -10 121 6 0 9 -22 19 -65 27 -88 18 -120 59
-90 114 20 37 60 51 138 47 40 -2 78 -9 84 -15z m-2022 -702 l0 -190 -45 0
c-25 0 -45 5 -45 10 0 7 -6 7 -19 0 -29 -15 -98 -12 -132 5 -89 47 -93 193 -6
245 35 22 106 26 138 10 18 -10 19 -7 19 50 l0 60 45 0 45 0 0 -190z m307 48
c-4 -66 -7 -147 -7 -180 l0 -58 -45 0 -45 0 0 180 0 180 52 0 51 0 -6 -122z
m133 47 l0 -75 -35 0 c-19 0 -35 3 -35 8 0 4 -3 37 -6 75 l-6 67 41 0 41 0 0
-75z m-1203 -25 c40 -24 53 -67 53 -177 l0 -83 -45 0 c-25 0 -45 5 -45 10 0 7
-7 7 -21 -1 -32 -17 -117 -6 -141 18 -28 29 -28 87 0 115 16 17 38 23 93 27
69 6 72 7 55 24 -20 19 -77 23 -107 6 -17 -8 -23 -7 -35 8 -21 28 -17 43 19
58 48 21 136 19 174 -5z m203 10 c0 -7 6 -7 19 0 26 14 94 13 126 -2 43 -19
55 -56 55 -168 l0 -100 -45 0 -45 0 0 93 c0 101 -7 117 -51 117 -44 0 -59 -32
-59 -127 l0 -83 -45 0 -45 0 0 140 0 140 45 0 c25 0 45 -5 45 -10z m1140 0 c0
-7 6 -7 19 0 29 15 98 12 132 -5 27 -14 32 -14 51 0 26 17 96 20 131 4 44 -20
57 -58 57 -168 l0 -101 -45 0 -45 0 0 93 c0 99 -7 117 -46 117 -43 0 -54 -24
-54 -121 l0 -89 -45 0 -45 0 0 79 c0 97 -11 131 -42 131 -13 0 -29 -4 -37 -9
-16 -10 -30 -77 -31 -148 l0 -53 -40 0 c-22 0 -40 1 -41 3 0 1 -3 64 -6 140
l-5 137 46 0 c25 0 46 -5 46 -10z m821 -28 c28 -31 29 -36 29 -137 l0 -105
-40 0 c-22 0 -40 4 -40 10 0 6 -9 6 -26 0 -60 -23 -134 -6 -153 37 -34 75 10
123 114 123 30 0 55 4 55 8 0 30 -63 42 -114 22 -21 -8 -28 -6 -41 13 -21 30
-19 36 18 53 21 9 56 13 101 11 63 -3 71 -5 97 -35z m-1571 -677 l0 -195 -60
0 -60 0 -1 173 c0 94 -2 182 -3 195 -3 21 1 22 61 22 l63 0 0 -195z m162 179
c2 -10 2 -97 0 -195 l-3 -179 -59 0 -60 0 0 195 0 195 59 0 c47 0 60 -3 63
-16z m1588 -74 c0 -49 3 -90 8 -90 4 0 20 16 35 35 27 35 29 35 105 35 l76 0
-57 -58 c-31 -32 -57 -62 -57 -66 0 -5 27 -42 61 -83 l60 -73 -70 0 c-70 0
-72 1 -107 40 -20 22 -40 37 -45 34 -5 -3 -9 -21 -9 -40 l0 -34 -60 0 -60 0 0
195 0 195 60 0 60 0 0 -90z m1450 31 l0 -59 36 10 c29 7 46 6 80 -7 125 -48
113 -240 -18 -276 -21 -5 -44 -7 -50 -3 -6 4 -47 6 -90 5 l-78 -1 -1 172 c0
95 -2 183 -3 196 -3 21 1 22 61 22 l63 0 0 -59z m1922 43 c2 -10 2 -97 0 -195
l-3 -179 -59 0 -60 0 0 195 0 195 59 0 c47 0 60 -3 63 -16z m-4456 -19 c28
-12 35 -19 29 -32 -4 -10 -12 -31 -17 -46 -8 -21 -15 -26 -27 -22 -68 28 -131
29 -131 1 0 -8 23 -18 59 -26 102 -21 143 -58 136 -123 -8 -73 -69 -110 -180
-110 -63 0 -145 21 -145 38 0 3 9 23 20 45 l20 39 35 -14 c47 -20 125 -20 125
0 0 8 -17 19 -42 25 -83 21 -105 31 -126 53 -48 52 -32 131 35 166 47 25 157
28 209 6z m-1175 -5 c1 -5 2 -17 2 -25 0 -57 3 -55 -88 -55 l-85 0 0 -30 0
-30 75 0 75 0 0 -45 0 -45 -75 0 -75 0 0 -60 0 -60 -60 0 -60 0 0 180 0 180
145 0 c89 0 145 -4 146 -10z m2797 -75 c13 -44 27 -83 31 -88 4 -4 20 34 36
83 l29 91 60 -3 60 -3 26 -87 c14 -48 28 -89 31 -92 3 -3 18 37 33 89 l29 95
62 0 62 0 -59 -180 -59 -180 -67 0 -68 0 -23 85 c-14 47 -27 85 -31 85 -3 0
-18 -38 -34 -85 l-28 -86 -65 3 -66 3 -34 100 c-18 55 -44 135 -58 178 l-24
78 66 -3 67 -3 24 -80z m1587 66 c104 -47 138 -177 70 -266 -44 -59 -75 -69
-217 -73 l-128 -4 0 181 0 181 118 0 c92 0 126 -4 157 -19z m-2995 -31 c0 -35
3 -40 24 -40 19 0 25 -6 29 -32 6 -44 -1 -58 -29 -58 -22 0 -24 -4 -24 -45 0
-41 2 -45 24 -45 18 0 27 -8 35 -31 6 -18 11 -38 11 -44 0 -19 -64 -27 -109
-15 -58 15 -81 50 -81 121 0 52 -2 59 -20 59 -17 0 -20 7 -20 45 0 33 4 45 15
45 10 0 17 14 21 40 l7 40 58 0 59 0 0 -40z m328 -44 c47 -24 64 -81 56 -182
l-7 -84 -53 0 c-30 0 -54 4 -54 9 0 6 -14 5 -32 -2 -18 -7 -40 -12 -48 -11 -8
1 -23 2 -33 3 -30 2 -67 47 -67 81 0 63 38 90 127 90 30 0 42 4 37 11 -4 8
-27 10 -64 6 -57 -5 -57 -5 -73 28 -12 26 -13 36 -4 43 40 33 158 37 215 8z
m346 -4 c16 -9 35 -27 43 -39 14 -21 13 -23 -31 -44 -43 -21 -46 -22 -64 -6
-29 26 -58 21 -72 -12 -22 -55 27 -95 70 -56 15 13 21 13 59 -2 51 -20 52 -46
2 -80 -71 -48 -159 -38 -223 27 -34 33 -38 43 -38 86 0 55 25 105 62 125 59
32 139 32 192 1z m1387 17 c49 -15 88 -57 99 -104 14 -62 9 -65 -97 -65 -67 0
-92 -3 -87 -11 4 -7 26 -10 59 -6 49 5 55 3 81 -24 30 -32 30 -32 -21 -61 -28
-16 -127 -13 -162 6 -53 27 -83 72 -83 122 0 74 29 115 97 140 47 16 66 17
114 3z m1308 -17 c39 -29 62 -66 68 -110 l6 -42 -104 0 c-80 -1 -100 -3 -85
-11 10 -6 38 -9 62 -6 37 4 46 1 68 -22 14 -15 26 -30 26 -34 0 -16 -68 -39
-119 -40 -97 -1 -161 49 -169 132 -9 100 71 168 183 155 22 -2 51 -13 64 -22z
m652 2 c39 -20 69 -70 69 -116 l0 -38 -96 0 c-68 0 -93 -3 -88 -11 4 -7 26
-10 59 -6 48 5 55 3 79 -22 26 -27 26 -28 7 -45 -26 -23 -113 -36 -163 -23
-50 12 -103 64 -112 107 -25 128 120 219 245 154z m513 -2 c48 -28 71 -68 71
-122 0 -84 -64 -142 -158 -143 -100 -1 -167 56 -167 144 0 50 27 101 62 120
59 32 139 32 192 1z m373 1 c58 -38 75 -140 35 -206 -16 -24 -37 -41 -67 -53
-42 -16 -57 -16 -97 1 -16 6 -18 1 -18 -49 l0 -56 -60 0 -60 0 0 190 0 190 80
-1 c44 -2 83 1 87 5 11 10 71 -2 100 -21z m324 1 c39 -20 69 -70 69 -116 l0
-38 -96 0 c-68 0 -93 -3 -88 -11 4 -7 26 -10 59 -6 48 5 55 3 79 -22 26 -27
26 -28 7 -45 -43 -39 -163 -37 -220 3 -31 22 -61 76 -61 110 0 31 24 83 48
104 51 46 138 55 203 21z m307 -32 c3 -52 3 -52 -27 -52 -44 0 -61 -31 -61
-112 l0 -68 -60 0 -60 0 0 140 0 140 60 0 c33 0 60 -4 60 -10 0 -5 15 -3 33 5
17 8 37 13 42 11 6 -1 11 -26 13 -54z m-6778 -37 c0 -70 3 -87 16 -92 36 -14
49 10 52 96 l3 81 59 0 60 0 0 -140 0 -140 -61 0 c-33 0 -58 4 -55 9 3 5 -13
2 -35 -6 -41 -14 -64 -12 -107 10 -40 19 -52 57 -52 167 l0 100 60 0 60 0 0
-85z m4822 20 c12 -36 26 -65 30 -65 3 0 17 28 30 63 l24 62 58 3 c68 4 68 20
-3 -154 l-48 -119 -58 -3 c-32 -2 -62 1 -66 5 -4 4 -33 68 -63 141 l-54 132
63 0 63 0 24 -65z m-4092 -60 l0 -45 -80 0 -80 0 0 45 0 45 80 0 80 0 0 -45z
m6183 -57 c9 -11 17 -28 17 -38 0 -25 -31 -58 -60 -65 -35 -8 -80 27 -80 63 0
35 10 49 40 61 32 12 60 5 83 -21z m8567 -225 c-75 -8 -81 -11 -75 -44 4 -21
2 -30 -6 -27 -6 2 -13 20 -15 41 l-3 37 67 -2 c37 0 51 -3 32 -5z m0 -102 c12
-24 4 -48 -21 -61 -31 -17 -39 -11 -41 28 -1 36 -1 36 -5 5 -6 -43 -23 -42
-23 0 0 42 5 47 46 47 23 0 37 -6 44 -19z m17 -91 c14 0 14 -3 -2 -20 -19 -20
-41 -28 -30 -10 4 6 -7 10 -24 10 -21 0 -31 -5 -31 -15 0 -8 -4 -15 -10 -15
-5 0 -10 11 -10 25 0 23 4 25 40 25 25 0 40 5 41 13 0 10 2 10 6 0 2 -7 12
-13 20 -13z m13 -70 c0 -5 -9 -10 -20 -10 -11 0 -20 5 -20 10 0 6 9 10 20 10
11 0 20 -4 20 -10z m-99 -52 l1 -33 14 33 c19 43 48 40 52 -6 2 -19 -1 -32 -8
-32 -7 0 -10 6 -7 13 3 8 2 19 -3 26 -5 9 -11 3 -18 -18 -12 -35 -36 -41 -51
-13 -11 20 -4 62 10 62 5 0 9 -15 10 -32z m-14291 -28 c0 -5 -7 -10 -15 -10
-8 0 -15 5 -15 10 0 6 7 10 15 10 8 0 15 -4 15 -10z m660 -79 l0 -89 -42 0
c-60 -2 -74 5 -87 36 -23 56 21 104 79 89 17 -4 20 0 20 24 0 19 5 29 15 29
12 0 15 -17 15 -89z m120 52 c0 -29 3 -34 12 -25 13 13 57 16 75 4 22 -14 33
-60 21 -87 -13 -29 -29 -35 -85 -33 l-43 2 0 88 c0 52 4 88 10 88 6 0 10 -17
10 -37z m1100 9 c0 -26 2 -28 35 -24 51 6 65 -11 65 -74 0 -30 -4 -54 -10 -54
-5 0 -10 18 -10 39 0 55 -8 71 -36 71 -28 0 -44 -26 -44 -74 0 -20 -4 -36 -10
-36 -6 0 -10 37 -10 90 0 53 4 90 10 90 6 0 10 -13 10 -28z m170 18 c0 -5 -7
-10 -15 -10 -8 0 -15 5 -15 10 0 6 7 10 15 10 8 0 15 -4 15 -10z m540 -19 c0
-28 2 -29 35 -24 50 8 65 -9 65 -73 0 -30 -4 -54 -10 -54 -5 0 -10 18 -10 39
0 55 -8 71 -36 71 -27 0 -44 -31 -44 -81 0 -16 -4 -29 -10 -29 -6 0 -10 37
-10 90 0 53 4 90 10 90 6 0 10 -13 10 -29z m470 1 c0 -26 3 -28 33 -25 47 5
60 -8 65 -71 4 -46 2 -56 -11 -56 -12 0 -17 13 -19 53 -3 46 -6 52 -27 55 -30
5 -41 -12 -41 -65 0 -32 -4 -43 -15 -43 -12 0 -15 17 -15 90 0 73 3 90 15 90
10 0 15 -10 15 -28z m890 -61 l0 -88 -50 -2 c-79 -1 -114 50 -74 108 13 19 24
22 55 19 37 -3 39 -2 39 24 0 18 5 28 15 28 12 0 15 -17 15 -89z m490 79 c0
-5 -7 -10 -15 -10 -8 0 -15 5 -15 10 0 6 7 10 15 10 8 0 15 -4 15 -10z m150
-19 c0 -28 2 -29 35 -24 50 8 65 -9 65 -73 0 -30 -4 -54 -10 -54 -5 0 -10 18
-10 39 0 55 -8 71 -36 71 -27 0 -44 -31 -44 -81 0 -16 -4 -29 -10 -29 -6 0
-10 37 -10 90 0 53 4 90 10 90 6 0 10 -13 10 -29z m280 20 c0 -5 -10 -11 -22
-13 -28 -4 -36 -28 -9 -28 12 0 21 -4 21 -10 0 -5 -9 -10 -20 -10 -18 0 -20
-7 -20 -55 0 -30 -4 -55 -10 -55 -5 0 -10 23 -10 51 0 38 -5 55 -17 65 -17 13
-17 13 0 14 10 0 17 8 17 18 0 10 3 22 7 25 10 10 63 8 63 -2z m1050 -79 l0
-88 -47 -2 c-57 -2 -83 17 -83 63 0 45 30 69 75 62 33 -5 35 -4 35 24 0 16 5
29 10 29 6 0 10 -36 10 -88z m230 -1 l0 -88 -54 -2 c-46 -1 -57 3 -70 21 -20
29 -20 58 0 87 13 19 24 22 55 19 37 -3 39 -2 39 24 0 18 5 28 15 28 12 0 15
-17 15 -89z m470 -1 c0 -53 -4 -90 -10 -90 -6 0 -10 37 -10 90 0 53 4 90 10
90 6 0 10 -37 10 -90z m1100 61 c0 -28 2 -29 38 -24 48 6 72 -15 72 -62 0 -49
-22 -65 -81 -63 l-49 2 0 88 c0 52 4 88 10 88 6 0 10 -13 10 -29z m1060 -61
c0 -53 -4 -90 -10 -90 -6 0 -10 37 -10 90 0 53 4 90 10 90 6 0 10 -37 10 -90z
m-10320 -5 c0 -69 -3 -85 -15 -85 -12 0 -15 16 -15 85 0 69 3 85 15 85 12 0
15 -16 15 -85z m60 55 c0 -16 -4 -30 -10 -30 -5 0 -10 14 -10 30 0 17 5 30 10
30 6 0 10 -13 10 -30z m9690 -55 c0 -69 -3 -85 -15 -85 -12 0 -15 16 -15 85 0
69 3 85 15 85 12 0 15 -16 15 -85z m60 55 c0 -16 -4 -30 -10 -30 -5 0 -10 14
-10 30 0 17 5 30 10 30 6 0 10 -13 10 -30z m-8370 5 c0 -8 9 -15 20 -15 11 0
20 -4 20 -10 0 -5 -9 -10 -20 -10 -17 0 -20 -7 -20 -45 0 -38 3 -45 20 -45 11
0 20 -4 20 -10 0 -5 -11 -10 -25 -10 -29 0 -45 26 -45 74 0 19 -6 37 -12 40
-10 5 -10 7 0 12 6 3 12 12 12 20 0 8 7 14 15 14 8 0 15 -7 15 -15z m430 0 c0
-8 7 -15 15 -15 8 0 15 -4 15 -10 0 -5 -7 -10 -15 -10 -11 0 -15 -12 -15 -45
0 -38 3 -45 20 -45 11 0 20 -4 20 -10 0 -14 -43 -13 -58 2 -7 7 -12 31 -12 54
0 24 -5 45 -12 48 -10 5 -10 7 0 12 6 3 12 12 12 20 0 8 7 14 15 14 8 0 15 -7
15 -15z m1460 0 c0 -8 9 -15 20 -15 11 0 20 -4 20 -10 0 -5 -9 -10 -20 -10
-17 0 -20 -7 -20 -45 0 -38 3 -45 20 -45 11 0 20 -4 20 -10 0 -5 -13 -10 -29
-10 -33 0 -41 14 -41 70 0 68 -24 55 -61 -33 -32 -77 -37 -82 -67 -85 -22 -2
-32 1 -32 11 0 10 8 13 25 9 21 -4 25 -1 25 21 0 13 -10 47 -22 75 -22 50 -24
51 -48 39 -21 -10 -26 -21 -28 -60 -2 -33 -7 -47 -18 -47 -11 0 -14 15 -14 64
l0 63 54 2 54 1 19 -45 c10 -25 21 -45 24 -45 4 0 14 20 23 45 14 36 22 45 42
45 15 0 24 6 24 15 0 8 7 15 15 15 8 0 15 -7 15 -15z m710 0 c0 -8 9 -15 20
-15 11 0 20 -4 20 -10 0 -5 -9 -10 -20 -10 -17 0 -20 -7 -20 -45 0 -42 2 -45
27 -45 19 0 24 -3 16 -11 -6 -6 -21 -9 -34 -7 -21 3 -24 9 -27 56 -2 37 -7 52
-18 52 -7 0 -14 5 -14 10 0 6 7 10 15 10 8 0 15 7 15 15 0 8 5 15 10 15 6 0
10 -7 10 -15z m400 0 c0 -8 9 -15 20 -15 11 0 20 -4 20 -10 0 -5 -9 -10 -20
-10 -17 0 -20 -7 -20 -45 0 -42 2 -45 27 -45 19 0 24 -3 16 -11 -6 -6 -21 -9
-34 -7 -21 3 -24 9 -27 52 -2 32 -9 54 -20 63 -16 12 -16 12 1 13 9 0 17 7 17
15 0 8 5 15 10 15 6 0 10 -7 10 -15z m650 0 c0 -8 7 -15 15 -15 8 0 15 -4 15
-10 0 -5 -7 -10 -15 -10 -11 0 -15 -12 -15 -45 0 -38 3 -45 20 -45 11 0 20 -4
20 -10 0 -5 -13 -10 -29 -10 -33 0 -41 14 -41 70 0 21 -6 41 -12 44 -10 5 -10
7 0 12 6 3 12 12 12 20 0 8 7 14 15 14 8 0 15 -7 15 -15z m950 0 c0 -8 9 -15
20 -15 11 0 20 -4 20 -10 0 -5 -9 -10 -20 -10 -17 0 -20 -7 -20 -45 0 -42 2
-45 27 -45 19 0 24 -3 16 -11 -6 -6 -21 -9 -34 -7 -21 3 -24 9 -27 52 -2 32
-9 54 -20 63 -16 12 -16 12 1 13 9 0 17 7 17 15 0 8 5 15 10 15 6 0 10 -7 10
-15z m830 0 c0 -8 9 -15 20 -15 11 0 20 -4 20 -10 0 -5 -9 -10 -20 -10 -17 0
-20 -7 -20 -41 0 -32 4 -42 20 -46 30 -8 24 -25 -7 -21 -26 3 -28 7 -31 56 -2
37 -7 52 -18 52 -7 0 -14 5 -14 10 0 6 7 10 15 10 8 0 15 7 15 15 0 8 5 15 10
15 6 0 10 -7 10 -15z m2240 0 c0 -8 7 -15 15 -15 8 0 15 -4 15 -10 0 -5 -7
-10 -15 -10 -11 0 -15 -12 -15 -45 0 -38 3 -45 20 -45 11 0 20 -4 20 -10 0 -5
-13 -10 -29 -10 -33 0 -41 14 -41 70 0 21 -6 41 -12 44 -10 5 -10 7 0 12 6 3
12 12 12 20 0 8 7 14 15 14 8 0 15 -7 15 -15z m480 0 c0 -8 9 -15 20 -15 11 0
20 -4 20 -10 0 -5 -9 -10 -20 -10 -17 0 -20 -7 -20 -45 0 -38 3 -45 20 -45 11
0 20 -4 20 -10 0 -5 -11 -10 -25 -10 -29 0 -45 26 -45 74 0 19 -6 37 -12 40
-10 5 -10 7 0 12 6 3 12 12 12 20 0 8 7 14 15 14 8 0 15 -7 15 -15z m-9394
-26 c8 -7 14 -7 19 1 8 12 55 13 74 1 8 -5 16 -32 19 -65 4 -47 2 -56 -12 -56
-13 0 -16 11 -16 50 0 38 -4 52 -16 57 -30 11 -49 -11 -52 -61 -4 -56 -22 -62
-22 -7 0 55 -8 71 -36 71 -27 0 -44 -31 -44 -81 0 -16 -4 -29 -10 -29 -6 0
-10 28 -10 63 l0 63 47 2 c25 1 52 -3 59 -9z m236 -40 l22 -51 22 51 c13 28
28 51 35 51 6 0 9 -6 6 -12 -39 -93 -52 -118 -62 -118 -7 0 -24 27 -39 61 -30
69 -30 69 -15 69 5 0 20 -23 31 -51z m200 34 c10 -9 18 -24 18 -35 0 -15 -8
-18 -50 -18 -37 0 -50 -4 -50 -15 0 -18 40 -29 70 -20 16 5 21 3 18 -6 -8 -24
-74 -23 -97 0 -59 59 29 150 91 94z m118 7 c0 -6 -7 -10 -15 -10 -20 0 -35
-32 -35 -74 0 -20 -4 -36 -10 -36 -6 0 -10 28 -10 63 l0 64 35 1 c19 1 35 -3
35 -8z m54 -42 l23 -53 19 53 c10 28 24 52 31 52 18 0 18 1 -26 -95 -34 -74
-43 -85 -65 -85 -14 0 -28 5 -31 10 -4 6 5 10 20 10 38 0 41 23 11 91 -30 68
-30 69 -16 69 6 0 21 -24 34 -52z m265 38 c8 -9 8 -16 2 -20 -5 -4 -12 -2 -16
4 -3 5 -17 10 -31 10 -32 0 -51 -38 -34 -70 10 -19 17 -21 52 -16 36 6 40 5
28 -9 -19 -23 -76 -19 -94 7 -21 29 -20 67 1 90 19 22 76 24 92 4z m131 -5 c5
-11 10 -40 10 -66 l0 -46 -52 3 c-47 3 -53 6 -56 26 -5 32 15 52 49 52 20 0
29 5 29 16 0 14 -7 16 -40 11 -38 -5 -55 5 -27 16 31 13 77 6 87 -12z m162 2
c23 -20 24 -76 1 -98 -12 -12 -27 -16 -55 -12 -36 5 -38 4 -38 -24 0 -16 -4
-29 -10 -29 -6 0 -10 36 -10 88 l0 88 47 2 c32 1 53 -4 65 -15z m168 -48 c0
-37 -4 -65 -10 -65 -6 0 -10 28 -10 65 0 37 4 65 10 65 6 0 10 -28 10 -65z
m65 13 l19 -53 23 53 c12 28 27 52 33 52 14 0 14 0 -16 -69 -15 -34 -32 -61
-39 -61 -7 0 -24 27 -39 61 -30 70 -30 69 -13 69 7 0 22 -24 32 -52z m193 40
c7 -7 12 -35 12 -63 l0 -52 -41 -1 c-46 -2 -69 11 -69 39 0 22 29 39 65 39 40
0 25 25 -16 26 -51 2 -55 3 -39 14 21 14 74 12 88 -2z m242 -8 c36 -36 26 -50
-35 -50 -54 0 -55 -1 -44 -21 9 -18 17 -20 50 -15 38 6 54 -6 23 -18 -53 -20
-104 7 -104 57 0 61 67 90 110 47z m455 -32 l19 -53 23 53 c12 28 27 52 33 52
5 0 10 -2 10 -4 0 -10 -63 -152 -73 -164 -12 -15 -64 -12 -59 3 2 6 12 9 23 7
31 -5 33 24 5 89 -30 70 -30 69 -13 69 7 0 22 -24 32 -52z m267 35 c10 -9 18
-24 18 -35 0 -15 -8 -18 -50 -18 -27 0 -50 -4 -50 -9 0 -19 31 -33 61 -27 22
4 29 2 27 -7 -6 -17 -69 -21 -90 -5 -10 7 -21 27 -24 44 -11 59 63 98 108 57z
m64 -28 c9 -25 20 -45 24 -45 4 0 15 20 24 45 10 25 24 45 32 45 12 0 12 -6
-2 -37 -9 -21 -21 -51 -27 -66 -7 -15 -18 -26 -26 -25 -20 4 -75 128 -56 128
7 0 21 -20 31 -45z m208 23 c28 -39 21 -48 -39 -48 -54 0 -55 -1 -44 -21 9
-18 17 -20 51 -15 30 5 39 3 36 -6 -3 -7 -23 -14 -45 -16 -33 -2 -44 1 -57 20
-35 50 -8 108 50 108 23 0 38 -7 48 -22z m556 -43 c0 -37 -4 -65 -10 -65 -6 0
-10 28 -10 65 0 37 4 65 10 65 6 0 10 -28 10 -65z m154 49 c21 -21 22 -114 2
-114 -11 0 -16 15 -18 53 -3 46 -6 52 -27 55 -30 5 -41 -12 -41 -65 0 -32 -4
-43 -15 -43 -12 0 -15 14 -15 64 l0 63 49 2 c33 0 55 -5 65 -15z m176 -58 c0
-51 -4 -74 -17 -88 -16 -18 -66 -24 -97 -12 -29 11 -7 22 33 17 33 -5 41 -2
51 16 10 20 9 21 -14 15 -62 -15 -108 32 -87 88 12 32 23 37 84 35 l47 -1 0
-70z m460 48 c6 -14 10 -43 10 -65 l0 -39 -50 0 c-38 0 -52 4 -60 19 -13 25
-13 27 6 45 8 9 29 16 46 16 19 0 28 4 25 13 -2 7 -19 12 -41 11 -34 -1 -44 5
-29 19 3 4 24 7 45 7 32 0 40 -4 48 -26z m460 7 c5 -11 10 -40 10 -66 l0 -46
-52 3 c-47 3 -53 6 -56 26 -5 32 15 52 50 52 19 0 28 4 25 13 -2 7 -19 12 -41
11 -35 -1 -48 9 -23 19 31 13 77 6 87 -12z m132 5 c-1 -6 -16 -10 -34 -10 -45
-1 -46 -22 -1 -33 29 -7 39 -14 41 -32 2 -13 -2 -28 -10 -32 -18 -12 -70 -11
-88 1 -16 11 -12 12 39 14 47 1 49 20 4 32 -38 9 -51 29 -39 60 4 11 18 14 48
12 24 -2 42 -7 40 -12z m290 -3 c22 -20 23 -70 1 -95 -23 -26 -78 -24 -97 4
-33 47 -7 108 46 108 17 0 40 -7 50 -17z m378 -3 c41 -41 10 -110 -47 -110
-34 0 -46 8 -62 38 -34 65 56 125 109 72z m130 -36 l17 -49 17 53 c10 30 24
52 32 52 8 0 14 -4 14 -9 0 -5 7 -26 16 -47 l16 -39 18 45 c9 24 23 46 30 48
7 3 10 -1 7 -9 -3 -8 -14 -38 -23 -66 -10 -29 -23 -53 -30 -53 -6 0 -20 21
-31 47 l-19 47 -18 -47 c-10 -26 -23 -47 -30 -47 -7 0 -20 24 -31 53 -10 28
-20 58 -23 66 -3 8 0 12 8 9 8 -2 21 -26 30 -54z m210 -9 c0 -37 -4 -65 -10
-65 -6 0 -10 28 -10 65 0 37 4 65 10 65 6 0 10 -28 10 -65z m540 54 c0 -5 -9
-9 -19 -9 -23 0 -31 -19 -31 -71 0 -21 -4 -39 -10 -39 -5 0 -10 6 -11 13 0 6
-1 35 -2 63 l-2 52 38 0 c20 1 37 -3 37 -9z m122 -6 c22 -20 23 -70 1 -95 -20
-22 -70 -23 -95 -1 -22 20 -23 70 -1 95 20 22 70 23 95 1z m155 6 c15 -13 18
-119 4 -119 -6 0 -11 24 -13 53 -3 48 -5 52 -30 55 -22 3 -30 -2 -38 -23 -5
-14 -10 -40 -10 -56 0 -16 -4 -29 -10 -29 -6 0 -10 28 -10 63 l0 63 47 2 c25
1 52 -3 60 -9z m347 -11 c28 -39 21 -48 -39 -48 -54 0 -55 -1 -44 -21 9 -18
17 -20 50 -15 38 6 54 -6 23 -18 -29 -11 -67 -6 -86 11 -22 20 -23 70 -1 95
23 26 78 24 97 -4z m156 3 c15 -30 13 -111 -3 -111 -10 0 -13 11 -11 37 3 45
-10 73 -34 73 -29 0 -42 -21 -42 -68 0 -30 -4 -42 -12 -40 -8 3 -13 26 -13 65
l0 60 52 2 c42 1 54 -3 63 -18z m532 2 c10 -9 18 -24 18 -35 0 -15 -8 -18 -50
-18 -27 0 -50 -4 -50 -9 0 -19 31 -33 61 -27 22 4 29 2 27 -7 -5 -14 -41 -21
-73 -13 -44 11 -55 103 -13 119 27 11 62 7 80 -10z m70 -34 l22 -51 22 51 c13
28 28 51 35 51 6 0 9 -6 6 -12 -39 -93 -52 -118 -62 -118 -7 0 -24 27 -39 61
-30 69 -30 69 -15 69 5 0 20 -23 31 -51z m200 34 c10 -9 18 -24 18 -35 0 -15
-8 -18 -50 -18 -27 0 -50 -4 -50 -9 0 -19 31 -33 61 -27 22 4 29 2 27 -7 -5
-14 -41 -21 -73 -13 -44 11 -55 103 -13 119 27 11 62 7 80 -10z m208 7 c35
-19 33 -88 -4 -112 -21 -14 -66 -8 -86 12 -56 56 18 139 90 100z m174 -12 c20
-29 20 -58 0 -87 -13 -19 -24 -22 -55 -19 -37 3 -39 2 -39 -24 0 -18 -5 -28
-15 -28 -12 0 -15 17 -15 89 l0 88 54 2 c46 1 57 -3 70 -21z m142 12 c8 -8 14
-8 19 0 9 14 68 13 83 -2 14 -14 16 -118 2 -118 -5 0 -10 19 -10 43 0 53 -11
70 -41 65 -21 -3 -24 -9 -27 -55 -2 -37 -7 -53 -17 -53 -10 0 -15 16 -17 53
-3 46 -6 52 -27 55 -30 5 -41 -12 -41 -65 0 -24 -4 -43 -9 -43 -13 0 -17 24
-13 80 l4 47 40 1 c23 1 47 -3 54 -8z m258 -12 c28 -39 21 -48 -39 -48 -54 0
-55 -1 -44 -21 9 -18 17 -20 50 -15 38 6 54 -6 23 -18 -55 -21 -104 9 -104 63
0 57 82 85 114 39z m156 3 c16 -30 13 -111 -4 -111 -10 0 -14 10 -12 33 4 45
-10 77 -32 77 -29 0 -42 -21 -42 -67 0 -24 -4 -43 -9 -43 -13 0 -17 24 -13 80
l4 47 48 2 c40 1 51 -2 60 -18z m390 -17 c0 -45 15 -74 40 -74 25 0 40 29 40
74 0 20 5 36 10 36 6 0 10 -28 10 -63 l0 -64 -50 -2 c-40 -1 -51 2 -60 18 -13
25 -13 111 0 111 6 0 10 -16 10 -36z m526 25 c8 -7 14 -7 19 1 11 18 73 12 85
-9 13 -25 13 -111 0 -111 -5 0 -10 16 -10 36 0 45 -15 74 -40 74 -25 0 -40
-29 -40 -74 0 -56 -19 -42 -22 17 -3 46 -6 52 -27 55 -30 5 -41 -12 -41 -66 0
-70 -24 -48 -28 25 l-3 60 47 1 c26 1 53 -3 60 -9z m302 -1 c7 -7 12 -35 12
-63 l0 -52 -41 -1 c-46 -2 -69 11 -69 39 0 22 29 39 65 39 17 0 25 5 22 13 -2
7 -19 12 -41 11 -34 -1 -44 5 -29 19 11 12 68 8 81 -5z m202 -1 c0 -9 -11 -12
-35 -9 -46 5 -48 -21 -4 -34 71 -20 59 -77 -14 -72 -22 2 -42 8 -44 15 -3 8 8
10 36 6 33 -5 41 -2 41 10 0 9 -12 18 -29 22 -41 9 -55 28 -41 54 8 16 21 21
50 21 26 0 40 -5 40 -13z m135 -1 c13 -9 19 -26 19 -51 0 -62 -70 -89 -114
-45 -58 58 28 145 95 96z m5312 -45 c8 -17 9 -30 2 -44 -13 -23 -23 -15 -24
21 0 20 -5 27 -20 27 -15 0 -20 -7 -20 -30 -1 -39 -19 -39 -23 0 -7 54 60 75
85 26z m-8897 -1 c0 -5 -16 -10 -35 -10 -19 0 -35 5 -35 10 0 6 16 10 35 10
19 0 35 -4 35 -10z m8900 -89 c13 -26 -10 -65 -42 -69 -51 -6 -72 70 -24 87
27 10 54 3 66 -18z m3 -118 c8 -44 -8 -63 -53 -63 -22 0 -40 5 -40 10 0 6 16
10 36 10 31 0 35 3 32 23 -2 17 -11 23 -35 25 -49 5 -40 22 11 22 40 0 44 -2
49 -27z m-15298 -43 c-3 -5 -15 -10 -26 -10 -10 0 -19 -7 -19 -15 0 -8 9 -15
20 -15 11 0 20 -4 20 -10 0 -5 -9 -10 -20 -10 -18 0 -20 -7 -20 -55 0 -30 -4
-55 -10 -55 -5 0 -10 23 -10 51 0 38 -5 55 -17 65 -17 13 -17 13 0 14 10 0 17
8 17 18 0 10 3 22 7 25 11 11 65 8 58 -3z m425 0 c0 -5 -7 -10 -15 -10 -8 0
-15 5 -15 10 0 6 7 10 15 10 8 0 15 -4 15 -10z m700 -78 l0 -89 -47 -2 c-56
-2 -83 19 -83 64 0 45 30 69 75 62 33 -5 35 -4 35 24 0 16 5 29 10 29 6 0 10
-36 10 -88z m130 60 c0 -26 2 -27 39 -24 31 3 42 0 55 -19 20 -29 20 -58 0
-87 -12 -18 -24 -22 -67 -21 l-52 2 0 88 c0 65 3 89 13 89 6 0 12 -12 12 -28z
m350 -1 c0 -28 2 -29 35 -24 50 8 65 -9 65 -73 0 -30 -4 -54 -10 -54 -5 0 -10
18 -10 39 0 55 -8 71 -36 71 -28 0 -44 -26 -44 -74 0 -20 -4 -36 -10 -36 -6 0
-10 37 -10 90 0 53 4 90 10 90 6 0 10 -13 10 -29z m680 0 c0 -28 2 -29 35 -24
50 8 65 -9 65 -73 0 -30 -4 -54 -10 -54 -5 0 -10 18 -10 39 0 55 -8 71 -36 71
-28 0 -44 -26 -44 -74 0 -20 -4 -36 -10 -36 -6 0 -10 37 -10 90 0 53 4 90 10
90 6 0 10 -13 10 -29z m170 19 c0 -5 -7 -10 -15 -10 -8 0 -15 5 -15 10 0 6 7
10 15 10 8 0 15 -4 15 -10z m1020 -47 l0 -57 33 32 c41 40 72 44 34 4 l-27
-28 31 -37 c21 -26 26 -37 16 -37 -9 0 -26 13 -40 29 -26 31 -47 26 -47 -11 0
-10 -7 -18 -15 -18 -12 0 -15 17 -15 90 0 73 3 90 15 90 12 0 15 -13 15 -57z
m200 27 c0 -27 2 -30 25 -24 41 10 74 -3 82 -34 16 -61 -11 -93 -78 -90 l-49
2 0 88 c0 52 4 88 10 88 6 0 10 -14 10 -30z m310 1 c0 -28 2 -29 35 -24 50 8
65 -9 65 -73 0 -30 -4 -54 -10 -54 -5 0 -10 18 -10 39 0 55 -8 71 -36 71 -28
0 -44 -26 -44 -74 0 -20 -4 -36 -10 -36 -6 0 -10 37 -10 90 0 53 4 90 10 90 6
0 10 -13 10 -29z m170 19 c0 -5 -7 -10 -15 -10 -8 0 -15 5 -15 10 0 6 7 10 15
10 8 0 15 -4 15 -10z m320 -79 l0 -88 -48 -1 c-63 -2 -86 15 -86 63 0 46 25
68 72 63 29 -4 32 -2 32 24 0 18 5 28 15 28 12 0 15 -17 15 -89z m220 61 c0
-26 2 -28 35 -24 51 6 65 -11 65 -74 0 -30 -4 -54 -10 -54 -5 0 -10 18 -10 39
0 55 -8 71 -36 71 -28 0 -44 -26 -44 -74 0 -20 -4 -36 -10 -36 -6 0 -10 37
-10 90 0 53 4 90 10 90 6 0 10 -13 10 -28z m1260 18 c0 -5 -7 -10 -15 -10 -8
0 -15 5 -15 10 0 6 7 10 15 10 8 0 15 -4 15 -10z m380 -18 c0 -26 2 -28 35
-24 51 6 65 -11 65 -74 0 -30 -4 -54 -10 -54 -5 0 -10 18 -10 39 0 55 -8 71
-36 71 -28 0 -44 -26 -44 -74 0 -20 -4 -36 -10 -36 -6 0 -10 37 -10 90 0 53 4
90 10 90 6 0 10 -13 10 -28z m370 -1 c0 -28 2 -29 35 -24 45 7 75 -17 75 -62
0 -46 -26 -65 -83 -63 l-47 2 0 88 c0 52 4 88 10 88 6 0 10 -13 10 -29z m440
-28 l0 -57 33 32 c18 18 39 32 47 32 10 0 5 -9 -12 -27 l-27 -26 30 -39 c23
-28 27 -38 15 -38 -8 0 -25 13 -37 30 -17 23 -26 27 -36 19 -7 -6 -13 -20 -13
-30 0 -11 -7 -19 -15 -19 -12 0 -15 17 -15 90 0 73 3 90 15 90 12 0 15 -13 15
-57z m640 -32 l0 -89 -42 0 c-60 -2 -74 5 -87 36 -24 57 20 104 82 88 21 -5
23 -3 19 24 -3 23 0 30 12 30 14 0 16 -14 16 -89z m-6990 54 c0 -8 9 -15 20
-15 11 0 20 -4 20 -10 0 -5 -9 -10 -20 -10 -17 0 -20 -7 -20 -45 0 -38 3 -45
19 -45 11 0 23 -5 26 -11 5 -7 -5 -9 -26 -7 -33 3 -34 4 -37 52 -2 32 -9 54
-20 63 -16 12 -16 12 1 13 9 0 17 7 17 15 0 8 5 15 10 15 6 0 10 -7 10 -15z
m1400 0 c0 -8 9 -15 20 -15 11 0 20 -4 20 -10 0 -5 -9 -10 -20 -10 -17 0 -20
-7 -20 -45 0 -38 3 -45 20 -45 11 0 20 -4 20 -10 0 -14 -43 -13 -58 2 -7 7
-12 31 -12 54 0 24 -5 45 -12 48 -10 5 -10 7 0 12 6 3 12 12 12 20 0 8 7 14
15 14 8 0 15 -7 15 -15z m2410 1 c0 -8 10 -17 23 -19 l22 -4 -22 -8 c-19 -6
-23 -15 -23 -51 0 -37 3 -44 20 -44 11 0 20 -4 20 -10 0 -14 -43 -13 -58 2 -7
7 -12 31 -12 54 0 24 -5 45 -12 48 -10 5 -10 7 0 12 6 3 12 12 12 20 0 8 7 14
15 14 8 0 15 -6 15 -14z m1640 -1 c0 -8 9 -15 20 -15 11 0 20 -4 20 -10 0 -5
-9 -10 -20 -10 -17 0 -20 -7 -20 -45 0 -38 3 -45 20 -45 11 0 20 -4 20 -10 0
-5 -11 -10 -25 -10 -29 0 -45 26 -45 74 0 19 -6 37 -12 40 -10 5 -10 7 0 12 6
3 12 12 12 20 0 8 7 14 15 14 8 0 15 -7 15 -15z m-6856 -66 l22 -52 22 52 c13
28 27 51 32 51 14 0 13 -1 -16 -69 -15 -34 -32 -61 -39 -61 -10 0 -23 25 -62
118 -3 6 0 12 6 12 7 0 22 -23 35 -51z m198 34 c10 -9 18 -24 18 -35 0 -15 -8
-18 -50 -18 -27 0 -50 -4 -50 -9 0 -19 31 -33 61 -27 22 4 29 2 27 -7 -5 -14
-41 -21 -73 -13 -31 8 -51 57 -34 88 6 12 17 26 23 30 19 13 59 9 78 -9z m118
6 c0 -5 -7 -9 -15 -9 -18 0 -35 -39 -35 -81 0 -16 -4 -29 -10 -29 -6 0 -10 28
-10 63 l0 63 35 1 c19 1 35 -3 35 -8z m55 -41 l19 -53 24 53 c13 28 28 52 33
52 5 0 9 -2 9 -4 0 -9 -63 -152 -72 -163 -12 -15 -54 -17 -63 -3 -4 6 5 10 20
10 38 0 41 23 11 91 -30 70 -30 69 -13 69 7 0 22 -24 32 -52z m345 33 c5 -11
10 -40 10 -64 l0 -44 -50 -2 c-40 0 -52 3 -61 20 -14 28 13 59 53 59 19 0 28
4 25 13 -2 7 -19 12 -41 11 -34 -1 -44 5 -29 19 3 4 23 7 44 7 28 0 41 -5 49
-19z m127 2 c3 -8 -6 -10 -31 -6 -29 4 -36 2 -36 -10 0 -10 13 -20 32 -25 70
-18 58 -75 -15 -70 -22 2 -42 8 -44 15 -3 8 8 10 36 6 32 -4 41 -2 41 9 0 8
-14 19 -31 24 -68 19 -60 78 9 72 20 -2 37 -8 39 -15z m132 3 c8 -9 8 -16 2
-20 -5 -4 -12 -2 -16 4 -3 5 -17 10 -31 10 -32 0 -51 -38 -34 -70 10 -19 17
-21 52 -16 36 6 40 5 28 -9 -17 -20 -69 -19 -92 2 -22 20 -23 70 -1 95 19 22
76 24 92 4z m61 -51 c0 -37 -4 -65 -10 -65 -5 0 -10 6 -11 13 -7 94 -5 117 12
117 5 0 9 -29 9 -65z m147 54 c15 -13 18 -119 4 -119 -6 0 -11 24 -13 53 -3
48 -5 52 -30 55 -22 3 -30 -2 -38 -23 -5 -14 -10 -40 -10 -56 0 -16 -4 -29
-10 -29 -6 0 -10 28 -10 63 l0 63 47 2 c25 1 52 -3 60 -9z m153 -15 c6 -14 10
-42 10 -63 l0 -38 -50 -2 c-39 0 -52 3 -60 19 -13 24 -13 26 6 44 8 9 29 16
46 16 19 0 28 4 25 13 -2 7 -19 12 -41 11 -34 -1 -44 5 -29 19 3 4 24 7 45 7
32 0 40 -4 48 -26z m232 9 c10 -9 18 -24 18 -35 0 -15 -8 -18 -50 -18 -27 0
-50 -4 -50 -9 0 -19 31 -33 61 -27 22 4 29 2 26 -7 -2 -7 -20 -12 -42 -12 -30
0 -42 6 -58 27 -20 27 -20 29 -4 63 14 29 22 35 49 35 17 0 40 -7 50 -17z
m458 -35 l22 -53 20 53 c12 28 27 52 34 52 9 0 3 -24 -21 -81 -20 -45 -38 -85
-41 -90 -9 -15 -64 -11 -64 5 0 9 8 12 24 9 36 -7 38 20 6 92 -21 46 -25 65
-16 65 7 0 23 -24 36 -52z m432 35 c22 -20 23 -70 1 -95 -20 -22 -70 -23 -95
-1 -22 20 -23 70 -1 95 20 22 70 23 95 1z m68 -39 l17 -49 17 53 c10 30 24 52
32 52 8 0 14 -4 14 -9 0 -5 7 -26 16 -47 l16 -39 18 45 c9 24 23 46 30 48 7 3
10 -1 7 -9 -3 -8 -14 -38 -23 -66 -10 -29 -23 -53 -30 -53 -6 0 -20 21 -31 47
l-19 48 -19 -48 c-10 -26 -23 -47 -29 -47 -6 0 -20 24 -30 53 -10 28 -21 58
-24 66 -3 8 0 12 8 9 8 -2 21 -26 30 -54z m530 -9 c0 -37 -4 -65 -10 -65 -6 0
-10 28 -10 65 0 37 4 65 10 65 6 0 10 -28 10 -65z m154 49 c20 -19 22 -114 4
-114 -9 0 -13 16 -13 46 0 89 -67 89 -73 0 -5 -73 -27 -59 -27 18 l0 63 47 2
c30 0 52 -5 62 -15z m176 -59 c0 -91 -11 -107 -70 -103 -24 2 -45 8 -47 15 -3
8 6 10 31 6 22 -3 42 -1 51 7 24 20 18 26 -20 22 -45 -5 -75 19 -75 61 0 48
25 68 82 66 l48 -2 0 -72z m122 61 c-1 -6 -16 -10 -32 -10 -42 -1 -42 -19 0
-32 29 -10 35 -16 35 -40 0 -28 -2 -29 -44 -29 -24 0 -46 5 -48 11 -2 7 9 11
29 10 43 -1 46 16 5 30 -32 11 -44 32 -33 60 4 11 18 14 48 12 24 -2 42 -7 40
-12z m118 -32 c14 -50 22 -48 40 9 6 20 17 37 24 37 7 0 21 -21 32 -47 l20
-48 13 40 c14 42 27 62 36 54 9 -10 -37 -129 -50 -129 -7 0 -21 21 -31 46
l-18 46 -17 -43 c-23 -61 -40 -60 -63 3 -10 29 -21 59 -23 66 -3 6 2 12 10 12
9 0 19 -18 27 -46z m292 29 c22 -20 23 -70 1 -95 -20 -22 -70 -23 -95 -1 -22
20 -23 70 -1 95 20 22 70 23 95 1z m118 7 c0 -6 -7 -10 -15 -10 -20 0 -35 -32
-35 -74 0 -20 -4 -36 -10 -36 -6 0 -10 28 -10 63 l0 64 35 1 c19 1 35 -3 35
-8z m492 -7 c10 -9 18 -24 18 -35 0 -15 -8 -18 -50 -18 -37 0 -50 -4 -50 -14
0 -19 34 -30 67 -21 18 4 24 2 21 -7 -6 -17 -61 -22 -87 -9 -28 15 -37 66 -17
96 20 30 70 34 98 8z m228 -48 c0 -37 -4 -65 -10 -65 -6 0 -10 28 -10 65 0 37
4 65 10 65 6 0 10 -28 10 -65z m155 43 c20 -29 21 -108 1 -108 -11 0 -16 15
-18 53 -3 50 -4 52 -33 52 -29 0 -30 -2 -33 -52 -2 -38 -7 -53 -18 -53 -11 0
-14 15 -14 64 l0 63 50 2 c40 0 52 -3 65 -21z m635 2 c36 -36 26 -50 -35 -50
-54 0 -55 -1 -44 -21 9 -18 17 -20 50 -15 38 6 54 -6 23 -18 -53 -20 -104 7
-104 57 0 61 67 90 110 47z m192 6 c-1 -6 -16 -10 -34 -10 -46 -1 -45 -21 2
-35 41 -12 52 -35 28 -59 -14 -14 -67 -16 -88 -2 -16 10 -12 12 37 14 42 1 42
18 0 32 -32 11 -44 32 -33 60 4 11 18 14 48 12 24 -2 42 -7 40 -12z m122 8
c29 -11 17 -26 -14 -19 -37 8 -60 -8 -60 -40 0 -32 23 -48 60 -40 37 8 42 -12
5 -21 -40 -10 -71 3 -85 35 -12 30 -2 66 24 83 13 9 49 10 70 2z m132 -2 c11
-7 34 -45 34 -56 0 -3 -25 -6 -55 -6 -30 0 -55 -4 -55 -9 0 -19 31 -33 61 -27
22 4 29 2 27 -7 -7 -20 -67 -21 -89 -1 -23 21 -25 71 -2 96 16 18 59 24 79 10z
m163 -1 c8 -6 16 -32 19 -65 4 -46 2 -56 -11 -56 -12 0 -17 13 -19 53 -3 46
-6 52 -27 55 -30 5 -41 -12 -41 -65 0 -32 -4 -43 -15 -43 -12 0 -15 14 -15 64
l0 63 48 1 c26 1 53 -3 61 -7z m153 -8 c10 -9 18 -24 18 -35 0 -15 -8 -18 -50
-18 -27 0 -50 -4 -50 -9 0 -19 31 -33 61 -27 22 4 29 2 27 -7 -6 -18 -70 -20
-92 -4 -27 20 -27 84 -1 103 25 19 64 18 87 -3z m128 3 c-3 -5 -16 -10 -30
-10 -39 -1 -39 -20 0 -32 27 -9 36 -18 38 -37 3 -21 -2 -28 -21 -32 -33 -9
-70 -3 -74 12 -3 8 8 10 36 6 55 -7 57 19 4 33 -29 7 -39 15 -41 33 -2 13 2
28 10 32 17 12 85 7 78 -5z m120 -51 c0 -37 -4 -65 -10 -65 -6 0 -10 28 -10
65 0 37 4 65 10 65 6 0 10 -28 10 -65z m154 49 c21 -20 22 -114 2 -114 -9 0
-13 11 -11 34 2 46 -11 76 -33 76 -29 0 -42 -21 -42 -67 0 -24 -4 -43 -10 -43
-12 0 -12 0 -14 71 l-1 57 47 1 c30 0 52 -5 62 -15z m480 -6 c28 -39 21 -48
-39 -48 -54 0 -55 -1 -44 -21 9 -18 17 -20 50 -15 38 6 54 -6 23 -18 -29 -11
-67 -6 -86 11 -22 20 -23 70 -1 95 23 26 78 24 97 -4z m354 10 c7 -7 12 -35
12 -63 l0 -52 -41 -1 c-46 -2 -69 11 -69 39 0 22 29 39 65 39 17 0 25 5 22 13
-2 7 -19 12 -41 11 -34 -1 -44 5 -29 19 11 12 68 8 81 -5z m151 -2 c8 -9 8
-16 2 -20 -5 -4 -12 -2 -16 4 -3 5 -17 10 -31 10 -32 0 -51 -38 -34 -70 10
-19 17 -21 52 -16 36 6 40 5 28 -9 -17 -20 -69 -19 -92 2 -22 20 -23 70 -1 95
19 22 76 24 92 4z m357 6 c11 -7 34 -45 34 -56 0 -3 -25 -6 -55 -6 -56 0 -67
-8 -40 -30 10 -8 28 -10 52 -5 33 6 35 5 24 -9 -17 -21 -70 -20 -93 1 -22 20
-23 70 -1 95 16 18 59 24 79 10z m161 -3 c15 -13 18 -119 4 -119 -6 0 -11 24
-13 53 -3 48 -5 52 -30 55 -22 3 -30 -2 -38 -23 -5 -14 -10 -40 -10 -56 0 -16
-4 -29 -10 -29 -6 0 -10 28 -10 63 l0 63 47 2 c25 1 52 -3 60 -9z m7700 -2 c3
-4 1 -7 -6 -7 -8 0 -9 -5 -2 -19 19 -35 -22 -62 -79 -51 -8 1 1 5 20 9 26 4
36 12 38 28 3 20 -20 37 -44 32 -5 -1 -16 -1 -24 0 -11 1 -12 3 -3 9 14 9 90
8 100 -1z m-7987 -47 c0 -5 -13 -10 -30 -10 -16 0 -30 5 -30 10 0 6 14 10 30
10 17 0 30 -4 30 -10z m7981 -88 c6 -17 4 -27 -11 -42 -32 -32 -50 -26 -50 18
0 24 -3 32 -9 23 -5 -7 -6 -22 -4 -32 3 -10 1 -19 -5 -19 -14 0 -20 32 -11 58
12 33 78 28 90 -6z m-13 -84 c18 -18 15 -68 -3 -68 -12 0 -13 4 -5 19 7 15 6
23 -5 35 -24 23 -48 9 -43 -25 3 -20 0 -29 -9 -29 -17 0 -18 66 0 73 22 10 53
7 65 -5z m18 -120 c-9 -15 -12 -15 -19 -3 -12 22 -42 18 -60 -7 l-16 -23 0 28
c-1 25 2 27 39 27 22 0 40 5 40 10 0 6 6 5 14 -2 10 -9 11 -17 2 -30z m-14515
-208 c18 -10 19 -24 19 -285 0 -261 -1 -275 -19 -285 -13 -6 -254 -10 -711
-10 -457 0 -698 4 -711 10 -18 10 -19 24 -19 285 0 250 2 275 18 284 24 14
1396 15 1423 1z m14559 -811 c63 -39 87 -95 69 -163 -11 -42 -67 -106 -92
-106 -11 0 -16 13 -19 44 -3 42 -1 45 24 50 33 7 42 35 30 91 -6 27 -13 39
-23 36 -19 -6 -110 -6 -128 0 -18 5 -33 -53 -25 -94 4 -20 13 -29 34 -33 20
-5 26 -11 23 -24 -6 -22 -31 -20 -48 3 -7 9 -18 17 -26 17 -8 0 -1 -11 15 -25
16 -14 35 -25 43 -25 7 0 13 -9 13 -20 0 -32 -30 -24 -72 20 -38 41 -44 61
-39 129 7 95 134 153 221 100z m60 -554 l0 -135 -135 0 -135 0 0 135 0 135
135 0 135 0 0 -135z m-6 -291 c9 -3 16 -14 16 -24 0 -17 -26 -41 -104 -93 -44
-30 -47 -29 -133 36 -51 38 -67 70 -40 80 18 8 242 8 261 1z m-128 -154 c9 0
45 20 80 46 l64 45 0 -69 c0 -55 -3 -71 -16 -76 -9 -3 -67 -6 -129 -6 -62 0
-120 3 -129 6 -13 5 -16 22 -16 76 l0 70 64 -46 c36 -25 72 -46 82 -46z"/>
<path d="M1753 9093 c-16 -6 -17 -29 -3 -38 18 -11 50 6 50 26 0 19 -19 24
-47 12z"/>
<path d="M2025 9160 c-18 -20 -17 -20 28 -20 52 0 54 2 31 24 -21 21 -37 20
-59 -4z"/>
<path d="M12447 9081 c-3 -14 0 -21 9 -21 16 0 18 9 5 28 -6 10 -10 9 -14 -7z"/>
<path d="M12571 9080 c-19 -11 -6 -41 14 -34 16 6 20 29 7 38 -4 2 -14 1 -21
-4z"/>
<path d="M12684 9075 c-9 -23 10 -40 25 -22 9 11 8 17 -4 27 -12 10 -16 9 -21
-5z"/>
<path d="M15162 9098 c2 -12 9 -23 15 -26 19 -6 29 28 12 39 -23 14 -31 10
-27 -13z"/>
<path d="M15350 9065 c0 -8 9 -15 20 -15 11 0 20 7 20 15 0 8 -9 15 -20 15
-11 0 -20 -7 -20 -15z"/>
<path d="M16700 9066 c0 -8 4 -17 9 -20 11 -7 33 18 24 27 -12 12 -33 7 -33
-7z"/>
<path d="M1940 6380 c-10 -19 -8 -20 40 -20 51 0 60 6 38 28 -19 19 -66 15
-78 -8z"/>
<path d="M2748 6383 c-36 -9 -42 -95 -7 -114 43 -23 86 18 74 72 -5 24 -34 53
-47 48 -2 -1 -11 -3 -20 -6z"/>
<path d="M14710 6451 c-80 -16 -248 -169 -375 -341 -30 -41 -77 -105 -105
-142 -27 -36 -53 -75 -56 -85 -14 -44 -59 -150 -72 -170 -8 -13 -20 -23 -27
-23 -18 0 -64 56 -71 86 -5 21 -12 24 -50 24 -38 0 -45 -4 -59 -30 -8 -16 -15
-38 -15 -49 0 -22 -35 -51 -62 -51 -13 0 -18 -8 -18 -25 0 -18 -5 -25 -20 -25
-11 0 -20 -6 -20 -14 0 -8 -8 -17 -18 -20 -9 -3 -22 -16 -27 -28 -6 -13 -23
-29 -38 -36 -16 -8 -31 -21 -34 -30 -13 -37 -36 -52 -80 -52 -32 0 -43 -4 -43
-15 0 -11 -11 -15 -40 -15 -33 0 -40 -3 -40 -20 0 -11 -7 -20 -15 -20 -20 0
-19 -6 5 -30 13 -13 33 -20 59 -20 21 0 69 -13 107 -29 74 -30 128 -50 157
-56 22 -5 95 -41 122 -61 19 -14 19 -15 1 -62 -23 -61 -56 -188 -56 -217 0
-13 -11 -36 -24 -52 -33 -40 -66 -116 -66 -155 0 -25 -3 -29 -10 -18 -7 11
-10 6 -10 -20 1 -30 -13 -163 -20 -195 -1 -5 -2 -23 0 -40 1 -26 2 -28 10 -10
7 14 8 5 6 -30 -5 -65 -5 -62 -17 -45 -8 12 -9 10 -4 -9 4 -13 3 -26 -2 -30
-18 -13 -71 -102 -103 -175 -18 -42 -35 -74 -38 -71 -7 6 -8 45 -17 395 -4
162 -12 303 -17 313 -5 10 -20 22 -32 27 -24 9 -212 37 -281 42 -38 3 -40 2
-40 -27 0 -25 4 -30 27 -32 14 -1 78 -11 142 -22 63 -12 118 -21 121 -21 10 0
5 -329 -5 -335 -6 -4 -11 19 -11 62 -5 201 -11 226 -61 238 -18 4 -72 10 -120
14 -71 5 -89 3 -93 -8 -3 -8 -5 -194 -4 -413 l1 -398 22 -1 c26 -2 8 -2 170 6
148 7 191 19 205 57 7 21 8 20 15 -6 4 -15 -1 -64 -10 -111 l-16 -83 -37 2
c-20 1 -46 8 -58 14 -36 20 -70 14 -92 -14 -12 -15 -21 -32 -21 -38 0 -6 -8
-19 -17 -27 -10 -9 -30 -31 -45 -48 -24 -28 -26 -38 -21 -81 6 -52 -21 -148
-44 -157 -7 -3 -13 -14 -13 -24 0 -21 -16 -26 -23 -6 -8 22 -18 -97 -15 -176
l3 -78 35 24 c19 14 53 35 75 47 49 27 112 75 143 109 l23 26 -6 -50 c-3 -27
-9 -94 -12 -147 -5 -87 -4 -98 11 -98 9 0 16 7 16 15 0 19 37 94 58 118 21 24
35 21 29 -5 -4 -12 0 -26 8 -32 7 -6 16 -25 20 -42 5 -24 1 -38 -17 -60 -13
-16 -36 -48 -52 -71 -16 -24 -37 -43 -47 -43 -18 0 -44 21 -52 42 -2 7 -8 9
-13 5 -5 -4 -4 -11 1 -15 6 -4 12 -14 14 -22 12 -45 27 -80 34 -80 4 0 15 9
24 20 10 11 23 20 30 20 7 0 18 9 25 20 16 25 30 26 26 3 -2 -11 5 -19 17 -21
26 -6 46 -32 41 -54 -2 -10 2 -18 9 -18 7 0 15 -7 19 -15 3 -9 18 -15 40 -15
21 0 36 6 40 15 3 8 10 15 17 15 6 0 9 -6 6 -14 -9 -22 83 -27 435 -24 389 3
488 7 488 19 0 5 -7 9 -16 9 -14 0 -14 2 1 16 9 9 13 19 10 22 -3 4 -10 0 -15
-8 -5 -8 -12 -12 -15 -8 -4 3 1 18 10 32 10 16 16 38 13 56 -3 21 0 31 12 35
12 4 15 14 12 34 -2 16 1 32 7 35 6 4 11 18 11 31 0 13 11 32 25 43 20 16 22
21 10 26 -9 3 -12 12 -9 23 5 15 34 79 42 92 1 2 12 5 24 6 12 1 23 6 25 12 3
7 -4 9 -16 6 -15 -4 -21 -1 -21 11 0 9 -4 16 -10 16 -5 0 -10 8 -10 17 0 15 2
14 14 -3 14 -18 15 -18 26 10 15 41 8 54 -29 48 -24 -3 -31 0 -31 12 0 10 9
16 25 16 14 0 25 5 25 10 0 6 -9 10 -19 10 -38 0 -67 52 -84 152 -17 97 -20
221 -5 212 9 -6 10 1 8 148 l-1 107 33 10 c18 5 25 10 16 10 -10 1 -18 6 -18
11 0 6 -9 10 -21 10 -11 0 -29 4 -39 10 -10 5 -37 12 -61 15 -93 11 -106 16
-119 43 -10 23 -13 24 -21 10 -22 -40 -80 24 -79 89 l1 28 34 -39 c19 -22 35
-34 35 -28 0 12 -21 64 -30 72 -3 3 -5 10 -5 15 -1 6 -7 37 -14 69 -17 76 -27
193 -17 203 2 3 20 0 38 -6 28 -9 40 -8 66 5 44 22 40 34 -11 34 -49 0 -71 17
-82 65 -4 17 -14 40 -21 52 -21 33 -44 105 -44 136 0 46 50 179 82 215 15 18
26 38 22 43 -3 6 1 25 10 42 12 26 25 35 60 45 28 7 46 18 46 26 0 22 -42 82
-64 92 -31 14 -27 41 10 72 40 35 41 42 11 71 -23 21 -24 26 -20 139 2 64 8
141 13 170 11 59 69 171 109 208 42 39 171 83 264 90 55 4 85 11 90 20 7 12
10 12 23 -1 9 -8 29 -15 45 -15 16 0 29 -4 29 -9 0 -4 34 -19 75 -32 41 -13
75 -27 75 -31 0 -5 6 -8 14 -8 7 0 21 -11 30 -25 9 -14 23 -25 31 -25 8 0 17
-11 21 -25 3 -14 10 -25 15 -25 5 0 9 -7 9 -15 0 -9 6 -18 14 -21 8 -3 17 -19
20 -36 8 -38 47 -118 58 -118 4 0 8 -7 8 -15 0 -9 11 -43 25 -76 14 -33 30
-79 34 -102 12 -55 67 -210 96 -267 70 -140 74 -243 16 -485 -11 -44 -24 -104
-30 -133 -12 -57 -31 -106 -89 -220 -55 -110 -127 -179 -269 -258 -77 -42 -85
-56 -26 -47 35 6 36 6 29 -23 -4 -16 -22 -51 -40 -79 -91 -140 -107 -183 -107
-283 0 -84 26 -152 91 -239 22 -29 40 -57 40 -63 0 -6 -11 -16 -25 -22 -29
-13 -34 -32 -6 -23 26 8 41 -15 38 -58 -3 -48 -27 -74 -28 -31 -1 29 -1 29
-17 -9 -10 -25 -20 -36 -29 -33 -8 3 -16 -1 -19 -9 -4 -8 -16 -15 -28 -15 -15
0 -27 -10 -36 -27 -11 -24 -14 -25 -18 -10 -4 17 -6 17 -28 -4 -16 -15 -20
-25 -13 -30 18 -11 2 -43 -31 -62 -24 -14 -30 -25 -30 -51 0 -17 -5 -37 -12
-44 -8 -8 -8 -15 1 -26 9 -11 9 -15 0 -18 -8 -3 -9 -9 -3 -19 11 -17 12 -89 1
-89 -5 0 -2 -7 7 -15 20 -21 211 -22 203 -1 -3 7 3 26 13 41 16 24 19 25 23 9
3 -11 5 -2 6 19 1 26 6 37 16 37 9 0 15 -9 15 -21 0 -18 2 -20 15 -9 9 7 14
19 11 25 -2 7 1 34 8 61 9 36 14 44 19 30 6 -14 10 -16 21 -7 11 9 13 3 13
-31 1 -24 -4 -48 -9 -55 -5 -7 -8 -18 -5 -25 2 -7 0 -21 -4 -30 -5 -9 -5 -19
-1 -22 9 -6 37 82 48 153 7 41 23 57 25 24 0 -11 3 -13 6 -5 10 26 20 0 17
-45 -4 -48 -4 -48 7 -13 6 19 13 41 15 47 5 19 46 0 55 -25 5 -13 4 -22 -1
-22 -6 0 -10 -18 -10 -40 0 -23 5 -40 11 -40 6 0 9 6 6 13 -2 6 1 39 8 72 14
61 18 54 15 -24 -1 -27 2 -41 8 -37 18 11 23 -11 13 -53 -9 -41 -9 -41 20 -41
16 0 29 5 29 11 0 6 -7 9 -15 6 -21 -8 -24 4 -10 36 l11 28 13 -39 c15 -45 33
-52 130 -52 76 0 98 8 105 36 4 13 13 24 21 24 9 0 15 9 15 22 0 55 43 129 78
134 9 2 27 15 38 30 14 17 24 22 28 15 13 -20 24 -12 29 22 5 32 -11 64 -20
40 -3 -7 -10 -13 -17 -13 -7 0 -30 -15 -52 -33 -21 -19 -45 -32 -52 -30 -7 3
-19 -1 -27 -7 -24 -20 -19 16 5 40 22 22 26 40 8 40 -6 0 -4 6 7 13 12 10 14
16 7 21 -7 4 -12 14 -12 22 0 8 5 12 10 9 6 -3 17 0 25 7 34 30 45 38 56 38 6
0 23 6 37 14 56 30 97 45 100 37 4 -12 52 -1 52 12 0 6 6 3 13 -7 11 -15 15
-15 24 -4 6 7 13 22 15 33 4 20 19 23 50 10 13 -5 17 0 20 21 2 16 11 30 24
35 18 6 20 4 16 -17 -4 -20 -1 -23 14 -17 11 4 25 15 33 26 8 11 21 17 32 14
10 -3 26 1 36 9 27 20 42 17 36 -8 -4 -20 -3 -20 6 -6 13 19 65 33 83 22 7 -4
58 -7 114 -5 94 2 106 0 168 -28 36 -16 66 -35 66 -42 0 -7 3 -9 7 -6 8 9 15
1869 7 2109 -5 129 -10 186 -17 181 -6 -4 -38 -8 -71 -11 -32 -2 -65 -10 -73
-18 -8 -8 -24 -14 -36 -14 -31 0 -103 -24 -163 -54 -47 -23 -52 -28 -58 -68
-4 -24 -7 -257 -7 -518 1 -261 -3 -481 -7 -487 -12 -18 -102 -33 -143 -24 -62
14 -104 -13 -117 -76 -7 -33 -13 -40 -50 -53 -57 -19 -62 -11 -62 107 0 51 -4
147 -10 215 -5 68 -12 206 -15 308 -7 229 -8 256 -24 407 -13 119 -13 122 8
152 12 17 34 36 49 43 15 7 28 21 30 31 4 22 -20 101 -51 166 -13 25 -29 66
-36 91 -34 112 -58 165 -80 176 -30 15 -81 65 -81 79 0 6 -19 22 -41 34 -23
13 -71 52 -108 88 -46 45 -72 62 -85 59 -12 -3 -20 2 -23 15 -3 10 -13 19 -23
19 -10 0 -25 11 -34 25 -10 16 -26 25 -42 25 -13 0 -41 8 -62 19 -20 10 -60
24 -89 31 -57 13 -103 48 -103 78 0 11 -6 24 -13 30 -15 12 -437 15 -497 3z
m850 -231 c0 -5 -2 -10 -4 -10 -3 0 -8 5 -11 10 -3 6 -1 10 4 10 6 0 11 -4 11
-10z m46 -1674 c18 -18 18 -42 1 -49 -24 -9 -40 9 -33 37 7 30 12 32 32 12z
m-1966 -501 c0 -8 -4 -15 -10 -15 -5 0 -7 7 -4 15 4 8 8 15 10 15 2 0 4 -7 4
-15z m2740 -104 c0 -21 -25 -46 -34 -33 -9 15 5 52 20 52 8 0 14 -8 14 -19z
m-1041 -123 c0 -51 -5 -98 -11 -105 -7 -9 -5 -17 7 -30 15 -14 17 -29 12 -91
-3 -41 -8 -77 -11 -80 -9 -8 -55 28 -87 69 -33 40 -51 116 -27 106 13 -4 16 3
16 41 0 61 26 126 64 157 16 14 31 25 34 25 2 0 3 -42 3 -92z m931 -156 c25
-31 25 -42 1 -42 -19 0 -71 42 -71 58 0 29 43 20 70 -16z m-990 -486 c0 -24
-16 -43 -27 -32 -8 8 6 56 17 56 6 0 10 -11 10 -24z m-209 -227 c-9 -23 -10
-22 -10 11 -1 23 2 31 9 24 7 -7 7 -19 1 -35z m109 7 c0 -15 -7 -26 -20 -29
-23 -6 -27 11 -5 19 8 4 15 12 15 20 0 8 2 14 5 14 3 0 5 -11 5 -24z m-1429
-23 c-12 -20 -14 -14 -5 12 4 9 9 14 11 11 3 -2 0 -13 -6 -23z m-161 -3 c0
-11 -4 -20 -9 -20 -14 0 -23 18 -16 30 10 17 25 11 25 -10z m2183 -35 c4 -8 2
-17 -3 -20 -6 -4 -10 3 -10 14 0 25 6 27 13 6z m-766 -27 c-3 -8 -6 -5 -6 6
-1 11 2 17 5 13 3 -3 4 -12 1 -19z m-1250 -84 c-9 -9 -28 6 -21 18 4 6 10 6
17 -1 6 -6 8 -13 4 -17z m1270 11 c0 -8 -4 -15 -9 -15 -4 0 -8 7 -8 15 0 8 4
15 8 15 5 0 9 -7 9 -15z"/>
<path d="M14950 5451 c-59 -13 -80 -23 -80 -38 0 -8 5 -11 11 -7 15 9 79 13
79 4 0 -3 35 -2 78 2 42 5 92 6 110 3 33 -6 93 -36 125 -63 27 -24 19 0 -13
35 -48 53 -85 67 -185 69 -49 1 -106 -1 -125 -5z"/>
<path d="M15030 5232 c-43 -3 -90 -21 -90 -34 0 -5 13 -7 30 -3 25 6 30 3 36
-19 9 -36 25 -46 91 -56 32 -5 76 -11 98 -14 28 -5 46 -2 60 9 19 15 19 16
-10 41 -17 13 -40 32 -53 41 -29 20 -116 39 -162 35z"/>
<path d="M14640 4950 c0 -5 5 -10 11 -10 5 0 7 5 4 10 -3 6 -8 10 -11 10 -2 0
-4 -4 -4 -10z"/>
<path d="M14596 4851 c-16 -3 -31 -12 -34 -18 -4 -15 16 -17 37 -4 7 5 28 5
46 1 36 -8 62 1 51 19 -8 12 -52 13 -100 2z"/>
<path d="M14530 4560 c0 -5 7 -10 15 -10 8 0 15 5 15 10 0 6 -7 10 -15 10 -8
0 -15 -4 -15 -10z"/>
<path d="M14788 4523 c12 -2 30 -2 40 0 9 3 -1 5 -23 4 -22 0 -30 -2 -17 -4z"/>
<path d="M15998 3114 c-16 -8 -28 -21 -28 -30 0 -13 4 -12 25 3 13 10 26 24
29 31 6 15 7 15 -26 -4z"/>
<path d="M15926 2991 c-4 -7 -5 -15 -2 -18 9 -9 19 4 14 18 -4 11 -6 11 -12 0z"/>
<path d="M13280 2960 c14 -11 32 -20 40 -20 10 0 7 7 -10 20 -14 11 -32 20
-40 20 -10 0 -7 -7 10 -20z"/>
<path d="M15226 2941 c-4 -7 -5 -15 -2 -18 9 -9 19 4 14 18 -4 11 -6 11 -12 0z"/>
<path d="M16580 2893 c-7 -16 -14 -43 -15 -60 -1 -28 2 -33 19 -32 21 0 21 1
1 9 -16 7 -17 9 -3 9 40 2 69 101 30 101 -11 0 -25 -12 -32 -27z"/>
<path d="M13521 2844 c0 -11 3 -14 6 -6 3 7 2 16 -1 19 -3 4 -6 -2 -5 -13z"/>
<path d="M15156 2795 c-3 -8 -1 -15 4 -15 6 0 10 7 10 15 0 8 -2 15 -4 15 -2
0 -6 -7 -10 -15z"/>
<path d="M16560 2780 c0 -5 5 -10 10 -10 6 0 10 5 10 10 0 6 -4 10 -10 10 -5
0 -10 -4 -10 -10z"/>
<path d="M5421 5681 c-24 -44 -3 -86 40 -79 32 4 45 31 33 65 -12 36 -57 44
-73 14z"/>
<path d="M4701 5739 c-1 -4 -8 -23 -16 -43 l-15 -36 30 0 c18 0 30 5 30 13 -1
13 -28 76 -29 66z"/>
<path d="M6010 5696 c-11 -14 -7 -16 30 -16 29 0 40 4 38 13 -7 18 -53 20 -68
3z"/>
<path d="M6347 5704 c-16 -16 -5 -24 34 -24 28 0 39 4 37 13 -5 13 -60 22 -71
11z"/>
<path d="M6667 5613 c-17 -17 -6 -34 20 -31 36 4 45 38 10 38 -13 0 -27 -3
-30 -7z"/>
<path d="M2709 5614 c-16 -20 -1 -48 29 -52 23 -4 62 30 62 53 0 21 -73 20
-91 -1z"/>
<path d="M3572 5708 c-22 -22 -12 -28 48 -28 61 0 76 11 41 30 -26 14 -74 13
-89 -2z"/>
<path d="M2100 5070 c-26 -26 -26 -81 -2 -103 25 -23 68 -21 92 3 41 41 12
120 -45 120 -14 0 -34 -9 -45 -20z"/>
<path d="M1409 4984 c-16 -20 -1 -48 29 -52 23 -4 62 30 62 53 0 21 -73 20
-91 -1z"/>
<path d="M3563 4993 c-7 -2 -13 -15 -13 -29 0 -17 7 -25 24 -30 34 -8 66 12
66 41 0 22 -4 25 -32 24 -18 0 -39 -3 -45 -6z"/>
<path d="M5330 4415 c-14 -36 3 -75 33 -75 30 0 47 18 47 50 0 52 -62 72 -80
25z"/>
<path d="M5850 4429 l0 -92 47 6 c58 6 83 33 83 89 0 54 -34 88 -90 88 l-40 0
0 -91z"/>
<path d="M3215 4350 c-10 -16 4 -30 31 -30 17 0 24 5 24 20 0 15 -7 20 -24 20
-14 0 -28 -4 -31 -10z"/>
<path d="M4987 4444 c-16 -16 -5 -24 34 -24 28 0 39 4 37 13 -5 13 -60 22 -71
11z"/>
<path d="M6257 4444 c-16 -16 -5 -24 34 -24 28 0 39 4 37 13 -5 13 -60 22 -71
11z"/>
<path d="M6917 4443 c-16 -15 -4 -23 34 -23 36 0 40 2 29 15 -13 15 -51 20
-63 8z"/>
<path d="M7422 4428 c-7 -7 -12 -24 -12 -38 0 -52 62 -72 80 -25 20 53 -30
101 -68 63z"/>
<path d="M7782 4428 c-13 -13 -16 -47 -6 -72 7 -19 45 -21 62 -4 27 27 8 88
-28 88 -9 0 -21 -5 -28 -12z"/>
<path d="M8127 4443 c-16 -15 -4 -23 34 -23 36 0 40 2 29 15 -13 15 -51 20
-63 8z"/>
<path d="M17210 4000 c0 -11 5 -20 10 -20 6 0 10 9 10 20 0 11 -4 20 -10 20
-5 0 -10 -9 -10 -20z"/>
<path d="M3450 3706 c-28 -35 11 -93 48 -70 35 22 22 84 -18 84 -10 0 -23 -7
-30 -14z"/>
<path d="M3681 3698 c-12 -31 2 -62 28 -66 28 -4 51 14 51 42 0 47 -63 66 -79
24z"/>
<path d="M6737 3713 c-4 -3 -7 -21 -7 -39 0 -28 5 -35 25 -40 15 -4 32 -1 40
6 18 15 20 51 3 68 -13 13 -50 16 -61 5z"/>
<path d="M8712 3708 c-7 -7 -12 -21 -12 -33 0 -47 62 -63 81 -21 22 47 -33 90
-69 54z"/>
<path d="M8942 3708 c-7 -7 -12 -25 -12 -40 0 -21 6 -29 25 -34 31 -8 55 10
55 40 0 26 -18 46 -40 46 -9 0 -21 -5 -28 -12z"/>
<path d="M10619 3699 c-16 -30 3 -69 34 -69 29 0 47 17 47 45 0 45 -60 63 -81
24z"/>
<path d="M1907 3713 c-16 -15 -4 -23 34 -23 36 0 40 2 29 15 -13 15 -51 20
-63 8z"/>
<path d="M2477 3663 c-17 -17 -6 -34 20 -31 36 4 45 38 10 38 -13 0 -27 -3
-30 -7z"/>
<path d="M2629 3699 c-16 -30 3 -69 34 -69 29 0 47 17 47 45 0 45 -60 63 -81
24z"/>
<path d="M3071 3661 c-19 -12 -5 -31 24 -31 19 0 35 16 35 36 0 8 -45 4 -59
-5z"/>
<path d="M3300 3706 c-11 -14 -7 -16 30 -16 29 0 40 4 38 13 -7 18 -53 20 -68
3z"/>
<path d="M4027 3713 c-16 -15 -4 -23 34 -23 36 0 40 2 29 15 -13 15 -51 20
-63 8z"/>
<path d="M4297 3713 c-15 -15 -5 -23 28 -23 36 0 47 13 19 24 -20 8 -39 8 -47
-1z"/>
<path d="M5162 3708 c-30 -30 -3 -83 39 -76 45 6 42 88 -4 88 -13 0 -28 -5
-35 -12z"/>
<path d="M5647 3663 c-17 -17 -6 -34 20 -31 36 4 45 38 10 38 -13 0 -27 -3
-30 -7z"/>
<path d="M6105 3660 c-9 -15 3 -30 24 -30 21 0 44 23 34 33 -10 11 -51 8 -58
-3z"/>
<path d="M6519 3699 c-16 -30 3 -69 34 -69 29 0 47 17 47 45 0 45 -60 63 -81
24z"/>
<path d="M6902 3708 c-7 -7 -12 -22 -12 -34 0 -51 72 -61 78 -11 6 47 -36 75
-66 45z"/>
<path d="M7899 3699 c-16 -30 3 -69 34 -69 29 0 47 17 47 45 0 45 -60 63 -81
24z"/>
<path d="M8400 3706 c-11 -14 -7 -16 30 -16 29 0 40 4 38 13 -7 18 -53 20 -68
3z"/>
<path d="M9097 3713 c-16 -15 -4 -23 34 -23 36 0 40 2 29 15 -13 15 -51 20
-63 8z"/>
<path d="M9366 3705 c-4 -12 3 -15 36 -15 35 0 39 2 28 15 -7 8 -23 15 -35 15
-13 0 -25 -7 -29 -15z"/>
<path d="M9574 3706 c-3 -8 -4 -27 -2 -43 6 -50 78 -40 78 11 0 12 -5 27 -12
34 -16 16 -57 15 -64 -2z"/>
<path d="M9742 3708 c-17 -17 -15 -53 3 -68 8 -7 25 -10 40 -6 43 11 30 86
-15 86 -9 0 -21 -5 -28 -12z"/>
<path d="M10140 3706 c-11 -14 -7 -16 30 -16 29 0 40 4 38 13 -7 18 -53 20
-68 3z"/>
<path d="M11530 3660 c-21 -13 1 -33 31 -28 32 4 39 38 7 38 -13 0 -30 -5 -38
-10z"/>
<path d="M11857 3713 c-4 -3 -7 -21 -7 -39 0 -28 5 -35 25 -40 15 -4 32 -1 40
6 18 15 20 51 3 68 -13 13 -50 16 -61 5z"/>
<path d="M17181 3582 c-12 -22 3 -42 30 -42 24 0 31 26 13 45 -20 20 -31 19
-43 -3z"/>
<path d="M2979 3349 c-16 -30 3 -69 34 -69 29 0 47 17 47 45 0 45 -60 63 -81
24z"/>
<path d="M3222 3358 c-7 -7 -12 -21 -12 -33 0 -47 62 -63 81 -21 22 47 -33 90
-69 54z"/>
<path d="M5641 3348 c-12 -31 2 -62 28 -66 28 -4 51 14 51 42 0 47 -63 66 -79
24z"/>
<path d="M6330 3356 c-28 -35 11 -93 48 -70 35 22 22 84 -18 84 -10 0 -23 -7
-30 -14z"/>
<path d="M8669 3349 c-16 -30 3 -69 34 -69 29 0 47 17 47 45 0 45 -60 63 -81
24z"/>
<path d="M9642 3358 c-17 -17 -15 -53 3 -68 8 -7 25 -10 40 -6 43 11 30 86
-15 86 -9 0 -21 -5 -28 -12z"/>
<path d="M1467 3363 c-16 -15 -4 -23 34 -23 36 0 40 2 29 15 -13 15 -51 20
-63 8z"/>
<path d="M1987 3313 c-17 -17 -6 -34 20 -31 36 4 45 38 10 38 -13 0 -27 -3
-30 -7z"/>
<path d="M2607 3313 c-17 -17 -6 -34 20 -31 36 4 45 38 10 38 -13 0 -27 -3
-30 -7z"/>
<path d="M2837 3363 c-16 -15 -4 -23 34 -23 36 0 40 2 29 15 -13 15 -51 20
-63 8z"/>
<path d="M3719 3349 c-16 -30 3 -69 34 -69 29 0 47 17 47 45 0 45 -60 63 -81
24z"/>
<path d="M4632 3358 c-30 -30 -3 -83 39 -76 32 5 45 31 31 62 -13 28 -49 35
-70 14z"/>
<path d="M5180 3354 c-10 -11 -11 -23 -4 -42 7 -21 16 -27 39 -27 23 0 32 6
39 27 11 33 -6 58 -39 58 -12 0 -28 -7 -35 -16z"/>
<path d="M5797 3363 c-16 -15 -4 -23 34 -23 36 0 40 2 29 15 -13 15 -51 20
-63 8z"/>
<path d="M6810 3356 c-11 -14 -7 -16 30 -16 29 0 40 4 38 13 -7 18 -53 20 -68
3z"/>
<path d="M7270 3356 c-11 -14 -7 -16 30 -16 29 0 40 4 38 13 -7 18 -53 20 -68
3z"/>
<path d="M7583 3363 c-27 -10 -11 -23 28 -23 36 0 40 2 29 15 -12 15 -34 18
-57 8z"/>
<path d="M8450 3356 c-11 -14 -7 -16 30 -16 29 0 40 4 38 13 -7 18 -53 20 -68
3z"/>
<path d="M8820 3305 c-10 -12 -9 -16 3 -21 25 -9 51 0 55 19 4 22 -40 24 -58
2z"/>
<path d="M9330 3356 c-11 -14 -7 -16 30 -16 29 0 40 4 38 13 -7 18 -53 20 -68
3z"/>
<path d="M17213 3225 c0 -13 3 -22 8 -19 5 3 9 14 9 25 0 10 -4 19 -9 19 -5 0
-8 -11 -8 -25z"/>
<path d="M1325 2807 c-3 -7 -4 -129 -3 -272 l3 -260 705 0 705 0 0 270 0 270
-703 3 c-561 2 -704 0 -707 -11z m443 -219 c15 -15 16 -55 1 -64 -8 -4 -8 -9
0 -17 6 -6 11 -15 11 -19 0 -14 -27 -9 -40 7 -7 8 -16 15 -21 15 -5 0 -9 -7
-9 -15 0 -8 -7 -15 -15 -15 -12 0 -15 13 -15 60 l0 60 38 0 c21 0 43 -5 50
-12z m108 -26 c6 -4 13 -15 17 -24 5 -15 0 -18 -30 -18 -20 0 -33 -3 -29 -7 4
-5 16 -8 27 -8 31 0 26 -20 -6 -23 -40 -3 -57 10 -57 43 0 38 45 60 78 37z
m104 -8 c0 -11 -6 -14 -20 -9 -29 9 -25 -4 5 -15 14 -5 25 -14 25 -19 0 -17
-29 -32 -57 -29 -34 4 -28 24 7 21 22 -2 21 0 -7 12 -36 16 -40 24 -21 43 18
18 68 15 68 -4z m50 -13 c0 -17 4 -32 9 -35 14 -9 34 22 28 44 -4 15 0 20 14
20 16 0 19 -7 19 -46 l0 -45 -47 3 -48 3 -3 43 c-2 33 0 42 12 42 11 0 16 -9
16 -29z m240 9 c6 -10 10 -31 10 -45 0 -20 -4 -26 -17 -23 -11 2 -17 11 -16
23 4 26 -12 49 -26 41 -6 -4 -11 -20 -11 -37 0 -41 -28 -39 -32 4 -2 17 -7 32
-13 32 -5 0 -11 -15 -13 -32 -4 -40 -28 -44 -34 -5 -8 57 -3 62 73 61 57 -1
71 -4 79 -19z m108 8 c23 -23 13 -38 -25 -38 -20 0 -33 -3 -29 -7 4 -5 16 -8
27 -8 30 0 27 -20 -4 -23 -34 -4 -57 13 -57 42 0 29 18 46 50 46 14 0 31 -5
38 -12z"/>
<path d="M1710 2555 c0 -20 4 -26 18 -23 9 2 17 12 17 23 0 11 -8 21 -17 23
-14 3 -18 -3 -18 -23z"/>
<path d="M17130 1540 c0 -13 7 -20 20 -20 13 0 20 7 20 20 0 13 -7 20 -20 20
-13 0 -20 -7 -20 -20z"/>
<path d="M17130 1435 c0 -58 2 -65 20 -65 18 0 20 7 20 65 0 58 -2 65 -20 65
-18 0 -20 -7 -20 -65z"/>
<path d="M17200 1435 c0 -58 2 -65 20 -65 17 0 20 7 20 51 0 43 3 50 18 47 13
-2 18 -15 20 -51 3 -39 6 -47 23 -47 16 0 19 7 19 53 0 57 -12 77 -45 77 -12
0 -26 -5 -33 -12 -9 -9 -12 -9 -12 0 0 7 -7 12 -15 12 -12 0 -15 -14 -15 -65z"/>
</g>
</svg>
