<?xml version="1.0" encoding="utf-8"?>
<!-- Generator: Adobe Illustrator 23.0.3, SVG Export Plug-In . SVG Version: 6.00 Build 0)  -->
<svg version="1.1" id="Icons" xmlns="http://www.w3.org/2000/svg" xmlns:xlink="http://www.w3.org/1999/xlink" x="0px" y="0px"
	 viewBox="0 0 32 32" style="enable-background:new 0 0 32 32;" xml:space="preserve">
<style type="text/css">
	.st0{fill:none;stroke:#ffffff;stroke-width:2;stroke-linecap:round;stroke-linejoin:round;stroke-miterlimit:10;}
</style>
<path d="M27,3H5C3.3,3,2,4.3,2,6v15c0,1.7,1.3,3,3,3h22c1.7,0,3-1.3,3-3V6C30,4.3,28.7,3,27,3z M10.7,12.7l-3,3
	C7.5,15.9,7.3,16,7,16s-0.5-0.1-0.7-0.3c-0.4-0.4-0.4-1,0-1.4L8.6,12L6.3,9.7c-0.4-0.4-0.4-1,0-1.4s1-0.4,1.4,0l3,3
	C11.1,11.7,11.1,12.3,10.7,12.7z M17,16h-4c-0.6,0-1-0.4-1-1s0.4-1,1-1h4c0.6,0,1,0.4,1,1S17.6,16,17,16z"/>
<g>
	<path d="M23,28L23,28c-1.1,0-2.1-0.7-2.5-1.8c0-0.1-0.1-0.2-0.1-0.2h-8.9c0,0.1,0,0.2-0.1,0.2C11.1,27.3,10.1,28,9,28h0
		c-0.6,0-1,0.4-1,1s0.4,1,1,1h14c0.6,0,1-0.4,1-1S23.6,28,23,28z"/>
</g>
</svg>
