<?xml version="1.0" standalone="no"?>
<!DOCTYPE svg PUBLIC "-//W3C//DTD SVG 20010904//EN"
 "http://www.w3.org/TR/2001/REC-SVG-20010904/DTD/svg10.dtd">
<svg version="1.0" xmlns="http://www.w3.org/2000/svg"
 width="1904.000000pt" height="967.000000pt" viewBox="0 0 1904.000000 967.000000"
 preserveAspectRatio="xMidYMid meet">

<g transform="translate(0.000000,967.000000) scale(0.100000,-0.100000)"
fill="#000000" stroke="none">
<path d="M0 4835 l0 -4835 9520 0 9520 0 0 4835 0 4835 -9520 0 -9520 0 0
-4835z m11215 4101 c29 -44 -18 -88 -70 -64 -27 12 -35 54 -13 76 21 21 66 14
83 -12z m-2455 -196 l0 -190 -44 0 c-24 0 -46 4 -48 10 -2 5 -22 3 -49 -7 -43
-16 -47 -15 -84 3 -60 30 -80 64 -80 137 1 43 6 70 19 90 36 54 108 72 166 42
l30 -16 0 61 0 60 45 0 45 0 0 -190z m1620 0 l0 -190 -45 0 c-35 0 -45 4 -45
17 0 14 -2 14 -20 -2 -26 -24 -97 -24 -132 -1 -41 27 -61 79 -56 149 4 54 8
63 41 93 30 28 45 34 80 34 23 0 53 -7 65 -16 l22 -15 0 60 0 61 45 0 45 0 0
-190z m-3052 123 c6 -27 16 -78 23 -115 7 -38 15 -65 18 -62 3 3 17 54 31 112
l25 107 52 3 52 3 10 -38 c6 -21 18 -73 28 -116 9 -43 20 -74 23 -70 4 5 15
49 24 98 25 133 20 125 78 125 41 0 49 -3 44 -16 -3 -8 -25 -89 -48 -180 l-41
-164 -58 0 -57 0 -22 93 c-11 50 -23 99 -27 107 -3 8 -18 -32 -32 -90 l-27
-105 -56 -3 -57 -3 -10 38 c-5 21 -26 99 -45 174 -20 74 -36 138 -36 142 0 4
22 7 49 7 l49 0 10 -47z m2402 12 l0 -35 -50 0 -50 0 0 -145 0 -145 -45 0 -45
0 0 145 0 145 -50 0 -50 0 0 35 0 35 145 0 145 0 0 -35z m1240 -110 l0 -145
60 0 60 0 0 -35 0 -35 -105 0 -105 0 0 180 0 180 45 0 45 0 0 -145z m700 110
c0 -32 2 -35 30 -35 28 0 30 -2 30 -40 0 -38 -2 -40 -30 -40 l-30 0 0 -64 c0
-63 1 -65 28 -68 23 -3 27 -8 30 -40 l3 -38 -51 0 c-41 0 -56 5 -75 25 -22 22
-25 32 -25 105 0 73 -2 80 -20 80 -17 0 -20 7 -20 40 0 33 3 40 20 40 16 0 20
7 20 35 0 35 0 35 45 35 45 0 45 0 45 -35z m-3800 -129 c0 -100 10 -126 50
-126 40 0 50 26 50 126 l0 95 48 -3 47 -3 3 -142 3 -143 -50 0 c-31 0 -51 5
-54 13 -3 9 -7 9 -18 1 -40 -31 -115 -20 -149 23 -17 22 -20 40 -20 139 l0
114 45 0 45 0 0 -94z m350 78 c0 -14 2 -14 22 0 26 19 80 21 111 5 49 -25 57
-47 57 -166 l0 -113 -45 0 -45 0 0 93 c0 101 -7 117 -50 117 -43 0 -50 -16
-50 -117 l0 -93 -50 0 -50 0 0 138 c0 76 3 142 7 145 3 4 26 7 50 7 32 0 43
-4 43 -16z m800 1 c46 -24 70 -62 70 -111 l0 -44 -95 0 c-71 0 -95 -3 -95 -13
0 -35 57 -50 80 -22 14 17 110 21 110 5 0 -5 -14 -25 -31 -45 -101 -115 -283
-23 -255 130 8 38 48 92 80 105 34 14 105 11 136 -5z m210 0 c0 -14 3 -14 30
0 51 27 61 21 58 -32 -3 -45 -5 -48 -33 -51 -49 -6 -55 -17 -55 -108 l0 -84
-50 0 -50 0 0 138 c0 76 3 142 7 145 3 4 26 7 50 7 32 0 43 -4 43 -15z m747
-2 c48 -22 73 -66 73 -128 0 -91 -58 -148 -151 -149 -87 0 -149 62 -149 149 0
110 121 179 227 128z m681 -3 c68 -42 91 -129 53 -200 -51 -95 -205 -99 -261
-7 -26 42 -26 121 -1 163 37 61 143 84 209 44z m562 -125 l0 -145 -50 0 -50 0
0 138 c0 76 3 142 7 145 3 4 26 7 50 7 l43 0 0 -145z m240 130 c31 -16 50 -43
50 -69 0 -21 -73 -22 -90 -1 -17 21 -62 20 -58 -1 2 -10 27 -24 66 -36 55 -17
65 -24 78 -53 24 -58 -8 -104 -83 -120 -65 -13 -146 29 -155 80 -5 30 67 35
94 6 22 -25 41 -27 58 -6 10 13 7 17 -23 30 -20 8 -43 15 -51 15 -8 0 -28 12
-45 26 -47 39 -39 98 17 128 35 20 105 20 142 1z m-620 -2035 l0 -280 -2390 0
-2390 0 0 280 0 280 2390 0 2390 0 0 -280z m1880 0 l0 -250 -855 0 -855 0 0
250 0 250 855 0 855 0 0 -250z m-450 -1330 l0 -270 -2795 0 -2795 0 0 270 0
270 2795 0 2795 0 0 -270z m-1000 -630 l0 -270 -2295 0 -2295 0 0 270 0 270
2295 0 2295 0 0 -270z m797 94 l30 -6 -5 -71 c-2 -40 -9 -78 -14 -84 -11 -13
-75 -18 -102 -7 -12 5 -16 21 -16 69 0 35 -4 67 -10 70 -36 23 47 43 117 29z
m-460 -30 c2 -5 -22 -34 -52 -64 l-55 -54 -36 35 c-29 30 -33 37 -21 47 11 10
19 8 39 -7 l25 -20 39 40 c37 37 54 44 61 23z m663 -689 l0 -275 -2795 0
-2795 0 0 275 0 275 2795 0 2795 0 0 -275z"/>
<path d="M8567 8742 c-20 -22 -22 -72 -4 -94 37 -48 101 -18 101 47 0 59 -60
88 -97 47z"/>
<path d="M10186 8738 c-23 -32 -20 -65 9 -93 29 -30 35 -31 69 -4 50 39 26
119 -37 119 -15 0 -32 -9 -41 -22z"/>
<path d="M8918 8759 c-36 -21 -21 -39 32 -39 54 0 61 7 32 33 -21 19 -39 21
-64 6z"/>
<path d="M9860 8745 c-21 -25 -15 -87 10 -107 29 -23 36 -23 65 7 29 28 32 61
9 93 -18 26 -65 30 -84 7z"/>
<path d="M10536 8738 c-23 -32 -20 -65 9 -93 29 -30 36 -30 65 -7 25 20 31 82
10 107 -19 23 -66 19 -84 -7z"/>
<path d="M11215 6829 c-4 -5 -4 -13 -1 -16 3 -4 6 0 6 8 0 11 2 11 10 -1 6 -9
10 -10 10 -3 0 17 -17 25 -25 12z"/>
<path d="M11293 6790 c0 -30 2 -43 4 -27 2 15 2 39 0 55 -2 15 -4 2 -4 -28z"/>
<path d="M11323 6790 c0 -30 2 -43 4 -27 2 15 2 39 0 55 -2 15 -4 2 -4 -28z"/>
<path d="M11192 6770 c-10 -31 -10 -33 3 -16 9 13 22 17 40 14 27 -6 30 -1 15
22 -6 10 -10 11 -10 3 0 -17 -27 -17 -32 -1 -3 7 -10 -3 -16 -22z"/>
<path d="M7130 5526 c0 -8 -6 -17 -12 -19 -10 -4 -10 -7 -1 -14 6 -5 13 -33
15 -63 3 -48 6 -55 26 -58 12 -2 22 1 22 7 0 6 -7 11 -15 11 -11 0 -15 12 -15
50 0 38 4 50 15 50 8 0 15 5 15 10 0 6 -7 10 -15 10 -8 0 -15 7 -15 15 0 8 -4
15 -10 15 -5 0 -10 -6 -10 -14z"/>
<path d="M6796 5488 c-36 -50 -5 -118 52 -118 16 0 37 9 47 20 16 17 16 20 2
20 -9 0 -19 -4 -22 -10 -14 -22 -75 -4 -75 22 0 4 25 8 55 8 51 0 55 2 55 23
0 54 -84 79 -114 35z m86 -12 c15 -21 8 -26 -37 -26 -49 0 -57 11 -24 34 22
15 48 11 61 -8z"/>
<path d="M6957 5492 c-23 -25 -22 -85 1 -105 22 -20 63 -22 81 -4 11 10 14 10
18 0 12 -33 23 -6 23 57 0 40 -4 70 -10 70 -5 0 -10 -5 -10 -10 0 -7 -6 -7
-19 0 -30 15 -66 12 -84 -8z m79 -10 c36 -24 14 -92 -29 -92 -30 0 -47 18 -47
50 0 14 5 31 12 38 13 13 47 16 64 4z"/>
<path d="M6920 4895 c0 -49 -20 -62 -40 -25 -16 30 -70 27 -99 -6 -12 -14 -21
-27 -19 -29 2 -1 23 -10 48 -18 50 -16 68 -47 28 -47 -13 0 -29 5 -36 12 -17
17 -27 2 -12 -17 18 -21 79 -16 94 8 9 15 7 22 -13 38 l-23 19 36 0 c35 0 36
-1 36 -40 0 -22 5 -40 10 -40 6 0 10 18 10 40 0 29 4 40 15 40 8 0 15 -6 15
-14 0 -7 9 -25 21 -40 26 -33 77 -36 104 -6 16 17 16 20 2 20 -9 0 -19 -4 -22
-10 -14 -22 -75 -4 -75 22 0 4 25 8 55 8 30 0 55 5 55 10 0 6 5 10 10 10 6 0
10 -9 10 -20 0 -49 89 -82 120 -45 19 22 4 31 -26 15 -18 -10 -30 -11 -42 -4
-35 23 -24 34 32 34 31 0 56 5 56 10 0 6 7 10 15 10 12 0 15 -15 15 -75 0 -43
4 -75 10 -75 6 0 10 18 10 39 l0 39 40 -5 c47 -7 80 16 80 53 0 12 6 24 12 26
8 3 2 14 -17 31 -25 22 -38 26 -82 25 -44 -2 -53 -6 -53 -20 0 -24 -32 -23
-48 2 -9 15 -23 20 -52 20 -29 0 -43 -5 -52 -20 -7 -11 -18 -20 -24 -20 -6 0
-19 9 -29 20 -11 12 -31 20 -52 20 -21 0 -40 -7 -50 -20 -10 -11 -25 -20 -35
-20 -15 0 -18 9 -18 45 0 25 -4 45 -10 45 -5 0 -10 -20 -10 -45z m-65 -35 c4
-6 -7 -10 -25 -10 -18 0 -29 4 -25 10 3 6 15 10 25 10 10 0 22 -4 25 -10z
m220 0 c4 -6 -8 -10 -30 -10 -22 0 -34 4 -30 10 3 6 17 10 30 10 13 0 27 -4
30 -10z m160 0 c4 -6 -8 -10 -30 -10 -22 0 -34 4 -30 10 3 6 17 10 30 10 13 0
27 -4 30 -10z m170 0 c4 -6 -8 -10 -30 -10 -22 0 -34 4 -30 10 3 6 17 10 30
10 13 0 27 -4 30 -10z m15 -44 c0 -20 -28 -46 -50 -46 -17 0 -50 34 -50 52 0
5 23 8 50 8 37 0 50 -4 50 -14z"/>
<path d="M7550 4276 c0 -8 -6 -17 -12 -20 -10 -5 -10 -7 0 -12 7 -3 12 -25 12
-53 0 -50 13 -71 42 -71 24 0 23 16 -2 23 -16 4 -20 14 -20 51 0 39 3 46 20
46 11 0 20 5 20 10 0 6 -9 10 -20 10 -11 0 -20 7 -20 15 0 8 -4 15 -10 15 -5
0 -10 -6 -10 -14z"/>
<path d="M6790 4190 c0 -40 4 -70 10 -70 6 0 10 25 10 56 0 47 3 57 20 61 11
3 20 9 20 14 0 13 -14 11 -28 -3 -9 -9 -12 -9 -12 0 0 7 -4 12 -10 12 -6 0
-10 -30 -10 -70z"/>
<path d="M6896 4244 c-43 -43 -19 -116 40 -122 31 -3 74 21 61 34 -4 4 -13 2
-19 -4 -19 -19 -66 -14 -78 8 -10 19 -8 20 51 20 l61 0 -6 28 c-4 15 -14 33
-23 40 -23 17 -68 15 -87 -4z m84 -24 c10 -19 8 -20 -40 -20 -48 0 -50 1 -40
20 7 13 21 20 40 20 19 0 33 -7 40 -20z"/>
<path d="M7040 4160 c0 -60 4 -100 10 -100 6 0 10 18 10 40 0 37 2 40 19 30
69 -36 131 42 85 108 -16 24 -53 29 -85 12 -13 -7 -19 -7 -19 0 0 5 -4 10 -10
10 -6 0 -10 -40 -10 -100z m108 68 c7 -7 12 -24 12 -38 0 -34 -17 -50 -52 -50
-37 0 -57 38 -40 75 13 27 58 35 80 13z"/>
<path d="M7227 4242 c-23 -25 -22 -85 1 -105 10 -10 30 -17 43 -17 29 0 68 25
56 36 -4 4 -13 2 -19 -4 -15 -15 -51 -15 -66 0 -22 22 -13 28 43 28 61 0 70
14 39 58 -19 28 -74 30 -97 4z m81 -14 c21 -21 13 -28 -33 -28 -25 0 -45 4
-45 8 0 15 24 32 45 32 12 0 26 -5 33 -12z"/>
<path d="M7387 4242 c-23 -25 -22 -85 1 -105 22 -20 63 -22 81 -4 11 10 14 10
18 0 12 -33 23 -6 23 57 0 40 -4 70 -10 70 -5 0 -10 -5 -10 -10 0 -7 -6 -7
-19 0 -30 15 -66 12 -84 -8z m79 -10 c36 -24 14 -92 -29 -92 -30 0 -47 18 -47
50 0 14 5 31 12 38 13 13 47 16 64 4z"/>
</g>
</svg>
